<svg width="400" height="212" viewBox="0 0 400 212" fill="none" xmlns="http://www.w3.org/2000/svg">
<path d="M272.554 125.973C270.595 128.461 266.954 128.461 264.714 126.533C190.357 61.3541 127.479 123.762 124.679 126.533C123.558 127.62 122.159 128.183 120.758 128.183C119.356 128.183 117.957 127.62 116.839 126.533C114.877 124.603 114.599 121.025 116.839 118.786C117.397 117.945 189.797 46.1373 272.245 118.225C274.516 120.155 274.796 123.762 272.554 125.973ZM250.185 141.965C252.115 143.456 252.551 145.915 251.742 147.999C248.89 147.299 245.965 146.944 243.029 146.941C241.723 146.941 240.446 147.004 239.203 147.129C188.707 106.527 148.696 148.654 147.08 150.55C145.959 151.92 144.278 152.48 142.879 152.48C141.76 152.48 140.359 151.92 139.24 151.111C136.998 149.183 136.998 145.603 138.96 143.364C139.518 142.803 190.106 89.2292 250.185 141.962V141.965ZM192.907 151.92C200.903 151.579 208.713 153.787 216.149 158.451C213.541 161.179 211.36 164.285 209.678 167.663C204.327 164.427 198.943 162.809 193.435 162.965C179.469 163.245 169.106 175.379 169.106 175.379C167.147 177.867 163.538 178.148 161.266 176.22C158.746 174.29 158.466 170.992 160.426 168.472C161.018 167.663 173.898 152.761 192.907 151.92ZM194.556 181.477C197.481 181.477 200.405 182.659 202.46 184.713C203.49 185.736 204.309 186.952 204.87 188.292C205.43 189.632 205.721 191.069 205.725 192.521C205.725 195.414 204.543 198.278 202.46 200.33C200.376 202.382 197.481 203.566 194.556 203.566C191.632 203.566 188.708 202.384 186.653 200.33C185.622 199.307 184.804 198.09 184.243 196.751C183.683 195.411 183.392 193.974 183.387 192.521C183.392 191.069 183.683 189.632 184.243 188.292C184.804 186.952 185.622 185.736 186.653 184.713C188.767 182.648 191.602 181.488 194.556 181.477ZM244.026 156.616C259.302 156.616 271.653 169.001 271.653 184.245C271.653 199.489 259.27 211.842 244.026 211.842C228.782 211.842 216.397 199.46 216.397 184.214C216.397 168.967 228.782 156.619 244.026 156.619V156.616ZM258.151 190.872L251.493 184.214L258.151 177.555C259.27 176.405 258.524 173.793 256.47 171.738C254.386 169.654 251.803 168.906 250.652 170.059L243.992 176.715L237.334 170.057C236.182 168.936 233.569 169.684 231.517 171.736C229.431 173.822 228.685 176.403 229.835 177.553L236.493 184.211L229.835 190.869C228.717 192.022 229.462 194.634 231.517 196.689C233.601 198.773 236.182 199.521 237.334 198.368L243.992 191.71L250.65 198.368C251.803 199.489 254.415 198.741 256.468 196.689C258.551 194.603 259.299 192.022 258.149 190.869L258.151 190.872ZM30.4267 72.4192C26.5525 72.4192 22.837 70.8801 20.0975 68.1407C17.3581 65.4012 15.819 61.6857 15.819 57.8115C15.819 53.9373 17.3581 50.2218 20.0975 47.4823C22.837 44.7428 26.5525 43.2038 30.4267 43.2038C34.3009 43.2038 38.0164 44.7428 40.7559 47.4823C43.4954 50.2218 45.0344 53.9373 45.0344 57.8115C45.0344 61.6857 43.4954 65.4012 40.7559 68.1407C38.0164 70.8801 34.3009 72.4192 30.4267 72.4192ZM30.4787 65.7408C32.5682 65.7408 34.5721 64.9107 36.0496 63.4332C37.5271 61.9557 38.3571 59.9518 38.3571 57.8623C38.3571 55.7728 37.5271 53.7689 36.0496 52.2914C34.5721 50.8139 32.5682 49.9839 30.4787 49.9839C28.3892 49.9839 26.3853 50.8139 24.9078 52.2914C23.4303 53.7689 22.6002 55.7728 22.6002 57.8623C22.6002 59.9518 23.4303 61.9557 24.9078 63.4332C26.3853 64.9107 28.3892 65.7408 30.4787 65.7408ZM169.719 12.1104C170.085 12.1104 170.436 12.2559 170.695 12.5149C170.954 12.7738 171.1 13.1251 171.1 13.4913C171.1 13.8575 170.954 14.2087 170.695 14.4677C170.436 14.7267 170.085 14.8722 169.719 14.8722H159.25V25.3406C159.25 25.7065 159.105 26.0575 158.846 26.3162C158.587 26.575 158.237 26.7203 157.871 26.7203C157.505 26.7203 157.154 26.575 156.895 26.3162C156.636 26.0575 156.491 25.7065 156.491 25.3406V14.8722H146.02C145.654 14.8722 145.303 14.7268 145.045 14.468C144.786 14.2093 144.64 13.8583 144.64 13.4924C144.64 13.1265 144.786 12.7755 145.045 12.5168C145.303 12.258 145.654 12.1127 146.02 12.1127H156.491V1.64424C156.491 1.27861 156.636 0.927952 156.895 0.669412C157.153 0.410872 157.504 0.265625 157.869 0.265625C158.235 0.265625 158.586 0.410872 158.844 0.669412C159.103 0.927952 159.248 1.27861 159.248 1.64424V12.1127L169.719 12.1104ZM22.9234 130.965C23.1881 130.966 23.4416 131.071 23.6283 131.259C23.815 131.446 23.9196 131.701 23.919 131.965C23.9184 132.23 23.8127 132.483 23.6251 132.67C23.4376 132.857 23.1835 132.961 22.9189 132.961H13.0358V142.9C13.0359 143.031 13.0102 143.161 12.9601 143.282C12.91 143.403 12.8366 143.513 12.7441 143.605C12.6515 143.698 12.5416 143.771 12.4207 143.822C12.2997 143.872 12.1701 143.897 12.0392 143.897C11.9082 143.897 11.7786 143.872 11.6576 143.822C11.5367 143.771 11.4268 143.698 11.3342 143.605C11.2417 143.513 11.1683 143.403 11.1182 143.282C11.0681 143.161 11.0424 143.031 11.0425 142.9V132.956L0.994413 132.949C0.730079 132.949 0.476811 132.843 0.290322 132.656C0.103834 132.469 -0.000596861 132.215 2.56631e-06 131.95C0.000601994 131.686 0.106183 131.433 0.293519 131.246C0.480855 131.06 0.7346 130.955 0.998933 130.956L11.0447 130.963V121.041C11.0447 120.777 11.1499 120.523 11.337 120.336C11.5241 120.149 11.7779 120.044 12.0425 120.044C12.3072 120.044 12.561 120.149 12.7481 120.336C12.9352 120.523 13.0403 120.777 13.0403 121.041V130.97L22.9234 130.965ZM388.426 80.6795C388.468 80.722 388.502 80.7724 388.525 80.8278C388.548 80.8833 388.56 80.9427 388.56 81.0027C388.56 81.0628 388.548 81.1222 388.525 81.1776C388.502 81.2331 388.468 81.2835 388.426 81.3259C388.383 81.3684 388.333 81.402 388.278 81.425C388.222 81.448 388.163 81.4598 388.103 81.4598C388.043 81.4598 387.983 81.448 387.928 81.425C387.872 81.402 387.822 81.3684 387.779 81.3259L383.253 76.7991L378.724 81.3259C378.681 81.3684 378.631 81.402 378.575 81.425C378.52 81.448 378.46 81.4598 378.4 81.4598C378.34 81.4598 378.281 81.448 378.225 81.425C378.17 81.402 378.12 81.3684 378.077 81.3259C378.035 81.2835 378.001 81.2331 377.978 81.1776C377.955 81.1222 377.943 81.0628 377.943 81.0027C377.943 80.9427 377.955 80.8833 377.978 80.8278C378.001 80.7724 378.035 80.722 378.077 80.6795L382.604 76.1527L378.077 71.6259C377.991 71.5402 377.943 71.4239 377.943 71.3027C377.943 71.1815 377.991 71.0652 378.077 70.9795C378.163 70.8938 378.279 70.8456 378.4 70.8456C378.522 70.8456 378.638 70.8938 378.724 70.9795L383.253 75.5063L387.779 70.9795C387.865 70.8938 387.981 70.8456 388.103 70.8456C388.224 70.8456 388.34 70.8938 388.426 70.9795C388.512 71.0652 388.56 71.1815 388.56 71.3027C388.56 71.4239 388.512 71.5402 388.426 71.6259L383.899 76.1527L388.426 80.6795ZM292.867 104.342C291.704 103.18 290.544 102.014 289.376 100.857C289.247 100.73 289.256 100.663 289.38 100.545C289.665 100.274 289.934 99.9915 290.216 99.7044L290.361 99.84C291.536 101.015 292.712 102.193 293.889 103.366C294.007 103.481 293.995 103.544 293.884 103.65C293.604 103.922 293.333 104.209 293.044 104.505C292.967 104.437 292.915 104.392 292.867 104.342ZM301.657 111.057L305.313 114.722C305.322 114.729 305.327 114.74 305.352 114.786C305.044 115.091 304.739 115.396 304.425 115.69C304.4 115.712 304.29 115.681 304.249 115.642C303.734 115.136 303.225 114.625 302.714 114.114L300.721 112.119L300.583 111.974C300.608 111.938 300.626 111.902 300.651 111.877L301.458 111.066C301.526 110.998 301.578 110.975 301.657 111.057ZM301.379 104.295C301.144 104.041 300.893 103.802 300.646 103.56C300.579 103.492 300.554 103.44 300.633 103.359L304.238 99.7609C304.253 99.7451 304.274 99.7338 304.317 99.7044C304.622 100.012 304.92 100.31 305.212 100.611C305.234 100.633 305.225 100.701 305.214 100.742C305.205 100.771 305.169 100.792 305.146 100.816C303.985 101.976 302.823 103.133 301.666 104.297C301.553 104.414 301.487 104.41 301.379 104.295ZM293.13 111.093C293.367 111.346 293.616 111.588 293.864 111.829C293.932 111.897 293.955 111.949 293.875 112.028C292.673 113.226 291.473 114.428 290.273 115.629C290.257 115.644 290.235 115.653 290.194 115.683C289.887 115.375 289.588 115.079 289.297 114.779C289.274 114.754 289.283 114.688 289.297 114.648C289.303 114.618 289.342 114.596 289.364 114.573C290.524 113.411 291.685 112.254 292.843 111.093C292.956 110.975 293.023 110.98 293.13 111.093ZM297.453 99.8423C297.453 100.568 297.449 101.295 297.455 102.023C297.458 102.181 297.41 102.233 297.252 102.227C296.911 102.218 296.569 102.218 296.228 102.227C296.115 102.227 296.063 102.2 296.063 102.073V97.6049C296.063 97.4851 296.102 97.4444 296.221 97.4467C296.576 97.4534 296.929 97.4557 297.279 97.4467C297.421 97.4421 297.455 97.4919 297.455 97.6252C297.451 98.3642 297.453 99.1033 297.453 99.84V99.8423ZM291.803 106.679C291.794 107.025 291.794 107.372 291.803 107.718C291.803 107.841 291.762 107.877 291.645 107.877C290.153 107.872 288.664 107.872 287.177 107.877C287.048 107.877 287.023 107.825 287.023 107.709C287.03 107.359 287.03 107.007 287.023 106.654C287.021 106.525 287.064 106.485 287.193 106.487C287.929 106.491 288.668 106.487 289.407 106.487C290.14 106.487 290.874 106.491 291.606 106.487C291.756 106.485 291.81 106.523 291.803 106.679ZM307.623 106.67C307.614 107.022 307.616 107.373 307.623 107.725C307.623 107.838 307.585 107.877 307.472 107.874H303.006C302.87 107.877 302.841 107.822 302.843 107.7C302.85 107.355 302.852 107.009 302.843 106.661C302.839 106.525 302.886 106.484 303.022 106.484C303.759 106.491 304.498 106.489 305.237 106.489C305.971 106.489 306.703 106.491 307.436 106.484C307.576 106.484 307.628 106.523 307.623 106.67ZM297.453 115.642C297.453 116.381 297.449 117.12 297.453 117.859C297.455 118.002 297.415 118.051 297.27 118.047C296.918 118.039 296.565 118.039 296.212 118.047C296.099 118.047 296.063 118.006 296.063 117.895V113.427C296.063 113.308 296.099 113.265 296.221 113.267C296.574 113.274 296.926 113.276 297.277 113.267C297.417 113.262 297.458 113.31 297.455 113.443C297.449 114.178 297.453 114.91 297.453 115.642ZM390.652 141.983C388.342 141.983 386.127 141.065 384.494 139.432C382.861 137.799 381.943 135.583 381.943 133.274C381.943 130.964 382.861 128.749 384.494 127.116C386.127 125.482 388.342 124.565 390.652 124.565C392.962 124.565 395.177 125.482 396.81 127.116C398.443 128.749 399.361 130.964 399.361 133.274C399.361 135.583 398.443 137.799 396.81 139.432C395.177 141.065 392.962 141.983 390.652 141.983ZM390.645 139.327C391.454 139.327 392.256 139.168 393.003 138.859C393.751 138.549 394.43 138.095 395.002 137.523C395.575 136.951 396.028 136.272 396.338 135.524C396.648 134.777 396.807 133.976 396.807 133.166C396.807 132.357 396.648 131.556 396.338 130.808C396.028 130.061 395.575 129.382 395.002 128.81C394.43 128.237 393.751 127.784 393.003 127.474C392.256 127.165 391.454 127.005 390.645 127.006C389.011 127.006 387.445 127.655 386.29 128.81C385.135 129.966 384.486 131.533 384.486 133.166C384.486 134.8 385.135 136.367 386.29 137.522C387.445 138.678 389.011 139.327 390.645 139.327ZM282.047 40.0285C281.216 40.0287 280.394 39.8652 279.626 39.5475C278.859 39.2298 278.162 38.764 277.574 38.1768C276.987 37.5896 276.521 36.8924 276.203 36.1252C275.885 35.3579 275.722 34.5355 275.722 33.7049C275.722 32.8744 275.885 32.052 276.203 31.2847C276.521 30.5174 276.987 29.8203 277.574 29.2331C278.162 28.6459 278.859 28.1801 279.626 27.8624C280.394 27.5447 281.216 27.3812 282.047 27.3814C283.723 27.3817 285.331 28.0481 286.517 29.234C287.703 30.4198 288.369 32.0281 288.369 33.7049C288.369 35.3818 287.703 36.9901 286.517 38.1759C285.331 39.3618 283.723 40.0281 282.047 40.0285ZM281.979 37.1176C282.446 37.1344 282.912 37.0569 283.349 36.8897C283.785 36.7225 284.184 36.469 284.52 36.1444C284.857 35.8197 285.125 35.4306 285.307 35.0002C285.49 34.5698 285.585 34.107 285.585 33.6394C285.585 33.1718 285.49 32.709 285.307 32.2786C285.125 31.8482 284.857 31.4591 284.52 31.1344C284.184 30.8098 283.785 30.5563 283.349 30.3891C282.912 30.2219 282.446 30.1444 281.979 30.1612C281.078 30.1937 280.225 30.5744 279.599 31.2231C278.973 31.8718 278.624 32.738 278.624 33.6394C278.624 34.5408 278.973 35.407 279.599 36.0557C280.225 36.7044 281.078 37.0851 281.979 37.1176Z" fill="#CCCCCC"/>
</svg>
