<svg xmlns="http://www.w3.org/2000/svg" width="40" height="39.989" viewBox="0 0 40 39.989">
  <g id="组_3436" data-name="组 3436" transform="translate(-81 -34)">
    <path id="路径_74" data-name="路径 74" d="M50.914,1673.157a20,20,0,0,1,.654,39.989l10.642-18.432c.5-.859-.234-2.208-1.63-3.014s-2.93-.763-3.425.1l-11.869,20.558a20,20,0,0,1,5.629-39.2ZM62.3,1696.185m-10.921-19.112c-1.4-.806-2.93-.763-3.425.1l-2.021,3.5,5.055,2.919,2.021-3.5c.5-.859-.234-2.208-1.63-3.014Zm-13.627,17.765c-.5.859.234,2.208,1.63,3.014s2.93.763,3.425-.1l.762-1.32a1.838,1.838,0,0,1,2.459-.659l4.688,2.707,2.91-5.041-4.688-2.707a1.806,1.806,0,0,1-.659-2.459l1.593-2.759-5.055-2.919-7.066,12.238Z" transform="translate(50.086 -1639.157)" fill="#003686"/>
  </g>
</svg>
