<svg xmlns="http://www.w3.org/2000/svg" width="40" height="40" viewBox="0 0 40 40">
    <g fill="none" fill-rule="evenodd" opacity=".5">
        <path fill="#67717D" d="M39.6 40H34c-11.046 0-20-8.954-20-20S22.954 0 34 0h5.6v40z"/>
        <path fill="#FFF" d="M28.853 26.408a1.329 1.329 0 0 0 1.883-.002c.52-.52.514-1.371.002-1.883l-4.725-4.726 4.726-4.726a1.326 1.326 0 0 0-.005-1.883 1.33 1.33 0 0 0-.943-.388c-.342 0-.682.13-.94.387l-5.662 5.662a1.321 1.321 0 0 0-.364 1.195c.046.258.168.504.365.701l5.663 5.663z"/>
    </g>
</svg>
