<?xml version="1.0" encoding="UTF-8"?>
<svg width="80px" height="80px" viewBox="0 0 80 80" version="1.1" xmlns="http://www.w3.org/2000/svg" xmlns:xlink="http://www.w3.org/1999/xlink">
    <!-- Generator: Sketch 52 (66869) - http://www.bohemiancoding.com/sketch -->
    <title>空</title>
    <desc>Created with Sketch.</desc>
    <g id="规范" stroke="none" stroke-width="1" fill="none" fill-rule="evenodd">
        <g id="图标" transform="translate(-922.000000, -1322.000000)">
            <g id="分组-154" transform="translate(922.000000, 1322.000000)">
                <g id="空">
                    <g>
                        <rect id="矩形" stroke="#979797" fill="#D8D8D8" fill-rule="nonzero" opacity="0" x="0.5" y="0.5" width="79" height="79" rx="2"></rect>
                        <path d="M39.3928211,62.6591346 C31.0681479,62.6591346 22.7434746,62.6616056 14.4192129,62.6574873 C12.569194,62.6562518 12.4436923,62.5462943 12.4420464,60.9084619 C12.4358742,55.3471624 12.4214723,49.7854511 12.4630319,44.2241517 C12.4692041,43.4808056 12.6630117,42.6933941 12.9753258,42.0035854 C15.4351596,36.5740703 17.9678255,31.1721475 20.4206641,25.7397496 C20.8798769,24.7213037 21.4859885,24.2880626 22.736068,24.2925927 C33.6378471,24.3308925 44.5379803,24.3292452 55.4401708,24.2930045 C56.6598007,24.2888863 57.3189933,24.6620007 57.8123591,25.6837412 C60.4277327,31.1025489 63.136101,36.4834685 65.7469483,41.9030998 C66.1308602,42.7012188 66.3287825,43.6372995 66.3378351,44.5107826 C66.3905047,49.8908786 66.3658158,55.2713864 66.363347,60.6523061 C66.3629355,62.6064209 66.3098544,62.6566637 64.2195307,62.6570755 C55.9438237,62.6599583 47.6677052,62.6591346 39.3928211,62.6591346 M39.4430218,61.7794741 C47.4693713,61.7811214 55.4948978,61.746528 63.5216588,61.810361 C65.0507224,61.8227158 65.4523279,61.3734136 65.4317538,60.0308605 C65.3543954,55.1947868 65.3622135,50.3562421 65.427639,45.5201683 C65.4436868,44.2743944 65.0017561,43.8806887 63.6471605,43.9033391 C59.7352101,43.9704668 55.8183219,43.988999 51.9071945,43.8938671 C50.4637189,43.8588619 49.9337313,44.2916911 49.7037134,45.5671165 C48.942885,49.7656835 45.5148363,52.7827214 40.9013107,53.4770602 C35.2882976,54.3225391 29.7991403,50.8772021 28.8453272,45.755321 C28.5708693,44.2818073 27.9725759,43.8456835 26.3686227,43.8913962 C22.5574852,44.0013537 18.7397639,43.9601711 14.925746,43.9111638 C13.7559054,43.8959263 13.3773428,44.2715117 13.3863954,45.3249628 C13.4291894,50.3430637 13.4378305,55.3611645 13.3818691,60.3788536 C13.3682902,61.5669718 13.9167945,61.8013009 15.06853,61.7971826 C23.1932234,61.7646483 31.3175054,61.7794741 39.4430218,61.7794741 M58.0032863,43.0479763 C57.2235297,40.9583708 56.6252363,39.2035798 55.8837474,37.4998553 C55.7454898,37.1843965 55.0352735,36.8994129 54.5888165,36.8973537 C44.3363545,36.8639958 34.0838925,36.866055 23.831842,36.8932355 C23.4100739,36.8940591 22.7208432,37.1176807 22.6126237,37.3886623 C21.9073451,39.1529252 21.3279798,40.9591944 20.6045961,43.0475645 C23.1191568,43.0475645 25.2823127,43.098631 27.4405309,43.0290323 C28.8325713,42.9845551 29.4609029,43.3008376 29.5283858,44.7446998 C29.739887,49.2735513 34.139031,52.8255513 39.3092905,52.8189621 C44.3754452,52.811961 48.7540152,49.2480181 48.9803297,44.7792932 C49.051516,43.3832028 49.5901447,42.9738477 51.0299169,43.0265614 C53.1930728,43.1068675 55.3632239,43.0479763 58.0032863,43.0479763 M39.3043527,35.9855708 C44.2626994,35.9872181 49.2214576,35.9563311 54.1789814,36.0082212 C55.4488119,36.0222233 55.9434122,35.6993517 55.90391,34.4795228 C55.8183219,31.812537 55.8504175,29.1418449 55.8890967,26.4723882 C55.9022641,25.5593697 55.5710218,25.1825489 54.5221566,25.1850198 C44.3577515,25.2072584 34.193758,25.2051993 24.0289414,25.1854317 C23.0315114,25.1833725 22.5998677,25.4716508 22.615504,26.4307937 C22.6595325,29.1904403 22.6677621,31.9504988 22.6118007,34.7093217 C22.5895807,35.762361 23.092822,36.0065739 24.1322232,35.9999847 C29.1893254,35.9690977 34.247662,35.9855708 39.3043527,35.9855708 M13.3773428,43.0261496 C15.568068,43.0261496 17.2925851,43.1035729 18.9981741,42.970553 C19.4191192,42.937607 19.9511642,42.2803325 20.1355077,41.8129099 C21.2131766,39.0837384 21.9270962,36.302265 21.692552,33.3445301 C21.5361892,31.3685885 21.6678631,29.373703 21.6583991,27.3870539 C21.6575761,26.9599903 21.6036721,26.5329266 21.5744569,26.105863 C21.4472735,26.0831374 21.3201257,26.0602124 21.193014,26.037088 C18.6336018,31.6004466 16.0737782,37.1638052 13.3773428,43.0261496 M65.429285,43.0450936 C62.638209,37.3767193 60.0059646,32.032864 57.3737203,26.6890087 C57.2408119,26.7157774 57.1066691,26.7417224 56.9733493,26.7680793 C56.9297323,27.1403701 56.8527853,27.5118372 56.849082,27.884128 C56.8359146,29.6450963 56.9585359,31.4134776 56.8173979,33.1645621 C56.5754471,36.1643033 57.3264,38.9750163 58.3686815,41.7704918 C58.7011582,42.662919 59.1513185,43.1200459 60.2606714,43.0644494 C61.8255339,42.9874379 63.3982145,43.0450936 65.429285,43.0450936 M35.713769,68.3476883 C33.933702,71.3709037 31.6816661,73.9476995 28.306287,75.5579395 C27.8051031,75.7967986 27.1829437,75.9841795 26.6352625,75.9504097 C25.5567706,75.8836939 24.4766328,75.6979603 23.4244758,75.4611603 C22.5142797,75.256071 21.8653741,75.3334943 21.2399228,76.0826059 C20.8646521,76.5314963 20.1042351,77.0265113 19.5569653,76.9915061 C16.7642434,76.8074198 14.0994921,76.1052563 11.5750558,74.9261983 C14.4842269,74.8953113 16.989735,73.9703499 18.9924133,72.153785 C20.2782916,70.9874936 21.3744772,69.6227019 22.3945387,68.2476146 C22.9681433,67.4737934 23.3397107,67.4169614 24.2803564,67.77072 C25.6703394,68.2925037 27.1936423,68.7521016 28.6737396,68.7883423 C30.968158,68.8431151 33.2736863,68.5202435 35.713769,68.3476883 M15.1989695,75.5410546 C16.5980051,75.7803256 17.7452142,76.0937252 18.9027104,76.127495 C19.5273387,76.1460271 20.3482434,75.831392 20.7634278,75.4084466 C21.5337203,74.621447 22.2912569,74.3731158 23.3746866,74.7091659 C28.5239605,76.3021092 31.7985268,72.6916299 33.8180758,69.3789009 C33.0914002,69.4303791 32.4684179,69.4221426 31.868067,69.5242755 C29.2572197,69.9661649 26.7702282,69.6103471 24.3128634,68.7455123 C23.9371812,68.613728 23.1162765,68.8324077 22.9023063,69.1297461 C21.0687467,71.6760668 18.8389309,73.7813217 15.7063256,74.9871485 C15.5919339,75.0303903 15.5248625,75.1786477 15.1989695,75.5410546 M6.08754443,3.07078261 C6.87594214,3.99945043 7.44625488,4.93388383 8.2819729,5.58374539 C9.14772905,6.25749287 9.33742181,6.95059617 9.31355591,7.92415304 C9.224676,11.6038191 9.92583972,15.1072237 12.4420464,18.1362045 C12.5000652,18.206215 12.449453,18.3524132 12.449453,18.4874922 C4.18938232,16.0659548 4.14494237,8.31703513 6.08754443,3.07078261 M10.1924794,16.3550567 C8.83212308,13.3639638 8.49758898,10.4404104 8.43545534,7.44066922 C8.41981906,6.68249739 7.37054237,5.94121043 6.72986636,5.10602713 C4.91605786,8.17866157 6.32085419,15.4770435 10.1924794,16.3550567 M68.546254,30.7228452 C69.7930416,30.472455 71.0081451,30.4082101 72.0331444,29.9720863 C73.0733685,29.529785 73.9267803,28.7197231 74.9402581,28.0163242 C74.0469327,31.0065934 72.1578232,32.8655763 69.5696073,33.3474129 C69.2153222,32.4372772 68.8577451,31.521376 68.546254,30.7228452 M21.8616707,14.3873517 C22.0719375,15.3024292 22.1678126,16.0519527 22.4266342,16.7524689 C22.6928625,17.4748118 23.2150319,18.1246734 23.4359972,18.8544292 C23.561499,19.2687263 23.3076152,19.7789788 23.1886971,20.4465489 C21.3658361,18.5575026 20.8193892,16.1001363 21.8616707,14.3873517" id="Shape" fill="#CCCCCC" fill-rule="nonzero"></path>
                    </g>
                </g>
            </g>
        </g>
    </g>
</svg>