<svg width="74" height="74" viewBox="0 0 74 74" fill="none" xmlns="http://www.w3.org/2000/svg">
<rect width="74" height="74" rx="4" fill="url(#paint0_linear_0_8505)"/>
<path d="M20 13.2C17.349 13.2 15.2 15.349 15.2 18V44C15.2 46.651 17.349 48.8 20 48.8H58C60.651 48.8 62.8 46.651 62.8 44V18C62.8 15.349 60.651 13.2 58 13.2H20Z" fill="white" stroke="#4F81FF" stroke-width="1.6"/>
<path d="M32 49.2H31.2V50V54V54.8H32H46H46.8V54V50V49.2H46H32Z" fill="white" stroke="#4F81FF" stroke-width="1.6"/>
<path fill-rule="evenodd" clip-rule="evenodd" d="M32 50H46V54H32V50Z" fill="#4F81FF" fill-opacity="0.3"/>
<path d="M32 49.2H31.2V50V54V54.8H32H46H46.8V54V50V49.2H46H32Z" stroke="#4F81FF" stroke-opacity="0.3" stroke-width="1.6"/>
<path fill-rule="evenodd" clip-rule="evenodd" d="M26 56H52V54H26V56Z" fill="#4F81FF"/>
<path d="M16.3898 41H61.6102" stroke="#4F81FF" stroke-width="1.6" stroke-linecap="square"/>
<path opacity="0.3" d="M16 41H62V44C62 46.2091 60.2091 48 58 48H20C17.7909 48 16 46.2091 16 44V41Z" fill="#4F81FF"/>
<path d="M64.5962 45.8501L61.9752 45.2211C61.751 44.4122 61.4305 43.6375 61.0195 42.9101L62.4274 40.6134C62.5545 40.4058 62.5226 40.1381 62.3506 39.966L60.034 37.6494C59.8626 37.4779 59.5956 37.445 59.3865 37.5728L57.0898 38.9805C56.3627 38.5697 55.588 38.2492 54.7793 38.0246L54.1503 35.4036C54.0934 35.1669 53.8816 35 53.6382 35H50.3618C50.1184 35 49.9066 35.1669 49.8497 35.4036L49.2207 38.0246C48.412 38.2492 47.6373 38.5697 46.9102 38.9805L44.6135 37.5728C44.4051 37.4451 44.1377 37.4772 43.966 37.6494L41.6494 39.966C41.4773 40.1381 41.4455 40.4058 41.5726 40.6134L42.9805 42.9101C42.5695 43.6375 42.249 44.4122 42.0248 45.2211L39.4038 45.8501C39.1669 45.9068 39 46.1187 39 46.362V49.6381C39 49.8815 39.1669 50.0934 39.4038 50.1501L42.0248 50.7791C42.249 51.5879 42.5695 52.3626 42.9805 53.09L41.5726 55.3868C41.4455 55.5943 41.4773 55.862 41.6494 56.0341L43.966 58.3507C44.1377 58.5226 44.4048 58.5557 44.6135 58.4273L46.9099 57.0197C47.6373 57.4305 48.412 57.751 49.2207 57.9755L49.8497 60.5964C49.9066 60.8331 50.1184 61 50.3618 61H53.6382C53.8816 61 54.0934 60.8331 54.1503 60.5964L54.7793 57.9755C55.588 57.751 56.3627 57.4305 57.0901 57.0197L59.3865 58.4273C59.5949 58.5549 59.8623 58.523 60.034 58.3507L62.3506 56.0341C62.5226 55.862 62.5545 55.5943 62.4274 55.3868L61.0195 53.09C61.4305 52.3626 61.751 51.5879 61.9752 50.7791L64.5962 50.1501C64.8331 50.0934 65 49.8815 65 49.6381V46.362C65 46.1187 64.8331 45.9068 64.5962 45.8501Z" fill="white" stroke="#4F81FF" stroke-width="1.6"/>
<path d="M52 54.2C55.4242 54.2 58.2 51.4242 58.2 48C58.2 44.5758 55.4242 41.8 52 41.8C48.5758 41.8 45.8 44.5758 45.8 48C45.8 51.4242 48.5758 54.2 52 54.2Z" fill="#4F81FF" stroke="white" stroke-width="2.4"/>
<circle cx="30" cy="28" r="2" fill="#4F81FF"/>
<circle cx="39" cy="28" r="2" fill="#4F81FF"/>
<circle cx="48" cy="28" r="2" fill="#4F81FF"/>
<defs>
<linearGradient id="paint0_linear_0_8505" x1="0" y1="0" x2="0" y2="74" gradientUnits="userSpaceOnUse">
<stop stop-color="#65A3FF"/>
<stop offset="1" stop-color="#3790FC"/>
</linearGradient>
</defs>
</svg>
