<svg width="40" height="40" viewBox="0 0 40 40" fill="none" xmlns="http://www.w3.org/2000/svg">
<g clip-path="url(#clip0_22811_117158)">
<path d="M22.9374 10.8026L22.9374 15.422L29.1025 9.25849C29.1939 9.15641 29.3051 9.07403 29.4294 9.0164C29.5537 8.95877 29.6884 8.92709 29.8254 8.92331C29.9623 8.91952 30.0986 8.9437 30.2259 8.99437C30.3532 9.04505 30.4688 9.12115 30.5657 9.21803C30.6625 9.3149 30.7386 9.43052 30.7893 9.5578C30.84 9.68509 30.8642 9.82138 30.8604 9.95833C30.8566 10.0953 30.8249 10.23 30.7673 10.3543C30.7097 10.4786 30.6273 10.5898 30.5252 10.6812L24.3617 16.8463L28.9794 16.8463C29.115 16.8408 29.2504 16.8628 29.3773 16.9109C29.5042 16.9591 29.6201 17.0323 29.718 17.1264C29.8159 17.2204 29.8938 17.3332 29.947 17.4581C30.0002 17.583 30.0276 17.7173 30.0276 17.853C30.0276 17.9888 30.0002 18.1231 29.947 18.248C29.8938 18.3729 29.8159 18.4857 29.718 18.5797C29.6201 18.6737 29.5042 18.747 29.3773 18.7951C29.2504 18.8433 29.115 18.8653 28.9794 18.8598L21.9315 18.8598C21.7992 18.8598 21.6681 18.8337 21.5459 18.7831C21.4237 18.7324 21.3126 18.6582 21.219 18.5647C21.1255 18.4711 21.0512 18.36 21.0006 18.2378C20.95 18.1156 20.9239 17.9845 20.9239 17.8522L20.9239 10.8026C20.9184 10.667 20.9404 10.5317 20.9885 10.4048C21.0367 10.2778 21.1099 10.162 21.204 10.0641C21.298 9.96616 21.4108 9.88827 21.5357 9.83506C21.6606 9.78186 21.7949 9.75443 21.9306 9.75443C22.0664 9.75443 22.2007 9.78186 22.3256 9.83506C22.4505 9.88827 22.5633 9.96616 22.6573 10.0641C22.7513 10.162 22.8246 10.2778 22.8727 10.4048C22.9209 10.5317 22.9429 10.667 22.9374 10.8026Z" fill="white" stroke="white"/>
<path d="M17.0629 28.9808L17.0629 24.3615L10.8978 30.525C10.8064 30.627 10.6952 30.7094 10.5709 30.767C10.4466 30.8247 10.3118 30.8564 10.1749 30.8601C10.0379 30.8639 9.90164 30.8397 9.77436 30.7891C9.64707 30.7384 9.53145 30.6623 9.43458 30.5654C9.3377 30.4685 9.2616 30.3529 9.21093 30.2256C9.16025 30.0984 9.13607 29.9621 9.13986 29.8251C9.14365 29.6882 9.17532 29.5534 9.23295 29.4291C9.29059 29.3048 9.37296 29.1936 9.47504 29.1022L15.6385 22.9371L11.0208 22.9371C10.8852 22.9426 10.7499 22.9206 10.623 22.8725C10.496 22.8244 10.3801 22.7511 10.2823 22.6571C10.1844 22.5631 10.1065 22.4502 10.0533 22.3253C10.0001 22.2005 9.97263 22.0661 9.97263 21.9304C9.97263 21.7947 10.0001 21.6603 10.0533 21.5355C10.1065 21.4106 10.1844 21.2977 10.2823 21.2037C10.3801 21.1097 10.496 21.0364 10.623 20.9883C10.7499 20.9402 10.8852 20.9182 11.0208 20.9237L18.0688 20.9237C18.2011 20.9237 18.3321 20.9497 18.4543 21.0004C18.5766 21.051 18.6877 21.1252 18.7812 21.2188C18.8748 21.3123 18.949 21.4234 18.9996 21.5457C19.0503 21.6679 19.0763 21.7989 19.0763 21.9312L19.0763 28.9808C19.0818 29.1164 19.0598 29.2518 19.0117 29.3787C18.9636 29.5056 18.8903 29.6215 18.7963 29.7194C18.7022 29.8173 18.5894 29.8952 18.4645 29.9484C18.3397 30.0016 18.2053 30.029 18.0696 30.029C17.9339 30.029 17.7995 30.0016 17.6746 29.9484C17.5498 29.8952 17.4369 29.8173 17.3429 29.7194C17.2489 29.6215 17.1756 29.5056 17.1275 29.3787C17.0794 29.2518 17.0574 29.1164 17.0629 28.9808Z" fill="white" stroke="white"/>
</g>
<defs>
<clipPath id="clip0_22811_117158">
<rect width="24" height="24" fill="white" transform="translate(8 8)"/>
</clipPath>
</defs>
</svg>
