<svg width="50" height="49" viewBox="0 0 50 49" fill="none" xmlns="http://www.w3.org/2000/svg">
<rect opacity="0.01" x="0.5" y="1.5" width="49" height="49" fill="#D8D8D8" stroke="#979797"/>
<path d="M25 46C36.0457 46 45 37.0457 45 26C45 14.9543 36.0457 6 25 6C13.9543 6 5 14.9543 5 26C5 37.0457 13.9543 46 25 46Z" fill="white"/>
<path d="M17 19.339C17 18.0441 17.8617 17.6115 18.9378 18.3824L28.1951 25.0132C29.2653 25.7797 29.2712 27.0184 28.1951 27.7892L18.9378 34.42C17.8676 35.1866 17 34.7562 17 33.4633V19.339Z" fill="#333333"/>
<path d="M33 19V33" stroke="#3790FC" stroke-linecap="round" stroke-dasharray="1 2"/>
<path d="M33 38C34.6569 38 36 36.6569 36 35C36 33.3431 34.6569 32 33 32C31.3431 32 30 33.3431 30 35C30 36.6569 31.3431 38 33 38Z" fill="#3790FC"/>
<path d="M33 21C34.6569 21 36 19.6569 36 18C36 16.3431 34.6569 15 33 15C31.3431 15 30 16.3431 30 18C30 19.6569 31.3431 21 33 21Z" fill="#3790FC"/>
</svg>
