<svg width="36" height="36" viewBox="0 0 36 36" fill="none" xmlns="http://www.w3.org/2000/svg">
<rect x="0.5" y="0.5" width="35" height="35" rx="3.5" fill="white" stroke="#333333"/>
<path fill-rule="evenodd" clip-rule="evenodd" d="M22.5693 12.1091H25.6584C26.4497 12.1091 26.4497 13.352 25.6572 13.352H9.59349C8.80217 13.352 8.80217 12.1091 9.59349 12.1091H12.6826V10.865C12.6829 10.3698 12.8784 9.89509 13.2261 9.54531C13.5737 9.19552 14.0451 8.99936 14.5363 9H20.7338C21.738 9 22.5693 9.8343 22.5693 10.865V12.1091ZM15.1546 22.0597V15.2182C15.1546 14.4205 16.3899 14.4205 16.3899 15.2182V22.0585C16.3899 22.8562 15.1546 22.8562 15.1546 22.0597ZM18.8607 22.0597V15.2182C18.8607 14.4205 20.0961 14.4205 20.0961 15.2182V22.0585C20.0973 22.8562 18.8607 22.8562 18.8607 22.0597ZM13.9192 10.865C13.9192 10.5344 14.2084 10.2429 14.5363 10.2429H20.7338C21.0617 10.2429 21.3327 10.4966 21.3327 10.865V12.1091H13.9192V10.865ZM13.3009 26.4117H21.951C22.9736 26.4124 23.8034 25.5776 23.8047 24.5468V15.2377C23.8047 14.4217 22.5693 14.4217 22.5693 15.2377V24.5455C22.5598 24.8855 22.2883 25.1587 21.951 25.1676H13.3009C12.9742 25.1676 12.6838 24.8761 12.6838 24.5455V15.2182C12.6838 14.8486 12.3934 14.5962 12.0655 14.5962C11.7376 14.5962 11.4484 14.8486 11.4484 15.2182V24.5468C11.4487 25.0417 11.6441 25.5163 11.9915 25.866C12.3389 26.2158 12.8099 26.4121 13.3009 26.4117Z" fill="#333333"/>
</svg>
