<svg width="40" height="40" viewBox="0 0 40 40" fill="none" xmlns="http://www.w3.org/2000/svg">
<path fill-rule="evenodd" clip-rule="evenodd" d="M25.0935 13.4631H28.5258C29.405 13.4631 29.405 14.8441 28.5244 14.8441H10.6759C9.79667 14.8441 9.79667 13.4631 10.6759 13.4631H14.1082V12.0807C14.1086 11.5305 14.3258 11.003 14.7121 10.6144C15.0984 10.2257 15.6221 10.0078 16.1679 10.0085H23.054C24.1699 10.0085 25.0935 10.9355 25.0935 12.0807V13.4631ZM16.8549 24.5193V16.9176C16.8549 16.0313 18.2275 16.0313 18.2275 16.9176V24.5179C18.2275 25.4043 16.8549 25.4043 16.8549 24.5193ZM20.9728 24.5193V16.9176C20.9728 16.0313 22.3455 16.0313 22.3455 16.9176V24.5179C22.3468 25.4043 20.9728 25.4043 20.9728 24.5193ZM15.4822 12.0807C15.4822 11.7134 15.8035 11.3895 16.1679 11.3895H23.054C23.4183 11.3895 23.7195 11.6714 23.7195 12.0807V13.4631H15.4822V12.0807ZM14.7952 29.3549H24.4065C25.5427 29.3556 26.4646 28.4281 26.4661 27.2827V16.9393C26.4661 16.0326 25.0935 16.0326 25.0935 16.9393V27.2813C25.0829 27.6591 24.7812 27.9626 24.4065 27.9725H14.7952C14.4322 27.9725 14.1096 27.6486 14.1096 27.2813V16.9176C14.1096 16.507 13.7869 16.2264 13.4226 16.2264C13.0582 16.2264 12.7369 16.507 12.7369 16.9176V27.2827C12.7373 27.8326 12.9543 28.3599 13.3403 28.7485C13.7263 29.1371 14.2497 29.3552 14.7952 29.3549Z" fill="white"/>
</svg>
