<svg width="36" height="22" viewBox="0 0 36 22" fill="none" xmlns="http://www.w3.org/2000/svg">
<path fill-rule="evenodd" clip-rule="evenodd" d="M35.9998 4.03224V18.0093C35.9998 18.0093 36.1027 21.749 32.1096 21.9997H9.8387C9.8387 21.9997 9.42704 22.0206 9.09771 21.6864L0.308746 11.8042C0.308746 11.8042 0 11.5117 0 10.9685C0 10.9685 0 10.5716 0.288163 10.2582L9.18004 0.292494C9.18004 0.292494 9.4682 0 9.9622 0H32.1096C32.1096 0 35.8763 0.104462 35.9998 4.03224ZM24.041 16.1081C24.041 16.1081 24.535 16.1499 24.8849 15.7947C24.8849 15.7947 25.276 15.3768 25.2966 14.8754C25.2966 14.8754 25.2966 14.2278 24.9055 13.8935L22.0444 10.9894L24.9261 8.06448C25.3583 7.60485 25.276 7.08254 25.276 7.08254C25.276 6.51844 24.9261 6.24684 24.9261 6.24684C24.5556 5.84988 24.0822 5.84988 24.0822 5.84988C23.4647 5.84988 23.1148 6.24684 23.1148 6.24684L20.2331 9.17178L17.3515 6.24684C17.3515 6.24684 16.981 5.84988 16.3841 5.84988C16.3841 5.84988 15.9107 5.87078 15.5402 6.24684C15.5402 6.24684 15.1903 6.51844 15.1903 7.08254C15.1903 7.08254 15.0874 7.60485 15.5402 8.06448L18.4424 10.9894L15.5814 13.8935C15.1903 14.2278 15.1903 14.8754 15.1903 14.8754C15.1903 15.3768 15.5814 15.7947 15.5814 15.7947C15.9313 16.1499 16.4253 16.1081 16.4253 16.1081C17.0633 16.1081 17.3515 15.7529 17.3515 15.7529L20.2331 12.828L23.1148 15.7529C23.1148 15.7529 23.4029 16.1081 24.041 16.1081Z" fill="#67717D"/>
</svg>
