<svg width="40" height="40" viewBox="0 0 40 40" fill="none" xmlns="http://www.w3.org/2000/svg">
<path d="M29.9848 21.8581C29.8513 21.8579 29.7191 21.884 29.5958 21.9349C29.4724 21.9859 29.3603 22.0606 29.2659 22.1549C29.1714 22.2492 29.0965 22.3612 29.0454 22.4845C28.9942 22.6077 28.9679 22.7399 28.9679 22.8733V27.5323L22.7495 21.3138C22.5584 21.127 22.3013 21.023 22.034 21.0245C21.7667 21.026 21.5108 21.1328 21.3218 21.3218C21.1328 21.5108 21.026 21.7667 21.0245 22.034C21.023 22.3013 21.127 22.5584 21.3138 22.7495L27.5323 28.9679H22.8733C22.6039 28.9679 22.3454 29.075 22.1549 29.2655C21.9643 29.4561 21.8573 29.7145 21.8573 29.984C21.8573 30.2534 21.9643 30.5119 22.1549 30.7024C22.3454 30.893 22.6039 31 22.8733 31H29.9848C30.5454 31 31 30.5437 31 29.9848V22.8733C31 22.6041 30.893 22.3459 30.7026 22.1555C30.5123 21.9651 30.254 21.8581 29.9848 21.8581ZM12.4148 11.0003H17.002C17.1367 11.0057 17.2711 10.9839 17.3971 10.9361C17.5232 10.8883 17.6382 10.8156 17.7355 10.7222C17.8327 10.6288 17.91 10.5168 17.9629 10.3928C18.0157 10.2688 18.0429 10.1353 18.0429 10.0006C18.0429 9.86576 18.0157 9.73236 17.9629 9.60835C17.91 9.48435 17.8327 9.37229 17.7355 9.27892C17.6382 9.18555 17.5232 9.11279 17.3971 9.065C17.2711 9.01721 17.1367 8.99538 17.002 9.00081H10.0014C9.86998 9.00081 9.73987 9.02669 9.61847 9.07698C9.49708 9.12726 9.38678 9.20096 9.29387 9.29387C9.20096 9.38678 9.12726 9.49708 9.07698 9.61847C9.02669 9.73987 9.00081 9.86998 9.00081 10.0014V17.0004C8.99538 17.1351 9.01721 17.2694 9.065 17.3955C9.11279 17.5215 9.18555 17.6366 9.27892 17.7338C9.37229 17.831 9.48435 17.9084 9.60835 17.9612C9.73236 18.0141 9.86576 18.0413 10.0006 18.0413C10.1353 18.0413 10.2688 18.0141 10.3928 17.9612C10.5168 17.9084 10.6288 17.831 10.7222 17.7338C10.8156 17.6366 10.8883 17.5215 10.9361 17.3955C10.9839 17.2694 11.0057 17.1351 11.0003 17.0004V12.4148L17.1226 18.5354C17.2133 18.6368 17.3238 18.7186 17.4472 18.7758C17.5706 18.8331 17.7044 18.8645 17.8404 18.8683C17.9764 18.872 18.1118 18.848 18.2382 18.7977C18.3646 18.7474 18.4794 18.6718 18.5756 18.5756C18.6718 18.4794 18.7474 18.3646 18.7977 18.2382C18.848 18.1118 18.872 17.9764 18.8683 17.8404C18.8645 17.7044 18.8331 17.5706 18.7758 17.4472C18.7186 17.3238 18.6368 17.2133 18.5354 17.1226L12.4148 11.0003Z" fill="white" stroke="white"/>
</svg>
