<svg width="40" height="40" viewBox="0 0 40 40" fill="none" xmlns="http://www.w3.org/2000/svg">
<rect width="40" height="40" rx="20" fill="#FFAD00"/>
<path d="M17.3343 9.2357L17.3346 9.23514C18.2233 7.77976 19.2262 7.29908 20.0023 7.3C20.7797 7.30092 21.7823 7.78555 22.668 9.23534C22.6681 9.23537 22.6681 9.23539 22.6681 9.23542L31.9881 24.4936C32.8874 25.9663 32.7946 26.9692 32.464 27.5217C32.1203 28.0958 31.216 28.7 29.3926 28.7H10.6032C8.78538 28.7 7.88164 28.0956 7.53712 27.5196C7.20522 26.9647 7.11304 25.9608 8.00799 24.493C8.00801 24.493 8.00804 24.4929 8.00807 24.4929L17.3343 9.2357Z" stroke="white" stroke-width="2.6"/>
<rect width="3" height="10" rx="1.5" transform="matrix(-1 0 0 1 21.5 11)" fill="white"/>
<circle cx="1.5" cy="1.5" r="1.5" transform="matrix(-1 0 0 1 21.5 23)" fill="white"/>
</svg>
