<svg width="20" height="20" viewBox="0 0 20 20" fill="none" xmlns="http://www.w3.org/2000/svg">
<path fill-rule="evenodd" clip-rule="evenodd" d="M15.077 3.45457H18.5093C19.3886 3.45457 19.3886 4.83558 18.508 4.83558H0.659438C-0.219813 4.83558 -0.219813 3.45457 0.659438 3.45457H4.09174V2.0722C4.0921 1.52202 4.30934 0.994546 4.69564 0.605895C5.08194 0.217243 5.60562 -0.00071576 6.15139 1.76598e-06H13.0375C14.1534 1.76598e-06 15.077 0.927003 15.077 2.0722V3.45457ZM6.83839 14.5108V6.90913C6.83839 6.02279 8.21105 6.02279 8.21105 6.90913V14.5094C8.21105 15.3958 6.83839 15.3958 6.83839 14.5108ZM10.9564 14.5108V6.90913C10.9564 6.02279 12.329 6.02279 12.329 6.90913V14.5094C12.3303 15.3958 10.9564 15.3958 10.9564 14.5108ZM5.46574 2.0722C5.46574 1.70492 5.78706 1.38102 6.15139 1.38102H13.0375C13.4019 1.38102 13.703 1.66291 13.703 2.0722V3.45457H5.46574V2.0722ZM4.77874 19.3464H14.39C15.5262 19.3471 16.4482 18.4196 16.4497 17.2742V6.93081C16.4497 6.02414 15.077 6.02414 15.077 6.93081V17.2728C15.0664 17.6506 14.7647 17.9541 14.39 17.964H4.77874C4.41575 17.964 4.09309 17.6401 4.09309 17.2728V6.90913C4.09309 6.49849 3.77043 6.21795 3.40609 6.21795C3.04175 6.21795 2.72043 6.49849 2.72043 6.90913V17.2742C2.72079 17.8241 2.93785 18.3514 3.32386 18.74C3.70986 19.1286 4.2332 19.3467 4.77874 19.3464Z" fill="#888888"/>
</svg>
