<svg xmlns="http://www.w3.org/2000/svg" width="60" height="60" viewBox="0 0 60 60">
    <g fill="none">
        <circle cx="30" cy="30" r="30" fill="#FF4066"/>
        <path fill="#FFF" d="M32.243 35.864v-9.882c0-1.152 1.785-1.152 1.785 0v9.88c.001 1.153-1.785 1.153-1.785.002zm-5.353 0v-9.882c0-1.152 1.784-1.152 1.784 0v9.88c0 1.153-1.784 1.153-1.784.002zm15.172-14.373H37.6v-1.797C37.6 18.205 36.4 17 34.95 17h-8.952c-.71 0-1.39.282-1.893.788-.502.505-.784 1.19-.785 1.906v1.797h-4.462c-1.143 0-1.143 1.795 0 1.795H42.06c1.145 0 1.145-1.795.002-1.795zm-16.957-1.797c0-.478.418-.899.892-.899h8.952c.473 0 .865.367.865.899v1.797H25.105v-1.797zM36.707 42.15H24.212c-.709 0-1.39-.283-1.891-.788-.502-.505-.784-1.19-.784-1.906V25.982c0-.534.417-.899.89-.899.475 0 .894.365.894.899v13.473c0 .477.42.898.891.898h12.495c.487-.013.88-.407.893-.898V26.01c0-1.179 1.785-1.179 1.785 0v13.446c-.002 1.49-1.2 2.695-2.678 2.694z"/>
    </g>
</svg>
