<?xml version="1.0" encoding="UTF-8"?>
<svg width="36px" height="36px" viewBox="0 0 36 36" version="1.1" xmlns="http://www.w3.org/2000/svg" xmlns:xlink="http://www.w3.org/1999/xlink">
    <!-- Generator: Sketch 52 (66869) - http://www.bohemiancoding.com/sketch -->
    <title>icon_delete_blue</title>
    <desc>Created with Sketch.</desc>
    <g id="规范" stroke="none" stroke-width="1" fill="none" fill-rule="evenodd">
        <g id="图标" transform="translate(-688.000000, -869.000000)" fill="#3790FC">
            <g id="分组-94" transform="translate(688.000000, 869.000000)">
                <g id="删除-blue-40">
                    <g id="删除-blue" transform="translate(9.000000, 9.000000)">
                        <path d="M9.87553891,13.0673368 L9.87553891,6.22583751 C9.87553891,5.42813016 11.1109266,5.42813016 11.1109266,6.22583751 L11.1109266,13.066117 C11.1121365,13.8638244 9.87553891,13.8638244 9.87553891,13.0673368 Z M6.16937593,13.0673368 L6.16937593,6.22583751 C6.16937593,5.42813016 7.40476359,5.42813016 7.40476359,6.22583751 L7.40476359,13.066117 C7.40476359,13.8638244 6.16937593,13.8638244 6.16937593,13.0673368 Z M16.673196,3.11673043 L13.5841218,3.11673043 L13.5841218,1.8725997 C13.5841218,0.841922778 12.7528669,0.00762335004 11.748585,0.00762335004 L5.55107711,0.00762335004 C5.05988113,0.00697597964 4.58856578,0.203139249 4.24089723,0.552925266 C3.89322869,0.902711284 3.69771126,1.37744215 3.69739063,1.8725997 L3.69739063,3.11673043 L0.608316499,3.11673043 C-0.18300919,3.11673043 -0.18300919,4.35964142 0.608316499,4.35964142 L16.671986,4.35964142 C17.4645217,4.35964142 17.4645217,3.11673043 16.673196,3.11673043 Z M4.93398827,1.8725997 C4.93398827,1.54205125 5.22317304,1.25053434 5.55107711,1.25053434 L11.748585,1.25053434 C12.0764891,1.25053434 12.3475242,1.50423943 12.3475242,1.8725997 L12.3475242,3.11673043 L4.93398827,3.11673043 L4.93398827,1.8725997 Z M12.965823,17.4193548 L4.31568945,17.4193548 C3.82470301,17.4196784 3.35369859,17.2233722 3.00629183,16.8736213 C2.65888508,16.5238703 2.46353376,16.0493245 2.46321295,15.5543785 L2.46321295,6.22583751 C2.46321295,5.8562575 2.75239772,5.60377215 3.08030179,5.60377215 C3.40820586,5.60377215 3.69860061,5.8562575 3.69860061,6.22583751 L3.69860061,15.5531587 C3.69860061,15.8837072 3.98899536,16.1752241 4.31568945,16.1752241 L12.965823,16.1752241 C13.3030937,16.1662901 13.5745986,15.8931312 13.5841218,15.5531587 L13.5841218,6.24535329 C13.5841218,5.4293499 14.8195095,5.4293499 14.8195095,6.24535329 L14.8195095,15.5543785 C14.8181738,16.5852474 13.9884456,17.420029 12.965823,17.4193548 Z" id="Shape" fill-rule="nonzero"></path>
                    </g>
                </g>
            </g>
        </g>
    </g>
</svg>