<svg width="36" height="36" viewBox="0 0 36 36" fill="none" xmlns="http://www.w3.org/2000/svg">
<rect opacity="0.01" x="0.5" y="0.5" width="35" height="35" rx="0.5" fill="#D8D8D8" stroke="#979797"/>
<path fill-rule="evenodd" clip-rule="evenodd" d="M28.5414 13.5569V16.3009C29.4973 16.4081 30.1689 17.3562 29.9304 18.3272L27.866 26.7142C27.6844 27.4438 27.0385 27.9553 26.2975 27.9561H8.61606C8.60371 27.9561 8.59136 27.9556 8.579 27.955C8.56665 27.9544 8.5543 27.9538 8.54194 27.9538H8.52847C8.50567 27.9538 8.48479 27.9519 8.46229 27.9498L8.45659 27.9493C8.45314 27.9474 8.44924 27.9466 8.44536 27.947C8.18412 27.9201 7.93353 27.8277 7.71605 27.6783C7.71493 27.6783 7.71437 27.6777 7.71381 27.6771C7.71325 27.6766 7.71269 27.676 7.71156 27.676C7.70227 27.6688 7.69229 27.6616 7.68232 27.6545C7.67326 27.648 7.66419 27.6414 7.65563 27.6349C7.65339 27.6338 7.65114 27.6321 7.6489 27.6304C7.64665 27.6286 7.6444 27.6269 7.64216 27.6258C7.63331 27.6181 7.62446 27.6111 7.61601 27.6044C7.60945 27.5993 7.60313 27.5943 7.59724 27.5893C7.59274 27.5859 7.58881 27.5824 7.58488 27.579C7.58095 27.5756 7.57702 27.5722 7.57253 27.5688C7.56481 27.5606 7.55656 27.553 7.54782 27.5459C7.53884 27.538 7.53042 27.53 7.52199 27.522C7.51357 27.514 7.50515 27.506 7.49616 27.498L7.49167 27.4935C7.30847 27.315 7.16986 27.0947 7.08737 26.8508V26.8485C7.07855 26.8254 7.07105 26.8018 7.06491 26.7778L7.05817 26.7507C7.05705 26.745 7.05537 26.7393 7.05368 26.7336C7.052 26.7279 7.05031 26.7222 7.04919 26.7165C7.04694 26.7073 7.0447 26.6976 7.04245 26.6879C7.04021 26.6782 7.03796 26.6686 7.03571 26.6594C7.0345 26.657 7.03394 26.6538 7.03333 26.6504C7.03281 26.6475 7.03225 26.6443 7.03122 26.6412C7.02897 26.6298 7.02729 26.6184 7.02561 26.607C7.02392 26.5956 7.02224 26.5841 7.01999 26.5727C7.0182 26.5701 7.01741 26.5668 7.01774 26.5636C7.00627 26.4851 7.00034 26.4059 7 26.3266V10.6398C6.99994 10.2047 7.17017 9.78739 7.47321 9.47982C7.77624 9.17225 8.18721 8.99964 8.61562 9H15.8718C16.5749 8.9986 17.1978 9.46019 17.4111 10.1407L17.9726 11.916H26.9258C27.3543 11.9157 27.7654 12.0885 28.0684 12.3963C28.3715 12.7041 28.5416 13.1216 28.5414 13.5569ZM8.61562 10.6398H15.8678L16.7923 13.5569H26.9258V16.2918H10.68C9.93894 16.2927 9.29297 16.8042 9.11133 17.5339L8.61562 19.5577V10.6398ZM26.2975 26.3197H8.61562L10.68 17.9327H28.3619L26.2975 26.3197Z" fill="white"/>
</svg>
