<?xml version="1.0" encoding="UTF-8"?>
<svg width="30px" height="30px" viewBox="0 0 30 30" version="1.1" xmlns="http://www.w3.org/2000/svg" xmlns:xlink="http://www.w3.org/1999/xlink">
    <!-- Generator: Sketch 52 (66869) - http://www.bohemiancoding.com/sketch -->
    <title>icon_down</title>
    <desc>Created with Sketch.</desc>
    <g id="规范" stroke="none" stroke-width="1" fill="none" fill-rule="evenodd">
        <g id="图标" transform="translate(-198.000000, -513.000000)" fill="#3790FC">
            <g id="分组-33" transform="translate(198.000000, 513.000000)">
                <g id="向下箭头">
                    <g id="箭头" transform="translate(14.800000, 14.800000) scale(1, -1) translate(-14.800000, -14.800000) translate(10.000000, 8.000000)">
                        <path d="M4.19168317,13.2238786 L0.237623762,9.55440135 C-0.0665346535,9.26084317 -0.0665346535,8.8205059 0.237623762,8.52694772 C0.541782178,8.23338954 0.998019802,8.23338954 1.30217822,8.52694772 L4.03960396,11.0221922 L4.03960396,0.747655987 C4.03960396,0.307318718 4.34376238,0.0137605396 4.8,0.0137605396 C5.25623762,0.0137605396 5.56039604,0.307318718 5.56039604,0.747655987 L5.56039604,11.0221922 L8.29782178,8.38016863 C8.6019802,8.23338954 9.05821782,8.23338954 9.36237624,8.52694772 C9.66653465,8.8205059 9.66653465,9.26084317 9.36237624,9.55440135 L5.56039604,13.2238786 C5.40831683,13.3706577 4.8,13.957774 4.19168317,13.2238786 Z" id="Shape" fill-rule="nonzero" transform="translate(4.800000, 6.799474) rotate(-180.000000) translate(-4.800000, -6.799474) "></path>
                    </g>
                </g>
            </g>
        </g>
    </g>
</svg>