<?xml version="1.0" encoding="UTF-8"?>
<svg width="20px" height="20px" viewBox="0 0 20 20" version="1.1" xmlns="http://www.w3.org/2000/svg" xmlns:xlink="http://www.w3.org/1999/xlink">
    <!-- Generator: Sketch 52 (66869) - http://www.bohemiancoding.com/sketch -->
    <title>icon_search_grey</title>
    <desc>Created with Sketch.</desc>
    <g id="规范" stroke="none" stroke-width="1" fill="none" fill-rule="evenodd">
        <g id="图标" transform="translate(-36.000000, -183.000000)" fill="#D6D6D6">
            <g id="icon_search_grey" transform="translate(36.000000, 183.000000)">
                <g id="search_n">
                    <g id="搜索" transform="translate(1.000000, 1.000000)">
                        <path d="M1.63595788,8.2500837 C1.63595788,4.60528959 4.56136138,1.65171298 8.17138911,1.65171298 C11.7814168,1.65171298 14.7068203,4.60528959 14.7068203,8.2500837 C14.7068203,11.8948778 11.7814168,14.8484544 8.17138911,14.8484544 C4.56136138,14.8463341 1.63595788,11.8906372 1.63595788,8.2500837 M17.7624284,17.5900011 L14.1061991,13.9006807 C15.5405498,12.3740654 16.3385781,10.3513001 16.3385781,8.2479634 C16.3385781,3.69356099 12.6823487,0 8.16928903,0 C3.65622936,0 0,3.69144069 0,8.2479634 C0,12.8023658 3.65622936,16.4959268 8.16928903,16.4959268 C9.85354862,16.4980471 11.4958067,15.9700926 12.8692553,14.9862739 L16.6052875,18.7582859 C16.9244988,19.0805714 17.4411171,19.0805714 17.7603284,18.7582859 C18.0795397,18.4338801 18.0795397,17.9122866 17.7624284,17.5900011" id="Shape" fill-rule="nonzero"></path>
                    </g>
                </g>
            </g>
        </g>
    </g>
</svg>