<svg xmlns="http://www.w3.org/2000/svg" width="40" height="40" viewBox="0 0 40 40">
    <g fill="none" fill-rule="evenodd" transform="translate(11 11)">
        <circle cx="9" cy="9" r="9" stroke="#979797" stroke-width="1.28"/>
        <path fill="#979797" fill-rule="nonzero" d="M12.955 6.214c0 .772-.181 1.372-.544 1.886-.182.171-.545.6-1.27 1.2-.273.171-.454.429-.636.686-.181.257-.181.6-.272.857v.343c-.091.343-.454.6-.908.6s-.817-.257-.907-.6v-.257c0-.6.09-1.115.272-1.458.181-.428.726-1.114 1.724-1.971l.182-.171c.272-.343.454-.686.454-1.029 0-.429-.182-.857-.454-1.114-.272-.257-.635-.429-1.18-.429-.635 0-1.18.172-1.452.6-.272.257-.363.6-.363 1.2v.086c0 .514-.454.943-.908.943s-.907-.429-.907-.943c0-1.2.272-1.8.998-2.4.635-.686 1.543-1.029 2.723-1.029 1.089 0 1.906.257 2.54.772.636.514.908 1.285.908 2.228zm-2.994 7.543c.181.172.272.343.272.6 0 .257-.091.429-.272.6a.847.847 0 0 1-.636.257.847.847 0 0 1-.635-.257c-.182-.171-.272-.343-.272-.6 0-.257.09-.428.272-.6a.847.847 0 0 1 .635-.257c.272 0 .454.086.636.257z"/>
    </g>
</svg>
