<svg width="36" height="36" viewBox="0 0 36 36" fill="none" xmlns="http://www.w3.org/2000/svg">
<path d="M17.9981 21.5556C18.9408 21.5542 19.8445 21.1792 20.5113 20.5127C21.1781 19.8463 21.5535 18.9427 21.5554 18C21.5554 16.0409 19.9607 14.4445 18.0016 14.4445C17.0589 14.4459 16.1552 14.8209 15.4884 15.4873C14.8216 16.1538 14.4462 17.0573 14.4443 18C14.4443 19.9591 16.0389 21.5556 17.9981 21.5556ZM17.9981 23.3334C16.5842 23.3319 15.2286 22.7695 14.229 21.7696C13.2294 20.7696 12.6674 19.4139 12.6665 18C12.6665 15.0596 15.0594 12.6667 18.0016 12.6667C19.4155 12.6681 20.7711 13.2305 21.7707 14.2305C22.7703 15.2304 23.3322 16.5861 23.3332 18C23.3332 20.9405 20.9403 23.3334 17.9981 23.3334Z" fill="white"/>
<path d="M24.4819 25.8204C24.2295 24.5387 24.2419 23.0222 24.8552 21.9644C25.4775 20.88 26.8072 20.112 28.0784 19.6836C28.1372 19.2863 28.1835 18.8873 28.217 18.4871C28.2312 18.3022 28.2383 18.1369 28.2383 17.9982C28.2383 17.8578 28.2312 17.6924 28.217 17.504C28.1876 17.1052 28.1413 16.7078 28.0784 16.3129C26.7912 15.872 25.481 15.1164 24.857 14.0356C24.2455 12.9778 24.2348 11.4809 24.4819 10.1867L21.5308 8.46933C20.5352 9.33333 19.2286 10.0764 17.9984 10.0764C16.7788 10.0764 15.4864 9.34577 14.4784 8.47644L11.5166 10.1778C11.769 11.4596 11.7566 12.976 11.1432 14.0338C10.521 15.1182 9.19124 15.8862 7.92013 16.3147C7.86123 16.7119 7.81499 17.1109 7.78146 17.5111C7.76855 17.6738 7.76144 17.8368 7.76013 18C7.76013 18.1404 7.76724 18.3058 7.78146 18.4942C7.81093 18.893 7.85719 19.2904 7.92013 19.6853C9.20724 20.1262 10.5175 20.8818 11.1415 21.9627C11.753 23.0204 11.7637 24.5173 11.5166 25.8116L14.4677 27.5289C15.4632 26.6649 16.7699 25.9218 18.0001 25.9218C19.2232 25.9218 20.521 26.6578 21.5219 27.5218L24.4801 25.8187L24.4819 25.8204ZM21.497 29.3867C21.1444 29.3883 20.8035 29.2605 20.5388 29.0276C20.1655 28.6844 18.9015 27.7013 18.0019 27.7013C17.0952 27.7013 15.833 28.6844 15.465 29.0276C15.2643 29.2058 15.0175 29.324 14.7528 29.3686C14.4881 29.4132 14.2162 29.3825 13.9681 29.28L13.8952 29.2444L10.2508 27.1324C10.0403 26.9671 9.87965 26.7467 9.78676 26.4957C9.69388 26.2446 9.67235 25.9728 9.72457 25.7102C9.8348 25.2196 10.0535 23.632 9.60369 22.8533C9.15569 22.0747 7.66946 21.472 7.18591 21.3173C6.9385 21.2328 6.71755 21.0849 6.54507 20.8884C6.37258 20.6919 6.25458 20.4536 6.2028 20.1973C6.19391 20.144 5.98413 18.9084 5.98413 18.0018C5.98413 17.0951 6.19391 15.8631 6.2028 15.808C6.25474 15.5515 6.37301 15.3131 6.54582 15.1166C6.71863 14.9201 6.93994 14.7723 7.18769 14.688C7.66946 14.5369 9.15569 13.9342 9.60546 13.1502C10.057 12.368 9.84013 10.7858 9.72457 10.2933C9.67089 10.0308 9.69172 9.75845 9.78472 9.50712C9.87771 9.25579 10.0392 9.03549 10.2508 8.87111L10.3184 8.82489L13.9628 6.72C14.2111 6.61709 14.4834 6.5862 14.7484 6.63084C15.0135 6.67549 15.2606 6.79387 15.4615 6.97244C15.8348 7.31555 17.0988 8.29866 17.9984 8.29866C18.905 8.29866 20.1672 7.31555 20.5352 6.97244C20.736 6.79421 20.9828 6.67603 21.2475 6.63139C21.5121 6.58675 21.7841 6.61746 22.0321 6.72L22.105 6.75555L25.7495 8.86755C25.96 9.03287 26.1206 9.25328 26.2135 9.50432C26.3064 9.75537 26.3279 10.0272 26.2757 10.2898C26.1655 10.7804 25.9468 12.368 26.3966 13.1467C26.8446 13.9253 28.3308 14.528 28.8144 14.6827C29.0618 14.7672 29.2827 14.9151 29.4552 15.1116C29.6277 15.3081 29.7457 15.5464 29.7975 15.8027C29.8063 15.856 30.0161 17.0916 30.0161 17.9982C30.0161 18.9049 29.8063 20.1369 29.7975 20.192C29.7455 20.4485 29.6273 20.6869 29.4544 20.8834C29.2816 21.0799 29.0603 21.2277 28.8126 21.312C28.3308 21.4631 26.8446 22.0658 26.3948 22.8498C25.9432 23.632 26.1601 25.2142 26.2757 25.7067C26.3289 25.9692 26.3079 26.2414 26.215 26.4927C26.122 26.7439 25.9608 26.9642 25.7495 27.1289L25.6819 27.1751L22.0375 29.28C21.8657 29.3496 21.6823 29.3858 21.497 29.3867Z" fill="white"/>
</svg>
