<?xml version="1.0" encoding="UTF-8"?>
<svg width="30px" height="30px" viewBox="0 0 30 30" version="1.1" xmlns="http://www.w3.org/2000/svg" xmlns:xlink="http://www.w3.org/1999/xlink">
    <!-- Generator: sketchtool 52 (66869) - http://www.bohemiancoding.com/sketch -->
    <title>C12793BF-5A4C-4804-BA4F-903047708CEA</title>
    <desc>Created with sketchtool.</desc>
    <g id="键盘" stroke="none" stroke-width="1" fill="none" fill-rule="evenodd">
        <g id="FX键盘" transform="translate(-40.000000, -239.000000)" fill-rule="nonzero">
            <g id="icon_board_input" transform="translate(40.000000, 239.000000)">
                <rect id="矩形" stroke="#979797" fill="#D8D8D8" opacity="0" x="0.5" y="0.5" width="29" height="29" rx="1"></rect>
                <path d="M24.1243757,19.0138019 L24.1243757,22.732031 C24.1243757,23.041935 24.016966,23.3053624 23.8025544,23.5221586 C23.5879898,23.7391094 23.3274035,23.8474946 23.0210502,23.8474946 L6.10332546,23.8474946 C5.79679379,23.8474946 5.53620748,23.7391094 5.32179583,23.5221586 C5.10720583,23.3053624 5,23.041935 5,22.732031 L5,19.0138019 C5,18.7040783 5.10720581,18.4406509 5.32179583,18.2236744 C5.53620745,18.0069039 5.79679379,17.8983383 6.10332546,17.8983383 L11.4475621,17.8983383 L12.9991286,19.4785934 C13.4434199,19.912495 13.9645416,20.1292655 14.5621624,20.1292655 C15.1598087,20.1292655 15.680752,19.912495 16.1252216,19.4785934 L17.6882809,17.8983383 L23.0210503,17.8983383 C23.3273781,17.8983383 23.5879899,18.0069039 23.8025544,18.2236744 C24.016966,18.4406509 24.1243757,18.7040783 24.1243757,19.0138019 Z M20.3891691,12.4023287 C20.5193604,12.7200646 20.4656683,12.9911179 20.2282712,13.2156945 L15.0794107,18.4211998 C14.9414472,18.5684615 14.7690821,18.6419636 14.5621878,18.6419636 C14.3553446,18.6419636 14.1829285,18.5684358 14.045016,18.4211998 L8.89612993,13.2156687 C8.6585545,12.9910921 8.60486241,12.7200388 8.73523203,12.4023029 C8.86542325,12.1002052 9.09150598,11.9491563 9.41330181,11.9491563 L12.3555115,11.9491563 L12.3555115,6.74365099 C12.3555115,6.54231261 12.4282392,6.36799968 12.5738729,6.22076374 C12.7193283,6.07370814 12.8917444,6 13.0910703,6 L16.0332799,6 C16.2324019,6 16.404818,6.07370814 16.5504518,6.22076374 C16.6959326,6.36799968 16.7687878,6.54228683 16.7687878,6.74365099 L16.7687878,11.9491563 L19.7110484,11.9491563 C20.0328697,11.9491563 20.258774,12.1002309 20.3891691,12.4023287 Z M19.492687,22.1394289 C19.6381678,21.9923733 19.7110739,21.8180604 19.7110739,21.6165417 C19.7110739,21.4152291 19.6381678,21.2409162 19.492687,21.0936802 C19.3470532,20.9466246 19.1746626,20.8729165 18.9755151,20.8729165 C18.7761893,20.8729165 18.6037731,20.9466246 18.4582923,21.0936802 C18.3126585,21.2409162 18.2399563,21.4152033 18.2399563,21.6165417 C18.2399563,21.8180604 18.312684,21.9923733 18.4582923,22.1394289 C18.6037731,22.2866649 18.7761893,22.3601927 18.9755151,22.3601927 C19.1746626,22.3602184 19.3470787,22.2866649 19.492687,22.1394289 Z M22.4348966,22.1394289 C22.5803775,21.9923733 22.6532836,21.8180604 22.6532836,21.6165417 C22.6532836,21.4152291 22.5803775,21.2409162 22.4348966,21.0936802 C22.2892629,20.9466246 22.1168723,20.8729165 21.9177248,20.8729165 C21.7183989,20.8729165 21.5459828,20.9466246 21.4005529,21.0936802 C21.2548682,21.2409162 21.182166,21.4152033 21.182166,21.6165417 C21.182166,21.8180604 21.2548937,21.9923733 21.4005529,22.1394289 C21.5459828,22.2866649 21.7183989,22.3601927 21.9177248,22.3601927 C22.1168723,22.3602184 22.2892884,22.2866649 22.4348966,22.1394289 Z" id="Shape" stroke="#FFFFFF" stroke-width="1.6"></path>
            </g>
        </g>
    </g>
</svg>