<svg xmlns="http://www.w3.org/2000/svg" width="40" height="40" viewBox="0 0 40 40">
    <g fill="none" fill-rule="evenodd" opacity=".5">
        <path fill="#67717D" d="M0 40h5.6c11.046 0 20-8.954 20-20S16.646 0 5.6 0H0v40z"/>
        <path fill="#FFF" d="M10.747 26.408a1.329 1.329 0 0 1-1.883-.002 1.339 1.339 0 0 1-.002-1.883l4.725-4.726-4.726-4.726a1.326 1.326 0 0 1 .005-1.883 1.33 1.33 0 0 1 .943-.388c.342 0 .682.13.94.387l5.662 5.662c.325.323.446.774.364 1.195a1.318 1.318 0 0 1-.365.701l-5.663 5.663z"/>
    </g>
</svg>
