<svg width="38" height="38" viewBox="0 0 38 38" fill="none" xmlns="http://www.w3.org/2000/svg">
<g clip-path="url(#clip0_22854_200)">
<path d="M4 19C4 10.7158 10.7158 4 19 4C27.2842 4 34 10.7158 34 19C34 27.2842 27.2842 34 19 34C10.7158 34 4 27.2842 4 19ZM19 6.09302C15.5769 6.09302 12.2939 7.45286 9.87339 9.87339C7.45286 12.2939 6.09302 15.5769 6.09302 19C6.09302 22.4231 7.45286 25.7061 9.87339 28.1266C12.2939 30.5471 15.5769 31.907 19 31.907C22.4231 31.907 25.7061 30.5471 28.1266 28.1266C30.5471 25.7061 31.907 22.4231 31.907 19C31.907 15.5769 30.5471 12.2939 28.1266 9.87339C25.7061 7.45286 22.4231 6.09302 19 6.09302Z" fill="#666666"/>
<path d="M23.1264 6.69901C23.2525 6.53056 23.3225 6.32672 23.3263 6.11633C23.3302 5.90594 23.2678 5.69966 23.148 5.52668C23.0282 5.3537 22.857 5.22277 22.6587 5.15243C22.4604 5.08209 22.245 5.0759 22.0429 5.13473C21.4898 5.29276 21.2822 5.76419 21.2126 5.98919C21.144 6.23266 21.1119 6.48497 21.1175 6.73785C21.1175 7.21732 21.1979 7.84946 21.3318 8.60214C21.4644 9.33607 21.7537 9.87312 22.1474 10.2789C22.4621 10.6044 22.8304 10.8213 23.0554 10.9539L23.1398 11.0035C23.3929 11.1562 23.4184 11.203 23.4278 11.2178C23.4291 11.2218 23.5041 11.3463 23.4318 11.8044C23.4155 11.9425 23.3775 12.0772 23.3193 12.2035C23.3065 12.2336 23.2868 12.2602 23.2617 12.2812C23.2269 12.3079 23.1251 12.3588 22.7621 12.3923C22.6858 12.4004 22.5947 12.4057 22.4943 12.4111C21.8179 12.4526 20.6648 12.5222 19.6992 13.362C19.0081 13.9633 18.8153 14.7575 18.7845 15.4432C18.759 15.9896 18.8354 16.5883 18.8983 17.0865L18.9318 17.3517C19.0041 17.957 19.0282 18.4004 18.9546 18.7445C18.9321 18.882 18.8771 19.012 18.7942 19.1238C18.7112 19.2356 18.6027 19.326 18.4778 19.3874C18.1925 19.5468 17.8965 19.5669 17.5001 19.449C17.0648 19.3204 16.5921 19.0499 16.0349 18.695C15.945 18.6373 15.8552 18.5792 15.7657 18.5209C15.3157 18.2303 14.8014 17.8968 14.3179 17.6771C13.726 17.4133 12.8863 17.1816 12.0599 17.6316C11.3635 18.012 10.9925 18.6267 10.7876 19.2173C10.5921 19.7865 10.5197 20.4146 10.4715 20.937L10.4434 21.2584C10.4186 21.6235 10.3739 21.987 10.3095 22.3472C10.2291 22.7437 10.13 22.887 10.0764 22.9365C9.76438 23.2204 9.02375 23.428 7.32018 22.745C7.19768 22.6959 7.06672 22.6715 6.93477 22.673C6.80281 22.6746 6.67246 22.7021 6.55114 22.754C6.42982 22.8059 6.31992 22.8812 6.22771 22.9756C6.13549 23.07 6.06278 23.1816 6.01371 23.3041C5.96464 23.4266 5.94018 23.5576 5.94172 23.6896C5.94326 23.8215 5.97078 23.9519 6.0227 24.0732C6.07463 24.1945 6.14993 24.3044 6.24433 24.3966C6.33873 24.4888 6.45036 24.5616 6.57286 24.6106C8.39429 25.3405 10.1916 25.5481 11.4304 24.4204C11.9581 23.9383 12.1684 23.2821 12.2782 22.749C12.3679 22.3084 12.4121 21.8155 12.4483 21.387L12.4724 21.1245C12.522 20.5995 12.5782 20.1896 12.6867 19.8736C12.7898 19.5789 12.905 19.4584 13.0215 19.3954C13.0282 19.3914 13.0443 19.3821 13.1019 19.3874C13.1769 19.3941 13.3028 19.4249 13.4929 19.5106C13.8251 19.6593 14.176 19.8856 14.6193 20.1736C14.7264 20.2405 14.8376 20.3129 14.9541 20.3879C15.5113 20.7428 16.1956 21.1579 16.9296 21.3762C17.6996 21.6039 18.5822 21.6307 19.4568 21.1419C19.8312 20.9411 20.1565 20.6597 20.4091 20.3182C20.6618 19.9766 20.8356 19.5832 20.9179 19.1664C21.0706 18.4566 20.997 17.7066 20.926 17.1133L20.8858 16.7852C20.8242 16.2856 20.7746 15.8932 20.7921 15.5343C20.8095 15.1379 20.9032 14.9771 21.0171 14.878C21.4349 14.5164 21.8474 14.4829 22.5278 14.428C22.659 14.4187 22.7996 14.4066 22.9523 14.3932C23.3595 14.353 23.9501 14.2727 24.4604 13.8937C25.0121 13.4825 25.3001 12.8624 25.4166 12.1151C25.5278 11.4079 25.4822 10.7798 25.1836 10.2441C24.8956 9.72312 24.447 9.44589 24.1791 9.28383L24.0666 9.21687C23.8269 9.07357 23.705 8.99991 23.5898 8.88205C23.4961 8.78294 23.3755 8.61821 23.3086 8.24723C23.18 7.52401 23.1264 7.03383 23.1264 6.73785V6.69901ZM26.8818 23.0879C25.9738 22.6861 25.3697 22.7303 24.9331 22.9593C24.4349 23.2204 24.1912 23.4548 24.0653 23.6262C23.9557 23.7751 23.889 23.9511 23.8724 24.1352C23.8548 24.332 23.853 24.53 23.8671 24.7271L23.8751 24.924C23.8845 25.228 23.8938 25.6874 23.7238 26.1454C23.4693 26.8338 23.0246 27.2329 22.7447 27.4847C22.7046 27.5196 22.6684 27.5517 22.6376 27.5825C22.3979 27.8062 22.1621 28.0553 21.9626 28.6821C21.7791 29.2606 21.9291 30.0789 23.0796 31.2575C23.1737 31.3514 23.2482 31.4631 23.2988 31.5861C23.3495 31.7091 23.3752 31.8409 23.3744 31.9739C23.3737 32.1069 23.3466 32.2384 23.2947 32.3608C23.2427 32.4832 23.167 32.5941 23.0718 32.687C22.9767 32.78 22.8641 32.8531 22.7404 32.9021C22.6168 32.9512 22.4847 32.9752 22.3517 32.9728C22.2188 32.9703 22.0876 32.9415 21.9659 32.888C21.8441 32.8345 21.7342 32.7574 21.6425 32.6611C20.2845 31.2696 19.5304 29.7012 20.0488 28.0727C20.3769 27.0441 20.8389 26.5151 21.2621 26.1173L21.4202 25.97C21.6894 25.7209 21.7644 25.6512 21.8394 25.4477C21.8595 25.3941 21.8769 25.2883 21.8662 24.9923L21.8621 24.8637C21.8418 24.5424 21.8472 24.2199 21.8782 23.8995C21.9318 23.4387 22.0818 22.9352 22.4434 22.441C22.797 21.9588 23.3086 21.5423 23.9996 21.1807C25.1474 20.578 26.4238 20.6892 27.6947 21.2504C28.9443 21.8021 30.2849 22.828 31.7086 24.245C31.8048 24.3373 31.8816 24.4479 31.9346 24.5703C31.9876 24.6927 32.0157 24.8244 32.0173 24.9577C32.0189 25.091 31.9939 25.2234 31.9438 25.3469C31.8937 25.4705 31.8195 25.5829 31.7255 25.6775C31.6315 25.7721 31.5197 25.847 31.3964 25.8979C31.2732 25.9489 31.141 25.9747 31.0077 25.974C30.8743 25.9733 30.7424 25.9461 30.6197 25.8939C30.497 25.8417 30.3859 25.7656 30.2929 25.67C28.9456 24.3307 27.8099 23.4977 26.8818 23.0879Z" fill="#666666"/>
</g>
<defs>
<clipPath id="clip0_22854_200">
<rect width="38" height="38" fill="white"/>
</clipPath>
</defs>
</svg>
