<?xml version="1.0" encoding="UTF-8"?>
<svg width="64px" height="64px" viewBox="0 0 64 64" version="1.1" xmlns="http://www.w3.org/2000/svg" xmlns:xlink="http://www.w3.org/1999/xlink">
    <!-- Generator: Sketch 52 (66869) - http://www.bohemiancoding.com/sketch -->
    <title>lock_close</title>
    <desc>Created with Sketch.</desc>
    <g id="规范" stroke="none" stroke-width="1" fill="none" fill-rule="evenodd">
        <g id="图标" transform="translate(-617.000000, -1618.000000)">
            <g id="分组-157" transform="translate(617.000000, 1618.000000)">
                <g id="锁定-关">
                    <g id="Group-14">
                        <circle id="Oval-Copy" fill="#000000" opacity="0.5" cx="32" cy="32" r="32"></circle>
                        <g id="锁-copy" transform="translate(21.600000, 18.400000)" fill="#FFFFFF" fill-rule="nonzero">
                            <path d="M6.66877869,6.99293023 C6.66877869,4.65784186 8.59054739,2.75637209 10.9504852,2.75637209 C13.3104231,2.75637209 15.2287396,4.65790512 15.2287396,6.99293023 L15.2287396,11.4074902 L17.8940661,11.4075535 L17.8940661,6.88071442 C17.8940661,3.08966698 14.7800861,0.00683162791 10.9488231,0.00683162791 C7.11743219,0.00689488372 4,3.08973023 4,6.88077767 L4,11.4075535 L6.66877869,11.4075535 L6.66877869,6.99293023 Z" id="Shape"></path>
                            <path d="M19.8521181,11.4021767 L2.02552542,11.4021767 C1.0778424,11.4021767 0.309799778,12.1620688 0.309799778,13.0998363 L0.309799778,25.4935479 C0.309799778,26.4331498 1.07790633,27.1930419 2.02552542,27.1930419 L19.853972,27.1930419 C20.8017829,27.1930419 21.5680994,26.4330865 21.5680994,25.4935479 L21.5680994,13.0998363 C21.5679077,12.1620688 20.8000568,11.4021767 19.8521181,11.4021767 Z M11.9032542,19.6198028 L11.9032542,22.3260763 C11.9032542,22.4470214 11.8021825,22.5489265 11.6780963,22.5489265 L10.2031911,22.5489265 C10.0775707,22.5489265 9.97630721,22.4470214 9.97630721,22.3260763 L9.97630721,19.6198028 C9.28338113,19.2691758 8.80346637,18.566214 8.80346637,17.7422437 C8.80346637,16.5765656 9.75997159,15.6283609 10.9381825,15.6283609 C12.1181194,15.6283609 13.0747525,16.5765656 13.0747525,17.7422437 C13.0762868,18.566214 12.5963081,19.2691758 11.9032542,19.6198028 Z" id="Shape"></path>
                        </g>
                    </g>
                </g>
            </g>
        </g>
    </g>
</svg>