<?xml version="1.0" encoding="UTF-8"?>
<svg width="64px" height="64px" viewBox="0 0 64 64" version="1.1" xmlns="http://www.w3.org/2000/svg" xmlns:xlink="http://www.w3.org/1999/xlink">
    <!-- Generator: Sketch 52 (66869) - http://www.bohemiancoding.com/sketch -->
    <title>lock_open</title>
    <desc>Created with Sketch.</desc>
    <g id="规范" stroke="none" stroke-width="1" fill="none" fill-rule="evenodd">
        <g id="图标" transform="translate(-697.000000, -1618.000000)">
            <g id="分组-156" transform="translate(697.000000, 1618.000000)">
                <g id="锁定-开">
                    <g id="开锁">
                        <circle id="Oval" fill="#000000" opacity="0.5" cx="32" cy="32" r="32"></circle>
                        <g id="锁" transform="translate(17.600000, 18.400000)" fill="#FFFFFF" fill-rule="nonzero">
                            <path d="M2.66877869,6.99293023 C2.66877869,4.65784186 4.59054739,2.75637209 6.95048524,2.75637209 C9.31042309,2.75637209 11.2287396,4.65790512 11.2287396,6.99293023 L11.2287396,11.4074902 L13.8940661,11.4075535 L13.8940661,6.88071442 C13.8940661,3.08966698 10.7800861,0.00683162791 6.94882309,0.00683162791 C3.11743219,0.00689488372 0,3.08973023 0,6.88077767 L0,11.4075535 L2.66877869,11.4075535 L2.66877869,6.99293023 Z" id="Shape"></path>
                            <path d="M27.0521181,11.4021767 L9.22552542,11.4021767 C8.2778424,11.4021767 7.50979978,12.1620688 7.50979978,13.0998363 L7.50979978,25.4935479 C7.50979978,26.4331498 8.27790633,27.1930419 9.22552542,27.1930419 L27.053972,27.1930419 C28.0017829,27.1930419 28.7680994,26.4330865 28.7680994,25.4935479 L28.7680994,13.0998363 C28.7679077,12.1620688 28.0000568,11.4021767 27.0521181,11.4021767 Z M19.1032542,19.6198028 L19.1032542,22.3260763 C19.1032542,22.4470214 19.0021825,22.5489265 18.8780963,22.5489265 L17.4031911,22.5489265 C17.2775707,22.5489265 17.1763072,22.4470214 17.1763072,22.3260763 L17.1763072,19.6198028 C16.4833811,19.2691758 16.0034664,18.566214 16.0034664,17.7422437 C16.0034664,16.5765656 16.9599716,15.6283609 18.1381825,15.6283609 C19.3181194,15.6283609 20.2747525,16.5765656 20.2747525,17.7422437 C20.2762868,18.566214 19.7963081,19.2691758 19.1032542,19.6198028 Z" id="Shape"></path>
                        </g>
                    </g>
                </g>
            </g>
        </g>
    </g>
</svg>