<svg width="38" height="38" viewBox="0 0 38 38" fill="none" xmlns="http://www.w3.org/2000/svg">
<g clip-path="url(#clip0_22822_116648)">
<path d="M29.8322 14.4678C28.7778 15.5222 28.7778 17.2317 29.8322 18.2861C30.8867 19.3406 32.5962 19.3406 33.6506 18.2861C34.705 17.2317 34.705 15.5222 33.6506 14.4678C32.5962 13.4133 30.8867 13.4133 29.8322 14.4678Z" stroke="#666666" stroke-width="2"/>
<path d="M24.1047 12.5586C25.1591 13.613 26.8687 13.613 27.9231 12.5586C28.9775 11.5042 28.9775 9.79464 27.9231 8.74023L22.1955 3.01266C21.1411 1.95825 19.4316 1.95825 18.3771 3.01266C17.3227 4.06708 17.3227 5.77662 18.3771 6.83104L24.1047 12.5586Z" stroke="#666666" stroke-width="2"/>
<path d="M17.1045 32.2871C18.1589 33.3415 19.8684 33.3415 20.9228 32.2871C21.9773 31.2327 21.9773 29.5232 20.9228 28.4687L12.0133 19.5592C10.9589 18.5048 9.24934 18.5048 8.19492 19.5592C7.1405 20.6136 7.14051 22.3232 8.19492 23.3776L17.1045 32.2871Z" stroke="#666666" stroke-width="2"/>
<path d="M18.059 18.6043L20.6046 16.0588C21.4832 15.1801 21.4832 13.7555 20.6046 12.8768C19.7259 11.9981 18.3013 11.9981 17.4226 12.8768L14.877 15.4224C13.9983 16.301 13.9983 17.7257 14.877 18.6043C15.7557 19.483 17.1803 19.483 18.059 18.6043Z" stroke="#666666" stroke-width="2"/>
<path d="M10.1494 35.5H26.1494" stroke="#666666" stroke-width="2" stroke-linecap="round" stroke-linejoin="round"/>
</g>
<defs>
<clipPath id="clip0_22822_116648">
<rect width="38" height="38" fill="white"/>
</clipPath>
</defs>
</svg>
