<?xml version="1.0" encoding="UTF-8"?>
<svg width="24px" height="24px" viewBox="0 0 24 24" version="1.1" xmlns="http://www.w3.org/2000/svg" xmlns:xlink="http://www.w3.org/1999/xlink">
    <!-- Generator: Sketch 52 (66869) - http://www.bohemiancoding.com/sketch -->
    <title>nav_restart</title>
    <desc>Created with Sketch.</desc>
    <g id="Symbols" stroke="none" stroke-width="1" fill="none" fill-rule="evenodd">
        <g id="nav_restart">
            <circle id="椭圆形" fill="#3790FC" fill-rule="nonzero" cx="12" cy="12" r="12"></circle>
            <g id="重启" stroke-width="1" fill-rule="evenodd" transform="translate(4.000000, 4.000000)" fill="#FFFFFF" stroke="#FFFFFF">
                <path d="M15.3056807,7.31528452 C15.6838386,7.31528452 15.9903962,7.62184208 15.9903962,8 C15.9903962,8.37815792 15.6838386,8.68471548 15.3056807,8.68471548 L12.5655894,8.68471548 C12.1874315,8.68471548 11.8808739,8.37815792 11.8808739,8 C11.8808739,7.62184208 12.1874315,7.31528452 12.5655894,7.31528452 L15.3056807,7.31528452 Z M11.7143049,5.25560624 C11.4443601,5.50943262 11.0216277,5.50299664 10.7595351,5.24107015 C10.4974425,4.97914365 10.4907386,4.55641536 10.7443938,4.28630973 L12.6817575,2.35017528 C12.9508274,2.09201741 13.3769216,2.09635879 13.6406756,2.35994548 C13.9044295,2.62353216 13.9090412,3.04962356 13.651054,3.31885714 L11.7143049,5.2549916 L11.7143049,5.25560624 Z M8,11.8814886 C8.18186066,11.8809983 8.35643187,11.952941 8.48514252,12.081421 C8.61385318,12.2099009 8.68610883,12.3843428 8.68594477,12.5662041 L8.68594477,15.305066 C8.68588551,15.6835215 8.37907012,15.9902888 8.00061465,15.9902888 C7.62215918,15.9902888 7.31534379,15.6835215 7.31528452,15.305066 L7.31528452,12.5668187 C7.31446394,12.3849142 7.38632009,12.210214 7.51488961,12.081529 C7.64345914,11.9528441 7.81809479,11.8808312 8,11.8814886 Z M8,0.00960384874 C8.18181073,0.00927743692 8.35628677,0.0812727726 8.48496183,0.209717229 C8.61363688,0.338161686 8.68594507,0.512508302 8.68594477,0.694319328 L8.68594477,3.43318128 C8.68588551,3.81163674 8.37907012,4.11840409 8.00061465,4.11840409 C7.62215918,4.11840409 7.31534379,3.81163674 7.31528452,3.43318128 L7.31528452,0.694319328 C7.31528452,0.316161411 7.62184208,0.00960384874 8,0.00960384874 Z M3.31885714,2.35017528 L5.25560624,4.2887683 C5.50367234,4.55896111 5.49476007,4.97664367 5.23539455,5.23600919 C4.97602904,5.49537471 4.55834647,5.50428699 4.28815366,5.25622089 L2.35017528,3.31885714 C2.10655259,3.04763855 2.11765091,2.63323123 2.37544107,2.37544107 C2.63323123,2.11765091 3.04763855,2.10655259 3.31885714,2.35017528 Z M4.11912605,7.99877071 C4.11994664,8.18067525 4.04809049,8.35537545 3.91952096,8.48406039 C3.79095143,8.61274533 3.61631578,8.68475821 3.43441057,8.68410084 L0.694319328,8.68410084 C0.316161406,8.68410084 0.00960384034,8.37754327 0.00960384034,7.99938535 C0.00960384034,7.62122743 0.316161406,7.31466987 0.694319328,7.31466987 L3.43379592,7.31466987 C3.81180313,7.31466987 4.11851139,7.6207635 4.11912605,7.99938536 L4.11912605,7.99877071 Z M4.28692437,10.7443938 C4.55441848,10.4770694 4.98797452,10.477207 5.25529889,10.7447011 C5.52262327,11.0121952 5.52248569,11.4457512 5.2549916,11.7130756 L3.3182425,13.6492101 C3.0474061,13.8957416 2.63067059,13.8860244 2.37161922,13.6271373 C2.11256785,13.3682502 2.10258632,12.951521 2.34894598,12.6805282 L4.28692437,10.7443938 Z M11.7143049,10.7443938 L13.6504394,12.6805282 C13.8297024,12.8523031 13.9020435,13.1075982 13.8395418,13.3478801 C13.7770402,13.588162 13.5894714,13.7758498 13.3492292,13.8385038 C13.1089869,13.9011579 12.853646,13.8289788 12.6817575,13.6498247 L10.745623,11.7130756 C10.5629934,11.5420499 10.4880822,11.2850889 10.5501943,11.0427143 C10.6123064,10.8003396 10.8015689,10.6110771 11.0439436,10.548965 C11.2863182,10.4868529 11.5432792,10.5617641 11.7143049,10.7443938 Z" id="形状" stroke-width="0.3" fill-rule="nonzero"></path>
            </g>
        </g>
    </g>
</svg>