<svg width="36" height="36" viewBox="0 0 36 36" fill="none" xmlns="http://www.w3.org/2000/svg">
<path fill-rule="evenodd" clip-rule="evenodd" d="M18 27C22.9706 27 27 22.9706 27 18C27 13.0294 22.9706 9 18 9C13.0294 9 9 13.0294 9 18C9 22.9706 13.0294 27 18 27Z" stroke="#979797" stroke-width="1.28"/>
<path fill-rule="evenodd" clip-rule="evenodd" d="M21.4109 17.1006C21.7739 16.5863 21.9555 15.9863 21.9555 15.2148C21.9555 14.272 21.6832 13.5006 21.0479 12.9863C20.4126 12.472 19.5958 12.2148 18.5067 12.2148C17.3269 12.2148 16.4193 12.5577 15.784 13.2434C15.058 13.8434 14.7857 14.4434 14.7857 15.6434C14.7857 16.1577 15.2395 16.5863 15.6933 16.5863C16.1471 16.5863 16.6008 16.1577 16.6008 15.6434V15.5577C16.6008 14.9577 16.6916 14.6148 16.9639 14.3577C17.2361 13.9291 17.7807 13.7577 18.416 13.7577C18.9605 13.7577 19.3235 13.9291 19.5958 14.1863C19.8681 14.4434 20.0496 14.872 20.0496 15.3006C20.0496 15.6434 19.8681 15.9863 19.5958 16.3291L19.4143 16.5006C18.416 17.3577 17.8714 18.0434 17.6899 18.472C17.5084 18.8148 17.4176 19.3291 17.4176 19.9291V20.1006V20.1863C17.5084 20.5291 17.8714 20.7863 18.3252 20.7863C18.779 20.7863 19.142 20.5291 19.2328 20.1863V19.8434C19.2647 19.7528 19.2855 19.6516 19.3068 19.5472C19.3461 19.3553 19.3875 19.1528 19.505 18.9863C19.6865 18.7291 19.8681 18.472 20.1403 18.3006C20.6849 17.8506 21.0252 17.497 21.2379 17.276C21.3088 17.2023 21.3655 17.1434 21.4109 17.1006ZM19.2328 23.3577C19.2328 23.1006 19.142 22.9291 18.9605 22.7577C18.779 22.5863 18.5975 22.5006 18.3252 22.5006C18.0529 22.5006 17.8714 22.5863 17.6899 22.7577C17.5084 22.9291 17.4176 23.1006 17.4176 23.3577C17.4176 23.6148 17.5084 23.7863 17.6899 23.9577C17.8714 24.1291 18.0529 24.2148 18.3252 24.2148C18.5975 24.2148 18.779 24.1291 18.9605 23.9577C19.142 23.7863 19.2328 23.6148 19.2328 23.3577Z" fill="#979797"/>
</svg>
