<?xml version="1.0" encoding="UTF-8"?>
<svg width="24px" height="24px" viewBox="0 0 24 24" version="1.1" xmlns="http://www.w3.org/2000/svg" xmlns:xlink="http://www.w3.org/1999/xlink">
    <!-- Generator: Sketch 64 (93537) - https://sketch.com -->
    <title>椭圆形</title>
    <desc>Created with Sketch.</desc>
    <g id="Symbols" stroke="none" stroke-width="1" fill="none" fill-rule="evenodd">
        <g id="05Icon/icon_nav/nav_about" fill-rule="nonzero">
            <circle id="椭圆形" fill="#E3E7EC" cx="12" cy="12" r="12"></circle>
            <path d="M13.1484209,13.8770725 C13.0511226,14.3041115 12.4075347,17.35864 14.5359355,15.6178563 C14.5359355,15.6178563 15.582906,14.9470691 14.0676873,16.4882481 C12.5524687,18.0313464 10.6156239,18.5188426 10.3906216,17.35864 C10.5505688,15.5931355 10.8579521,13.8423992 11.309888,12.1228538 C11.3575237,11.7265233 10.8416398,12.1228538 10.8416398,12.1228538 C10.8416398,12.1228538 9.34263756,13.130474 9.00310696,12.5652471 C8.95547132,12.4731218 9.47135513,12.1228538 9.47135513,12.1228538 C9.47135513,12.1228538 12.5990908,9.93871724 13.6166691,10.3820701 C14.6301933,10.822544 13.2457192,13.4490739 13.1484209,13.8770725 Z M14.5302033,8.32004443 C14.2372287,8.76876559 13.7271184,9.02710146 13.1920259,8.99773941 C12.6569335,8.96837736 12.1781522,8.65577818 11.9360343,8.17769496 C11.6939165,7.69961175 11.7252455,7.12867671 12.0182201,6.67995556 C12.3111947,6.2312344 12.821305,5.97289854 13.3563975,6.00226059 C13.8914899,6.03162264 14.3702712,6.34422182 14.6123891,6.82230503 C14.8545069,7.30038824 14.8231779,7.87132328 14.5302033,8.32004443 L14.5302033,8.32004443 Z" id="形状" fill="#67778B"></path>
        </g>
    </g>
</svg>