<svg width="24" height="24" viewBox="0 0 24 24" fill="none" xmlns="http://www.w3.org/2000/svg">
<path d="M12 24C18.6274 24 24 18.6274 24 12C24 5.37258 18.6274 0 12 0C5.37258 0 0 5.37258 0 12C0 18.6274 5.37258 24 12 24Z" fill="#D9DDE4"/>
<g clip-path="url(#clip0_20037_160713)">
<path d="M12.1036 9.68407C11.9364 9.68407 11.7759 9.61753 11.6576 9.49926L8.23526 6.0769C7.98896 5.8306 7.98896 5.43134 8.23526 5.18473C8.48157 4.93842 8.88082 4.93842 9.12712 5.18473L12.1032 8.16116L15.0794 5.18473C15.3257 4.93842 15.7249 4.93842 15.9712 5.18473C16.2175 5.43103 16.2175 5.83028 15.9712 6.0769L12.5495 9.49926C12.4312 9.61754 12.2708 9.68401 12.1036 9.68407Z" fill="#67778B" stroke="#67778B" stroke-width="0.2"/>
<path d="M16.632 10.6229H7.63439C7.28389 10.6229 7 10.3407 7 9.99218C7 9.6437 7.28389 9.36145 7.63439 9.36145H16.6323C16.9828 9.36145 17.2667 9.6437 17.2667 9.99218C17.2667 10.3407 16.9825 10.6229 16.632 10.6229ZM16.632 13.6978H7.63439C7.28389 13.6978 7 13.4155 7 13.067C7 12.7185 7.28389 12.4363 7.63439 12.4363H16.6323C16.9828 12.4363 17.2667 12.7185 17.2667 13.067C17.2667 13.4155 16.9825 13.6978 16.632 13.6978Z" fill="#67778B" stroke="#67778B" stroke-width="0.2"/>
<path d="M12.1035 19C11.755 19 11.4728 18.7178 11.4728 18.3693V9.99218C11.4728 9.6437 11.755 9.36145 12.1035 9.36145C12.452 9.36145 12.7342 9.6437 12.7342 9.99218V18.3693C12.7342 18.7178 12.452 19 12.1035 19Z" fill="#67778B" stroke="#67778B" stroke-width="0.2"/>
</g>
<defs>
<clipPath id="clip0_20037_160713">
<rect width="12" height="16" fill="white" transform="translate(6 4)"/>
</clipPath>
</defs>
</svg>
