<svg width="24" height="24" viewBox="0 0 24 24" fill="none" xmlns="http://www.w3.org/2000/svg">
<path d="M12 24C18.6274 24 24 18.6274 24 12C24 5.37258 18.6274 0 12 0C5.37258 0 0 5.37258 0 12C0 18.6274 5.37258 24 12 24Z" fill="#D9DDE4"/>
<g clip-path="url(#clip0_23391_64955)">
<rect x="6.5" y="6.5" width="11" height="11" rx="1.9" stroke="#67778B"/>
<path d="M7.90106 15.9382C7.76949 15.9382 7.66284 15.8332 7.66284 15.7035C7.66284 15.5739 7.76949 15.4688 7.90106 15.4688C8.29645 15.4684 8.61686 15.1526 8.61718 14.763C8.61718 14.6334 8.72384 14.5283 8.8554 14.5283C8.98696 14.5283 9.09361 14.6334 9.09361 14.763C9.09287 15.4117 8.5594 15.9374 7.90106 15.9382Z" fill="#67778B" stroke="#67778B" stroke-width="0.5"/>
<path fill-rule="evenodd" clip-rule="evenodd" d="M14.8468 9.06403C14.8468 9.19366 14.9534 9.29875 15.085 9.29875C15.1482 9.29878 15.2088 9.27405 15.2536 9.23C15.2983 9.18594 15.3234 9.12618 15.3233 9.06388C15.3237 8.67429 15.6441 8.35851 16.0395 8.35811C16.171 8.35811 16.2777 8.25302 16.2777 8.12339C16.2777 7.99376 16.171 7.88867 16.0395 7.88867C15.381 7.8894 14.8474 8.41522 14.8468 9.06403ZM8.61792 14.8418C8.61792 14.9714 8.72457 15.0765 8.85613 15.0765C8.91934 15.0765 8.97995 15.0517 9.02463 15.0077C9.06931 14.9636 9.09439 14.9039 9.09435 14.8416V10.0002C9.09435 9.87054 8.98769 9.76546 8.85613 9.76546C8.72457 9.76546 8.61792 9.87054 8.61792 10.0002V14.8418Z" fill="#67778B"/>
<path d="M15.085 9.29875L15.0851 9.04875H15.085V9.29875ZM14.8468 9.06403L14.5968 9.06377V9.06403H14.8468ZM15.3233 9.06388L15.0733 9.06367V9.06404L15.3233 9.06388ZM16.0395 8.35811V8.10811L16.0392 8.10811L16.0395 8.35811ZM16.0395 7.88867V7.63867L16.0392 7.63867L16.0395 7.88867ZM9.02463 15.0077L8.84911 14.8297L8.84911 14.8297L9.02463 15.0077ZM9.09435 14.8416H8.84435L8.84435 14.8418L9.09435 14.8416ZM15.085 9.04875C15.0869 9.04875 15.0898 9.0498 15.092 9.05192C15.093 9.05295 15.0942 9.05452 15.0952 9.05678C15.0962 9.05921 15.0968 9.06184 15.0968 9.06403H14.5968C14.5968 9.3352 14.8188 9.54875 15.085 9.54875V9.04875ZM15.0781 9.05192C15.0806 9.04947 15.0832 9.04874 15.0851 9.04875L15.0848 9.54875C15.2132 9.54882 15.3371 9.49863 15.429 9.40808L15.0781 9.05192ZM15.0733 9.06404C15.0733 9.05878 15.0755 9.05449 15.0781 9.05192L15.429 9.40808C15.5211 9.31739 15.5734 9.19358 15.5733 9.06372L15.0733 9.06404ZM16.0392 8.10811C15.5094 8.10865 15.0738 8.53272 15.0733 9.06367L15.5733 9.06409C15.5735 8.81585 15.7787 8.60838 16.0397 8.60811L16.0392 8.10811ZM16.0277 8.12339C16.0277 8.12121 16.0282 8.11858 16.0292 8.11614C16.0302 8.11388 16.0314 8.11232 16.0324 8.11128C16.0346 8.10917 16.0375 8.10811 16.0395 8.10811V8.60811C16.3056 8.60811 16.5277 8.39456 16.5277 8.12339H16.0277ZM16.0395 8.13867C16.0375 8.13867 16.0346 8.13762 16.0324 8.1355C16.0314 8.13447 16.0302 8.1329 16.0292 8.13064C16.0282 8.1282 16.0277 8.12558 16.0277 8.12339H16.5277C16.5277 7.85222 16.3056 7.63867 16.0395 7.63867V8.13867ZM15.0968 9.06428C15.0973 8.5568 15.5156 8.13925 16.0397 8.13867L16.0392 7.63867C15.2463 7.63955 14.5976 8.27364 14.5968 9.06377L15.0968 9.06428ZM8.85613 14.8265C8.85811 14.8265 8.86101 14.8276 8.86316 14.8297C8.8642 14.8307 8.8654 14.8323 8.86637 14.8345C8.86742 14.837 8.86792 14.8396 8.86792 14.8418H8.36792C8.36792 15.1129 8.59 15.3265 8.85613 15.3265V14.8265ZM8.84911 14.8297C8.85159 14.8272 8.85419 14.8265 8.85613 14.8265V15.3265C8.98449 15.3265 9.10831 15.2763 9.20015 15.1857L8.84911 14.8297ZM8.84435 14.8418C8.84434 14.8365 8.8465 14.8322 8.84911 14.8297L9.20015 15.1857C9.29212 15.095 9.34443 14.9713 9.34435 14.8415L8.84435 14.8418ZM8.84435 10.0002V14.8416H9.34435V10.0002H8.84435ZM8.85613 10.0155C8.85415 10.0155 8.85126 10.0144 8.84911 10.0123C8.84806 10.0113 8.84687 10.0097 8.8459 10.0074C8.84485 10.005 8.84435 10.0024 8.84435 10.0002H9.34435C9.34435 9.729 9.12227 9.51546 8.85613 9.51546V10.0155ZM8.86792 10.0002C8.86792 10.0024 8.86742 10.005 8.86637 10.0074C8.8654 10.0097 8.8642 10.0113 8.86316 10.0123C8.86101 10.0144 8.85811 10.0155 8.85613 10.0155V9.51546C8.59 9.51546 8.36792 9.729 8.36792 10.0002H8.86792ZM8.86792 14.8418V10.0002H8.36792V14.8418H8.86792Z" fill="#67778B"/>
<path fill-rule="evenodd" clip-rule="evenodd" d="M11.9714 10.4339C11.8398 10.4339 11.7332 10.3528 11.7332 10.2528V7.80957C11.7332 7.70952 11.8398 7.62842 11.9714 7.62842C12.1029 7.62842 12.2096 7.70952 12.2096 7.80957V10.2527C12.2096 10.3007 12.1845 10.3468 12.1399 10.3808C12.0952 10.4148 12.0346 10.4339 11.9714 10.4339ZM15.0845 14.6512C14.953 14.6512 14.8463 14.5461 14.8463 14.4165V8.98539C14.8463 8.85575 14.953 8.75067 15.0845 8.75067C15.2161 8.75067 15.3227 8.85575 15.3227 8.98539V14.4163C15.3228 14.4786 15.2977 14.5384 15.253 14.5824C15.2083 14.6265 15.1477 14.6512 15.0845 14.6512ZM11.7332 16.5365C11.7332 16.6365 11.8398 16.7177 11.9714 16.7177C12.0346 16.7177 12.0952 16.6986 12.1399 16.6646C12.1845 16.6306 12.2096 16.5844 12.2096 16.5364V14.0933C12.2096 13.9933 12.1029 13.9121 11.9714 13.9121C11.8398 13.9121 11.7332 13.9933 11.7332 14.0933V16.5365Z" fill="#67778B"/>
<path d="M12.2096 7.80957H12.4596L12.4596 7.80957L12.2096 7.80957ZM12.2096 10.2527H11.9596L11.9596 10.2529L12.2096 10.2527ZM12.1399 10.3808L12.2913 10.5798H12.2913L12.1399 10.3808ZM15.3227 14.4163H15.0727V14.4165L15.3227 14.4163ZM12.1399 16.6646L12.2913 16.8635L12.2913 16.8635L12.1399 16.6646ZM12.2096 16.5364H11.9596L11.9596 16.5366L12.2096 16.5364ZM12.2096 14.0933H12.4596H12.4596H12.2096ZM11.4832 10.2528C11.4832 10.3977 11.561 10.511 11.6516 10.5799C11.742 10.6486 11.8559 10.6839 11.9714 10.6839V10.1839C11.9553 10.1839 11.95 10.1787 11.9543 10.1819C11.9587 10.1852 11.9832 10.208 11.9832 10.2528H11.4832ZM11.4832 7.80957V10.2528H11.9832V7.80957H11.4832ZM11.9714 7.37842C11.8559 7.37842 11.742 7.41372 11.6516 7.48248C11.561 7.55139 11.4832 7.6647 11.4832 7.80957H11.9832C11.9832 7.85439 11.9587 7.87713 11.9543 7.88047C11.95 7.88367 11.9553 7.87842 11.9714 7.87842V7.37842ZM12.4596 7.80957C12.4596 7.6647 12.3818 7.55139 12.2911 7.48248C12.2007 7.41372 12.0868 7.37842 11.9714 7.37842V7.87842C11.9875 7.87842 11.9927 7.88367 11.9885 7.88047C11.9841 7.87713 11.9596 7.85439 11.9596 7.80957L12.4596 7.80957ZM12.4596 10.2527V7.80957H11.9596V10.2527H12.4596ZM12.2913 10.5798C12.3863 10.5075 12.4597 10.3924 12.4596 10.2525L11.9596 10.2529C11.9595 10.209 11.9828 10.1862 11.9885 10.1819L12.2913 10.5798ZM11.9714 10.6839C12.082 10.6839 12.1976 10.651 12.2913 10.5798L11.9885 10.1819C11.9913 10.1797 11.9913 10.1805 11.9874 10.1817C11.9836 10.1829 11.9781 10.1839 11.9714 10.1839V10.6839ZM14.5963 14.4165C14.5963 14.6877 14.8184 14.9012 15.0845 14.9012V14.4012C15.0865 14.4012 15.0894 14.4023 15.0915 14.4044C15.0926 14.4054 15.0938 14.407 15.0948 14.4092C15.0958 14.4117 15.0963 14.4143 15.0963 14.4165H14.5963ZM14.5963 8.98539V14.4165H15.0963V8.98539H14.5963ZM15.0845 8.50067C14.8184 8.50067 14.5963 8.71421 14.5963 8.98539H15.0963C15.0963 8.98757 15.0958 8.9902 15.0948 8.99264C15.0938 8.9949 15.0926 8.99646 15.0915 8.99749C15.0894 8.99961 15.0865 9.00067 15.0845 9.00067V8.50067ZM15.5727 8.98539C15.5727 8.71421 15.3507 8.50067 15.0845 8.50067V9.00067C15.0825 9.00067 15.0796 8.99961 15.0775 8.99749C15.0764 8.99646 15.0753 8.9949 15.0743 8.99264C15.0732 8.9902 15.0727 8.98757 15.0727 8.98539H15.5727ZM15.5727 14.4163V8.98539H15.0727V14.4163H15.5727ZM15.4285 14.7604C15.5205 14.6698 15.5728 14.546 15.5727 14.4162L15.0727 14.4165C15.0727 14.4112 15.0749 14.407 15.0775 14.4044L15.4285 14.7604ZM15.0845 14.9012C15.2129 14.9012 15.3367 14.851 15.4285 14.7604L15.0775 14.4044C15.08 14.4019 15.0826 14.4012 15.0845 14.4012V14.9012ZM11.9714 16.4677C11.9553 16.4677 11.9501 16.4624 11.9543 16.4656C11.9587 16.469 11.9832 16.4917 11.9832 16.5365H11.4832C11.4832 16.6813 11.561 16.7947 11.6516 16.8636C11.742 16.9324 11.8559 16.9677 11.9714 16.9677V16.4677ZM11.9885 16.4656C11.9913 16.4635 11.9913 16.4642 11.9874 16.4654C11.9836 16.4666 11.9781 16.4677 11.9714 16.4677V16.9677C12.082 16.9677 12.1976 16.9347 12.2913 16.8635L11.9885 16.4656ZM11.9596 16.5366C11.9595 16.4928 11.9828 16.4699 11.9885 16.4656L12.2913 16.8635C12.3863 16.7912 12.4597 16.6761 12.4596 16.5362L11.9596 16.5366ZM11.9596 14.0933V16.5364H12.4596V14.0933H11.9596ZM11.9714 14.1621C11.9875 14.1621 11.9927 14.1674 11.9885 14.1642C11.9841 14.1608 11.9596 14.1381 11.9596 14.0933H12.4596C12.4596 13.9485 12.3818 13.8351 12.2912 13.7662C12.2007 13.6974 12.0868 13.6621 11.9714 13.6621V14.1621ZM11.9832 14.0933C11.9832 14.1381 11.9587 14.1608 11.9543 14.1642C11.9501 14.1674 11.9553 14.1621 11.9714 14.1621V13.6621C11.8559 13.6621 11.742 13.6974 11.6516 13.7662C11.561 13.8351 11.4832 13.9485 11.4832 14.0933H11.9832ZM11.9832 16.5365V14.0933H11.4832V16.5365H11.9832Z" fill="#67778B"/>
<path fill-rule="evenodd" clip-rule="evenodd" d="M11.4144 13.9637C11.4394 14.122 11.5715 14.237 11.7287 14.237L12.2036 14.2364C12.3601 14.2364 12.4923 14.1219 12.5178 13.964C12.5447 13.8062 12.6418 13.6686 12.7825 13.5888C12.9232 13.5089 13.0928 13.4952 13.2448 13.5515C13.3971 13.6102 13.564 13.554 13.6423 13.4195L13.8805 13.0078C13.9582 12.8742 13.9228 12.7042 13.7965 12.6035C13.6714 12.5031 13.5988 12.3526 13.5986 12.1936C13.5984 12.0346 13.6707 11.8839 13.7956 11.7832C13.9223 11.6829 13.9575 11.5125 13.8793 11.3786L13.6418 10.9728C13.5637 10.8392 13.3966 10.7845 13.2446 10.842C13.0926 10.8981 12.9231 10.8844 12.7825 10.8047C12.6418 10.7249 12.5446 10.5874 12.5175 10.4297C12.4921 10.2715 12.3599 10.1567 12.2033 10.1567H11.7284C11.5719 10.1567 11.4397 10.2713 11.4142 10.4295C11.3872 10.5872 11.2901 10.7248 11.1494 10.8046C11.0088 10.8844 10.8392 10.8981 10.6872 10.842C10.5358 10.7842 10.368 10.8395 10.2899 10.974L10.054 11.3817C9.97721 11.515 10.0125 11.6843 10.1376 11.7844C10.2624 11.8864 10.3345 12.038 10.3341 12.1978C10.3337 12.3576 10.2609 12.5089 10.1355 12.6103C10.0082 12.7112 9.97408 12.8815 10.0528 13.0152L10.2911 13.4201C10.3694 13.5531 10.5363 13.6075 10.688 13.5512C10.8399 13.4949 11.0094 13.5086 11.15 13.5885C11.2907 13.6683 11.3876 13.806 11.4144 13.9637ZM11.7814 13.8631C11.6902 13.4434 11.3143 13.1432 10.8787 13.1424C10.7815 13.1426 10.685 13.1581 10.5928 13.1883L10.407 12.8727C10.6014 12.7005 10.7126 12.4552 10.7129 12.1977C10.7133 11.9401 10.6028 11.6945 10.409 11.5218L10.5921 11.2053C10.8408 11.285 11.1121 11.2571 11.3386 11.1284C11.5651 10.9998 11.7257 10.7825 11.7803 10.5305H12.1508C12.2054 10.7827 12.3661 11.0002 12.5928 11.1289C12.8196 11.2575 13.0911 11.2853 13.3399 11.2053L13.5238 11.5205C13.3295 11.692 13.2186 11.937 13.2188 12.194C13.219 12.4511 13.3303 12.6959 13.5248 12.8672L13.3385 13.1883C13.0899 13.1086 12.8186 13.1365 12.592 13.2652C12.3655 13.3938 12.205 13.6111 12.1503 13.8631H11.7814Z" fill="#67778B"/>
<path d="M11.7287 14.237V14.337H11.7288L11.7287 14.237ZM11.4144 13.9637L11.5132 13.9481L11.513 13.947L11.4144 13.9637ZM12.2036 14.2364V14.1364L12.2035 14.1364L12.2036 14.2364ZM12.5178 13.964L12.4192 13.9472L12.419 13.9481L12.5178 13.964ZM13.2448 13.5515L13.2807 13.4582L13.2795 13.4577L13.2448 13.5515ZM13.6423 13.4195L13.7287 13.4698L13.7288 13.4696L13.6423 13.4195ZM13.8805 13.0078L13.794 12.9576L13.7939 12.9578L13.8805 13.0078ZM13.7965 12.6035L13.7339 12.6815L13.7342 12.6817L13.7965 12.6035ZM13.7956 11.7832L13.7335 11.7048L13.7328 11.7054L13.7956 11.7832ZM13.8793 11.3786L13.9657 11.3282L13.9656 11.3281L13.8793 11.3786ZM13.6418 10.9728L13.5555 11.0233L13.5555 11.0233L13.6418 10.9728ZM13.2446 10.842L13.2793 10.9358L13.28 10.9355L13.2446 10.842ZM12.7825 10.8047L12.7331 10.8917L12.7825 10.8047ZM12.5175 10.4297L12.4187 10.4455L12.4189 10.4467L12.5175 10.4297ZM11.4142 10.4295L11.5128 10.4463L11.513 10.4453L11.4142 10.4295ZM10.6872 10.842L10.6516 10.9354L10.6526 10.9358L10.6872 10.842ZM10.2899 10.974L10.2034 10.9238L10.2033 10.9239L10.2899 10.974ZM10.054 11.3817L9.96747 11.3316L9.96738 11.3318L10.054 11.3817ZM10.1376 11.7844L10.2008 11.7069L10.2 11.7063L10.1376 11.7844ZM10.3341 12.1978L10.2341 12.1976V12.1976L10.3341 12.1978ZM10.1355 12.6103L10.1976 12.6886L10.1983 12.688L10.1355 12.6103ZM10.0528 13.0152L10.139 12.9645L10.139 12.9644L10.0528 13.0152ZM10.2911 13.4201L10.2049 13.4708L10.2049 13.4708L10.2911 13.4201ZM10.688 13.5512L10.6532 13.4574L10.6532 13.4575L10.688 13.5512ZM10.8787 13.1424L10.8789 13.0424L10.8785 13.0424L10.8787 13.1424ZM11.7814 13.8631L11.6837 13.8843L11.7008 13.9631H11.7814V13.8631ZM10.5928 13.1883L10.5067 13.239L10.5475 13.3084L10.624 13.2833L10.5928 13.1883ZM10.407 12.8727L10.3407 12.7979L10.2791 12.8525L10.3209 12.9235L10.407 12.8727ZM10.7129 12.1977L10.8129 12.1978L10.7129 12.1977ZM10.409 11.5218L10.3224 11.4717L10.2816 11.5422L10.3424 11.5964L10.409 11.5218ZM10.5921 11.2053L10.6226 11.1101L10.5459 11.0855L10.5055 11.1553L10.5921 11.2053ZM11.3386 11.1284L11.388 11.2154L11.3386 11.1284ZM11.7803 10.5305V10.4305H11.6997L11.6826 10.5093L11.7803 10.5305ZM12.1508 10.5305L12.2485 10.5094L12.2314 10.4305H12.1508V10.5305ZM13.3399 11.2053L13.4263 11.1549L13.3858 11.0855L13.3093 11.1101L13.3399 11.2053ZM13.5238 11.5205L13.59 11.5954L13.6515 11.541L13.6101 11.4701L13.5238 11.5205ZM13.2188 12.194L13.1188 12.1941L13.2188 12.194ZM13.5248 12.8672L13.6113 12.9173L13.6525 12.8463L13.5909 12.7921L13.5248 12.8672ZM13.3385 13.1883L13.308 13.2835L13.3847 13.3081L13.4251 13.2385L13.3385 13.1883ZM12.1503 13.8631V13.9631H12.2309L12.248 13.8843L12.1503 13.8631ZM11.7287 14.137C11.6222 14.137 11.5307 14.0594 11.5132 13.9481L11.3156 13.9793C11.3481 14.1847 11.5207 14.337 11.7287 14.337V14.137ZM12.2035 14.1364L11.7285 14.137L11.7288 14.337L12.2037 14.3364L12.2035 14.1364ZM12.419 13.9481C12.4011 14.059 12.3095 14.1364 12.2036 14.1364V14.3364C12.4107 14.3364 12.5835 14.1847 12.6165 13.9799L12.419 13.9481ZM12.7331 13.5018C12.5666 13.5962 12.4512 13.7595 12.4192 13.9472L12.6163 13.9808C12.6381 13.853 12.7169 13.7409 12.8318 13.6757L12.7331 13.5018ZM13.2795 13.4577C13.0999 13.3913 12.8995 13.4074 12.7331 13.5018L12.8318 13.6757C12.9468 13.6105 13.0856 13.5992 13.21 13.6453L13.2795 13.4577ZM13.5558 13.3692C13.5036 13.4588 13.3898 13.5002 13.2807 13.4582L13.2088 13.6448C13.4043 13.7201 13.6243 13.6492 13.7287 13.4698L13.5558 13.3692ZM13.7939 12.9578L13.5557 13.3694L13.7288 13.4696L13.967 13.0579L13.7939 12.9578ZM13.7342 12.6817C13.8244 12.7536 13.8451 12.8697 13.794 12.9576L13.9669 13.0581C14.0713 12.8787 14.0212 12.6547 13.8588 12.5253L13.7342 12.6817ZM13.4986 12.1937C13.4988 12.3833 13.5854 12.5623 13.7339 12.6815L13.8591 12.5256C13.7574 12.4439 13.6987 12.3219 13.6986 12.1935L13.4986 12.1937ZM13.7328 11.7054C13.5846 11.8249 13.4984 12.0041 13.4986 12.1937L13.6986 12.1935C13.6984 12.0651 13.7568 11.9429 13.8584 11.861L13.7328 11.7054ZM13.7929 11.429C13.8445 11.5173 13.8237 11.6334 13.7335 11.7048L13.8577 11.8616C14.021 11.7323 14.0705 11.5078 13.9657 11.3282L13.7929 11.429ZM13.5555 11.0233L13.793 11.4291L13.9656 11.3281L13.7281 10.9223L13.5555 11.0233ZM13.28 10.9355C13.39 10.8939 13.5039 10.9351 13.5555 11.0233L13.7281 10.9223C13.6234 10.7433 13.4032 10.6751 13.2092 10.7484L13.28 10.9355ZM12.7331 10.8917C12.8995 10.986 13.0997 11.0021 13.2793 10.9358L13.21 10.7482C13.0855 10.7941 12.9468 10.7829 12.8318 10.7177L12.7331 10.8917ZM12.4189 10.4467C12.4512 10.6343 12.5667 10.7973 12.7331 10.8917L12.8318 10.7177C12.7168 10.6525 12.638 10.5406 12.616 10.4128L12.4189 10.4467ZM12.2033 10.2567C12.3092 10.2567 12.4009 10.3342 12.4187 10.4455L12.6162 10.414C12.5834 10.2087 12.4107 10.0567 12.2033 10.0567V10.2567ZM11.7284 10.2567H12.2033V10.0567H11.7284V10.2567ZM11.513 10.4453C11.5309 10.3341 11.6226 10.2567 11.7284 10.2567V10.0567C11.5212 10.0567 11.3485 10.2085 11.3155 10.4136L11.513 10.4453ZM11.1988 10.8916C11.3652 10.7971 11.4807 10.634 11.5128 10.4463L11.3157 10.4126C11.2938 10.5404 11.215 10.6524 11.1001 10.7176L11.1988 10.8916ZM10.6526 10.9358C10.8322 11.0021 11.0324 10.9859 11.1988 10.8916L11.1001 10.7176C10.9851 10.7829 10.8463 10.7941 10.7219 10.7482L10.6526 10.9358ZM10.3763 11.0242C10.4281 10.9351 10.5427 10.8938 10.6516 10.9354L10.7229 10.7485C10.529 10.6745 10.3079 10.7439 10.2034 10.9238L10.3763 11.0242ZM10.1406 11.4318L10.3764 11.0241L10.2033 10.9239L9.96747 11.3316L10.1406 11.4318ZM10.2 11.7063C10.111 11.6351 10.0901 11.5194 10.1407 11.4316L9.96738 11.3318C9.86434 11.5106 9.91398 11.7336 10.0751 11.8625L10.2 11.7063ZM10.4341 12.1981C10.4346 12.0078 10.3488 11.8278 10.2008 11.7069L10.0743 11.8618C10.1761 11.945 10.2344 12.0682 10.2341 12.1976L10.4341 12.1981ZM10.1983 12.688C10.3469 12.5679 10.4336 12.3883 10.4341 12.1981L10.2341 12.1976C10.2338 12.327 10.1748 12.4499 10.0726 12.5325L10.1983 12.688ZM10.139 12.9644C10.087 12.8762 10.1071 12.7604 10.1976 12.6886L10.0733 12.5319C9.90921 12.6621 9.86114 12.8868 9.96669 13.0659L10.139 12.9644ZM10.3772 13.3694L10.139 12.9645L9.96665 13.0659L10.2049 13.4708L10.3772 13.3694ZM10.6532 13.4575C10.543 13.4984 10.4289 13.4571 10.3772 13.3693L10.2049 13.4708C10.3098 13.6491 10.5296 13.7167 10.7228 13.645L10.6532 13.4575ZM11.1994 13.5015C11.0331 13.4071 10.8328 13.3909 10.6532 13.4574L10.7227 13.645C10.847 13.5989 10.9857 13.6102 11.1007 13.6754L11.1994 13.5015ZM11.513 13.947C11.4811 13.7593 11.3658 13.596 11.1994 13.5015L11.1007 13.6754C11.2155 13.7406 11.2941 13.8527 11.3158 13.9804L11.513 13.947ZM10.8785 13.2424C11.2681 13.2431 11.6027 13.5115 11.6837 13.8843L11.8791 13.8419C11.7778 13.3753 11.3605 13.0433 10.8789 13.0424L10.8785 13.2424ZM10.624 13.2833C10.7062 13.2564 10.7922 13.2425 10.8789 13.2424L10.8785 13.0424C10.7708 13.0426 10.6639 13.0598 10.5617 13.0933L10.624 13.2833ZM10.3209 12.9235L10.5067 13.239L10.679 13.1375L10.4932 12.822L10.3209 12.9235ZM10.6129 12.1975C10.6126 12.4262 10.5139 12.6444 10.3407 12.7979L10.4733 12.9476C10.6889 12.7566 10.8125 12.4842 10.8129 12.1978L10.6129 12.1975ZM10.3424 11.5964C10.5152 11.7503 10.6133 11.9688 10.6129 12.1975L10.8129 12.1978C10.8133 11.9114 10.6905 11.6387 10.4755 11.4471L10.3424 11.5964ZM10.5055 11.1553L10.3224 11.4717L10.4955 11.5719L10.6786 11.2554L10.5055 11.1553ZM11.2892 11.0415C11.087 11.1563 10.8447 11.1813 10.6226 11.1101L10.5616 11.3006C10.8368 11.3888 11.1371 11.3579 11.388 11.2154L11.2892 11.0415ZM11.6826 10.5093C11.6341 10.7332 11.4913 10.9267 11.2892 11.0415L11.388 11.2154C11.639 11.0729 11.8173 10.8318 11.8781 10.5517L11.6826 10.5093ZM12.1508 10.4305H11.7803V10.6305H12.1508V10.4305ZM12.6422 11.0419C12.4399 10.9271 12.297 10.7334 12.2485 10.5094L12.053 10.5517C12.1137 10.832 12.2922 11.0733 12.5435 11.2158L12.6422 11.0419ZM13.3093 11.1101C13.0871 11.1816 12.8445 11.1567 12.6422 11.0419L12.5435 11.2158C12.7946 11.3584 13.0952 11.3891 13.3705 11.3005L13.3093 11.1101ZM13.6101 11.4701L13.4263 11.1549L13.2535 11.2557L13.4374 11.5709L13.6101 11.4701ZM13.3188 12.194C13.3186 11.9659 13.417 11.7482 13.59 11.5954L13.4576 11.4455C13.242 11.6359 13.1186 11.9081 13.1188 12.1941L13.3188 12.194ZM13.5909 12.7921C13.4177 12.6396 13.319 12.422 13.3188 12.194L13.1188 12.1941C13.119 12.4801 13.2429 12.7521 13.4587 12.9422L13.5909 12.7921ZM13.4251 13.2385L13.6113 12.9173L13.4383 12.817L13.252 13.1381L13.4251 13.2385ZM12.6414 13.3521C12.8436 13.2373 13.0859 13.2123 13.308 13.2835L13.3691 13.0931C13.0939 13.0048 12.7936 13.0357 12.5427 13.1782L12.6414 13.3521ZM12.248 13.8843C12.2966 13.6605 12.4393 13.4669 12.6414 13.3521L12.5427 13.1782C12.2917 13.3208 12.1133 13.5618 12.0526 13.8419L12.248 13.8843ZM11.7814 13.9631H12.1503V13.7631H11.7814V13.9631Z" fill="#67778B"/>
<path fill-rule="evenodd" clip-rule="evenodd" d="M11.1584 12.2122C11.1584 12.6469 11.5159 12.9993 11.9571 12.9994C12.398 12.9989 12.7554 12.6468 12.756 12.2123C12.756 11.7777 12.3984 11.4253 11.9573 11.4253C11.5161 11.4253 11.1585 11.7776 11.1584 12.2122ZM11.5693 12.054C11.6343 11.8996 11.7874 11.7989 11.9571 11.7989C12.1886 11.7993 12.3762 11.9842 12.3765 12.2123C12.3765 12.3796 12.2742 12.5303 12.1174 12.5943C11.9606 12.6583 11.7802 12.6229 11.6602 12.5046C11.5402 12.3863 11.5043 12.2085 11.5693 12.054Z" fill="#67778B"/>
<path fill-rule="evenodd" clip-rule="evenodd" d="M7.60767 8.80694C7.60775 9.47203 8.15501 10.0111 8.83 10.011C9.50465 10.0102 10.0513 9.4714 10.052 8.80665C10.052 8.14156 9.50469 7.60246 8.8297 7.60254C8.15471 7.60262 7.60758 8.14185 7.60767 8.80694ZM8.13799 8.80679C8.13791 8.43013 8.44773 8.12472 8.83 8.12464C9.2121 8.12497 9.52181 8.43001 9.52231 8.8065C9.52239 9.18316 9.21256 9.48857 8.8303 9.48865C8.44803 9.48873 8.13807 9.18345 8.13799 8.80679Z" fill="#67778B"/>
<path d="M8.83 10.011L8.83001 10.111L8.83013 10.111L8.83 10.011ZM7.60767 8.80694L7.70767 8.80693L7.60767 8.80694ZM10.052 8.80665L10.152 8.80676L10.152 8.80663L10.052 8.80665ZM8.8297 7.60254L8.82971 7.70254L8.8297 7.60254ZM8.83 8.12464L8.83008 8.02464L8.82998 8.02464L8.83 8.12464ZM8.13799 8.80679L8.03799 8.80682L8.13799 8.80679ZM9.52231 8.8065L9.62231 8.80648L9.62231 8.80637L9.52231 8.8065ZM8.8303 9.48865L8.83028 9.38865L8.8303 9.48865ZM8.82999 9.91105C8.20882 9.91112 7.70774 9.4154 7.70767 8.80693L7.50767 8.80695C7.50776 9.52866 8.10119 10.1111 8.83001 10.111L8.82999 9.91105ZM9.95203 8.80654C9.95136 9.41478 9.45078 9.91023 8.82987 9.91105L8.83013 10.111C9.55852 10.1101 10.1512 9.52803 10.152 8.80676L9.95203 8.80654ZM8.82971 7.70254C9.45088 7.70246 9.95196 8.19818 9.95203 8.80666L10.152 8.80663C10.1519 8.08493 9.55851 7.50245 8.82969 7.50254L8.82971 7.70254ZM7.70767 8.80693C7.70759 8.19845 8.20855 7.70261 8.82971 7.70254L8.82969 7.50254C8.10087 7.50263 7.50758 8.08524 7.50767 8.80695L7.70767 8.80693ZM8.82998 8.02464C8.39388 8.02473 8.03789 8.37354 8.03799 8.80682L8.23799 8.80677C8.23792 8.48673 8.50158 8.22471 8.83002 8.22464L8.82998 8.02464ZM9.62231 8.80637C9.62174 8.37335 9.26593 8.02501 8.83008 8.02464L8.82991 8.22464C9.15826 8.22492 9.42189 8.48667 9.42231 8.80663L9.62231 8.80637ZM8.83032 9.58865C9.26642 9.58856 9.6224 9.23976 9.62231 8.80648L9.42231 8.80652C9.42238 9.12657 9.15871 9.38858 8.83028 9.38865L8.83032 9.58865ZM8.03799 8.80682C8.03808 9.24009 8.39422 9.58874 8.83032 9.58865L8.83028 9.38865C8.50184 9.38872 8.23806 9.12682 8.23799 8.80677L8.03799 8.80682Z" fill="#67778B"/>
<path d="M14.0801 15.1497C14.0801 15.6705 14.5086 16.0928 15.0372 16.0928C15.5659 16.0928 15.9944 15.6705 15.9944 15.1497C15.9944 14.6288 15.5659 14.2065 15.0372 14.2065C14.5086 14.2065 14.0801 14.6288 14.0801 15.1497Z" fill="#67778B"/>
<path d="M15.0373 14.4678C14.6552 14.4679 14.3454 14.7732 14.3455 15.1497C14.3455 15.5263 14.6554 15.8315 15.0375 15.8315C15.4197 15.8315 15.7295 15.5262 15.7295 15.1496C15.729 14.7732 15.4194 14.4682 15.0373 14.4678Z" fill="#67778B"/>
<path d="M15.7295 15.1496H15.9795L15.9795 15.1493L15.7295 15.1496ZM15.0373 14.2178C14.5205 14.2179 14.0954 14.6317 14.0955 15.1498L14.5955 15.1497C14.5954 14.9147 14.7898 14.7178 15.0374 14.7178L15.0373 14.2178ZM14.0955 15.1498C14.0955 15.6679 14.5208 16.0815 15.0375 16.0815L15.0375 15.5815C14.7899 15.5815 14.5955 15.3847 14.5955 15.1497L14.0955 15.1498ZM15.0375 16.0815C15.5543 16.0815 15.9795 15.6677 15.9795 15.1496H15.4795C15.4795 15.3847 15.2851 15.5815 15.0375 15.5815L15.0375 16.0815ZM15.9795 15.1493C15.9788 14.6316 15.554 14.2183 15.0376 14.2178L15.0371 14.7178C15.2847 14.718 15.4792 14.9148 15.4795 15.15L15.9795 15.1493Z" fill="#67778B"/>
</g>
<defs>
<clipPath id="clip0_23391_64955">
<rect width="12" height="12" fill="white" transform="translate(6 6)"/>
</clipPath>
</defs>
</svg>
