<svg width="24" height="24" viewBox="0 0 24 24" fill="none" xmlns="http://www.w3.org/2000/svg">
<rect x="0.8" y="1.8" width="22.4" height="20.4" rx="1.6" stroke="white" stroke-width="1.6"/>
<path fill-rule="evenodd" clip-rule="evenodd" d="M15.8 5.00039C16.2418 5.00039 16.6 4.64222 16.6 4.20039C16.6 3.75856 16.2418 3.40039 15.8 3.40039C15.3582 3.40039 15 3.75856 15 4.20039C15 4.64222 15.3582 5.00039 15.8 5.00039Z" fill="white"/>
<path fill-rule="evenodd" clip-rule="evenodd" d="M18.1999 5.00039C18.6417 5.00039 18.9999 4.64222 18.9999 4.20039C18.9999 3.75856 18.6417 3.40039 18.1999 3.40039C17.7581 3.40039 17.3999 3.75856 17.3999 4.20039C17.3999 4.64222 17.7581 5.00039 18.1999 5.00039Z" fill="white"/>
<path fill-rule="evenodd" clip-rule="evenodd" d="M20.6 5.00039C21.0419 5.00039 21.4 4.64222 21.4 4.20039C21.4 3.75856 21.0419 3.40039 20.6 3.40039C20.1582 3.40039 19.8 3.75856 19.8 4.20039C19.8 4.64222 20.1582 5.00039 20.6 5.00039Z" fill="white"/>
<rect x="3.79995" y="6.40078" width="16.8" height="12.8" rx="1.8" stroke="white" stroke-width="1.2"/>
<path fill-rule="evenodd" clip-rule="evenodd" d="M15.1967 14.8763C15.3279 15 15.5902 15 15.7213 15C15.8525 15 15.9836 15 16.2459 14.8763L18.8689 12.4021C18.8689 12.3402 18.9016 12.2474 18.9344 12.1546C18.9672 12.0619 19 11.9691 19 11.9072C19 11.7835 18.8689 11.5361 18.7377 11.6598L16.1148 9.18557C15.8525 8.93814 15.459 8.93814 15.1967 9.18557C14.9344 9.43299 14.9344 9.80412 15.1967 10.0515L17.2951 12.0309L15.1967 14.0103C14.9344 14.2577 14.9344 14.6289 15.1967 14.8763ZM10.4776 16C10.3689 16 10.2601 16 10.2601 15.878C10.0427 15.7561 9.93392 15.3902 10.0427 15.0243L12.9787 9.29178C13.0874 9.04785 13.4136 8.92588 13.7399 9.04785C13.9573 9.29178 14.0661 9.65769 13.9573 10.0236L11.0213 15.7561C10.9126 15.878 10.6951 16 10.4776 16ZM8.27869 15C8.14754 15 7.88525 15 7.7541 14.8792L5.13115 12.4626C5.13115 12.4125 5.10865 12.3625 5.08228 12.3039C5.045 12.2209 5 12.1208 5 11.9793C5 11.9189 5.03279 11.8282 5.06557 11.7376C5.09836 11.647 5.13115 11.5564 5.13115 11.496L7.7541 9.07937C8.01639 8.95854 8.54098 8.95854 8.80328 9.2002C9.06557 9.44185 9.06557 9.80434 8.80328 10.046L6.57377 11.9793L8.67213 13.9125C8.93443 14.1542 8.93443 14.5167 8.67213 14.7583C8.67213 15 8.40984 15 8.27869 15Z" fill="white"/>
</svg>
