<?xml version="1.0" encoding="UTF-8"?>
<svg width="24px" height="24px" viewBox="0 0 24 24" version="1.1" xmlns="http://www.w3.org/2000/svg" xmlns:xlink="http://www.w3.org/1999/xlink">
    <!-- Generator: Sketch 52 (66869) - http://www.bohemiancoding.com/sketch -->
    <title>nav_ip</title>
    <desc>Created with Sketch.</desc>
    <g id="规范" stroke="none" stroke-width="1" fill="none" fill-rule="evenodd">
        <g id="图标" transform="translate(-773.000000, -435.000000)">
            <g id="分组-137" transform="translate(773.000000, 435.000000)">
                <g id="nav_ip">
                    <circle id="椭圆形" fill="#E3E7EC" fill-rule="nonzero" cx="12" cy="12" r="12"></circle>
                    <g id="网络应用" stroke-width="1" fill-rule="evenodd" transform="translate(5.000000, 5.000000)" fill="#67778B" stroke="#67778B">
                        <path d="M10.8263843,11.6506217 C10.8451485,11.0239342 10.8353911,10.4182614 10.7775975,9.85311681 C11.0357922,9.71652145 11.2316898,9.48460954 11.3217577,9.20241254 C11.7503308,9.17839578 12.1939152,9.1318633 12.6532614,9.06506666 C12.2802302,10.0820266 11.6475033,10.9736491 10.8263843,11.6506217 M5.69326498,12.8784788 C6.87840834,11.4742485 8.52064627,10.3394563 9.52715495,9.71577093 C9.67051302,9.83735581 9.84089145,9.92741867 10.0322857,9.96569539 C10.1020883,10.6546764 10.1110951,11.394693 10.0570544,12.1827431 C9.15937773,12.7141141 8.11609131,13.0248311 7,13.0248311 C6.55041109,13.0248311 6.11433239,12.9722943 5.69326498,12.8784788 M2.01849495,10.3844877 C2.15509794,9.72027407 2.48759856,8.54570408 3.23441152,7.25705446 C3.31622319,7.27581757 3.40028655,7.28782594 3.48735219,7.28782594 C3.66823853,7.28782594 3.83636527,7.24204398 3.98722898,7.16624108 C5.22716364,8.08188029 6.8881657,8.87443358 9.02802872,9.138618 C7.91268798,9.83510423 6.15336181,11.0817245 4.91793055,12.6473175 C3.73278719,12.2082609 2.71952339,11.4134561 2.01849495,10.3844877 M1.48859553,4.57468188 C1.72577431,4.92292499 2.03876023,5.33421211 2.43656009,5.76876549 C2.39002502,5.8918514 2.36150352,6.0231931 2.36150352,6.16204002 C2.36150352,6.42322235 2.45382311,6.65963741 2.60243512,6.85027049 C2.0417625,7.81244218 1.69500111,8.71757407 1.48784495,9.42456763 C1.15984772,8.68154892 0.974457969,7.86272729 0.974457969,7.00037528 C0.974457969,6.13727274 1.15984772,5.31770059 1.48859553,4.57468188 M4.43231448,1.5575756 C4.81585359,1.76321916 5.35400927,2.08819603 5.95746414,2.55952507 C5.89516719,2.69912252 5.85914002,2.85297994 5.85914002,3.01509311 C5.85914002,3.10665702 5.8726502,3.19371781 5.89366605,3.27927754 C5.08380558,3.84442206 4.41129866,4.46510539 3.85437884,5.10305073 C3.7387917,5.06252244 3.61644948,5.03625409 3.48735219,5.03625409 C3.28244772,5.03625409 3.09255458,5.09554549 2.92743011,5.19161256 C2.45007028,4.66099212 2.11306625,4.17615367 1.89239991,3.81815373 C2.50336045,2.84172207 3.38452467,2.05367192 4.43231448,1.5575756 M9.53991458,1.54406616 C8.9056865,1.73920239 8.31273955,1.95985643 7.77083105,2.21053143 C7.56742772,2.01239311 7.29121952,1.88930719 6.98498869,1.88930719 C6.80110006,1.88930719 6.62997106,1.93809124 6.47685566,2.01614574 C6.06329391,1.68891729 5.67450084,1.42173076 5.33749681,1.21383562 C5.86589512,1.06147926 6.42281492,0.97516901 7,0.97516901 C7.90818459,0.97516901 8.76683183,1.18306414 9.53991458,1.54406616 M4.44357298,5.57362926 C4.95545883,4.99272372 5.57092277,4.42757917 6.30872892,3.90971766 C6.49712094,4.05306773 6.72979631,4.14087904 6.98498869,4.14087904 C7.1688773,4.14087904 7.3400063,4.09284549 7.4931217,4.01479101 C8.35251952,5.00022895 9.15412377,6.28662701 9.63523644,7.92276921 C9.45735234,8.04060147 9.31549541,8.20796831 9.22692866,8.40460559 C7.22967312,8.17569579 5.68125594,7.45519278 4.51712842,6.61535649 C4.57792425,6.47650957 4.61320084,6.32415321 4.61320084,6.16204002 C4.61320084,5.94588912 4.54940275,5.74549925 4.44357298,5.57362926 M13.025542,7.00037528 C13.025542,7.43793074 12.9752541,7.86422835 12.8866874,8.27551547 C12.3327698,8.36933096 11.8073738,8.42336868 11.2999913,8.45188859 C11.1491276,8.06762033 10.79411,7.79142752 10.3677886,7.74789713 C9.84614541,5.94739018 8.96122837,4.53565462 8.01551548,3.46615801 C8.07631131,3.32806159 8.11083734,3.17570523 8.11083734,3.01509311 C8.11083734,2.97156271 8.10258113,2.9302839 8.09807773,2.88750405 C8.79835559,2.5640282 9.57594173,2.28408278 10.4435958,2.06342873 C12.0017703,3.15318951 13.025542,4.95819961 13.025542,7.00037528 M7,0 C3.13954525,0 0,3.14015048 0,7.00039009 C0,10.8598496 3.13954525,14 7,14 C10.8596745,14 14,10.8598496 14,7.00039009 C14,3.14015048 10.8596745,0 7,0" id="形状" stroke-width="0.3" fill-rule="nonzero"></path>
                    </g>
                </g>
            </g>
        </g>
    </g>
</svg>