<svg width="24" height="24" viewBox="0 0 24 24" fill="none" xmlns="http://www.w3.org/2000/svg">
<path d="M12 24C18.6274 24 24 18.6274 24 12C24 5.37258 18.6274 0 12 0C5.37258 0 0 5.37258 0 12C0 18.6274 5.37258 24 12 24Z" fill="#D9DDE4"/>
<path fill-rule="evenodd" clip-rule="evenodd" d="M17.863 8.767C17.9502 8.84589 18 8.95801 18 9.07563V14.8909C18 15.1722 17.7085 15.3063 17.4408 15.4295C17.3997 15.4484 17.3592 15.4671 17.3204 15.4859L12.2499 17.9518C12.1847 17.9835 12.113 18 12.0405 18C11.9936 18 11.9471 17.9931 11.9022 17.9796L11.8516 17.9644C11.8099 17.9518 11.7692 17.936 11.73 17.917L6.24121 15.2727C6.1206 15.2182 6 15.0545 6 14.8909V9.19175C6 9.03493 6.06635 8.88543 6.18265 8.78024C6.22149 8.7451 6.26511 8.71565 6.31221 8.69274L11.6866 6.07912C11.7936 6.02705 11.9111 6 12.0302 6C12.1492 6 12.2667 6.02705 12.3737 6.07912L17.7658 8.70138C17.8012 8.71855 17.8339 8.74065 17.863 8.767ZM6.96489 14.5637L11.4875 16.8V12.1091L6.96489 9.87274V14.5637ZM11.9698 11.2909L7.50754 9.10909L11.9698 6.92728L16.4322 9.10909L11.9698 11.2909ZM12.5126 16.8L17.0352 14.5636V9.81818L12.5126 12.0545V16.8Z" fill="#67778B"/>
<path d="M17.863 8.767L17.9301 8.69283V8.69283L17.863 8.767ZM17.4408 15.4295L17.4826 15.5203L17.4408 15.4295ZM17.3204 15.4859L17.3641 15.5759L17.3204 15.4859ZM12.2499 17.9518L12.2062 17.8618H12.2062L12.2499 17.9518ZM11.9022 17.9796L11.8734 18.0754L11.8734 18.0754L11.9022 17.9796ZM11.8516 17.9644L11.8805 17.8686H11.8805L11.8516 17.9644ZM11.73 17.917L11.7734 17.8269L11.73 17.917ZM6.24121 15.2727L6.28462 15.1826L6.28241 15.1816L6.24121 15.2727ZM6.18265 8.78024L6.11557 8.70608H6.11557L6.18265 8.78024ZM6.31221 8.69274L6.35594 8.78267L6.31221 8.69274ZM11.6866 6.07912L11.6428 5.98919L11.6866 6.07912ZM12.3737 6.07912L12.33 6.16905V6.16905L12.3737 6.07912ZM17.7658 8.70138L17.7221 8.79131L17.7221 8.79131L17.7658 8.70138ZM11.4875 16.8L11.4432 16.8897L11.5875 16.961V16.8H11.4875ZM6.96489 14.5637H6.86489V14.6258L6.92056 14.6533L6.96489 14.5637ZM11.4875 12.1091H11.5875V12.047L11.5318 12.0195L11.4875 12.1091ZM6.96489 9.87274L7.00921 9.7831L6.86489 9.71174V9.87274H6.96489ZM7.50754 9.10909L7.46361 9.01926L7.27987 9.10909L7.46361 9.19893L7.50754 9.10909ZM11.9698 11.2909L11.9259 11.3807L11.9698 11.4022L12.0138 11.3807L11.9698 11.2909ZM11.9698 6.92728L12.0138 6.83744L11.9698 6.81596L11.9259 6.83744L11.9698 6.92728ZM16.4322 9.10909L16.4761 9.19893L16.6598 9.10909L16.4761 9.01926L16.4322 9.10909ZM17.0352 14.5636L17.0795 14.6533L17.1352 14.6257V14.5636H17.0352ZM12.5126 16.8H12.4126V16.961L12.5569 16.8896L12.5126 16.8ZM17.0352 9.81818H17.1352V9.65717L16.9909 9.72854L17.0352 9.81818ZM12.5126 12.0545L12.4683 11.9649L12.4126 11.9924V12.0545H12.5126ZM18.1 9.07563C18.1 8.92975 18.0383 8.79069 17.9301 8.69283L17.7959 8.84116C17.8622 8.9011 17.9 8.98628 17.9 9.07563H18.1ZM18.1 14.8909V9.07563H17.9V14.8909H18.1ZM17.4826 15.5203C17.6137 15.46 17.7653 15.3909 17.8828 15.2979C18.0035 15.2025 18.1 15.0726 18.1 14.8909H17.9C17.9 14.9905 17.8508 15.0683 17.7588 15.1411C17.6636 15.2163 17.5357 15.2758 17.399 15.3386L17.4826 15.5203ZM17.3641 15.5759C17.4018 15.5575 17.4414 15.5393 17.4826 15.5203L17.399 15.3386C17.3581 15.3575 17.3166 15.3766 17.2766 15.396L17.3641 15.5759ZM12.2937 18.0417L17.3641 15.5759L17.2766 15.396L12.2062 17.8618L12.2937 18.0417ZM12.0405 18.1C12.1282 18.1 12.2148 18.0801 12.2937 18.0417L12.2062 17.8618C12.1546 17.887 12.0979 17.9 12.0405 17.9V18.1ZM11.8734 18.0754C11.9276 18.0917 11.9839 18.1 12.0405 18.1V17.9C12.0034 17.9 11.9666 17.8946 11.9311 17.8839L11.8734 18.0754ZM11.8228 18.0601L11.8734 18.0754L11.9311 17.8839L11.8805 17.8686L11.8228 18.0601ZM11.6866 18.0071C11.7305 18.0283 11.7761 18.046 11.8228 18.0601L11.8805 17.8686C11.8438 17.8575 11.8079 17.8436 11.7734 17.8269L11.6866 18.0071ZM6.1978 15.3628L11.6866 18.0071L11.7734 17.8269L6.28461 15.1826L6.1978 15.3628ZM5.9 14.8909C5.9 14.9966 5.93852 15.0973 5.99204 15.178C6.04521 15.2582 6.11893 15.3272 6.2 15.3638L6.28241 15.1816C6.24288 15.1637 6.196 15.1237 6.15871 15.0675C6.12178 15.0118 6.1 14.9489 6.1 14.8909H5.9ZM5.9 9.19175V14.8909H6.1V9.19175H5.9ZM6.11557 8.70608C5.97831 8.83023 5.9 9.00667 5.9 9.19175H6.1C6.1 9.06319 6.1544 8.94064 6.24974 8.8544L6.11557 8.70608ZM6.26847 8.60281C6.21289 8.62985 6.16141 8.66461 6.11557 8.70608L6.24974 8.8544C6.28158 8.8256 6.31733 8.80145 6.35594 8.78267L6.26847 8.60281ZM11.6428 5.98919L6.26847 8.60281L6.35594 8.78267L11.7303 6.16905L11.6428 5.98919ZM12.0302 5.9C11.896 5.9 11.7635 5.9305 11.6428 5.98919L11.7303 6.16905C11.8237 6.12361 11.9263 6.1 12.0302 6.1V5.9ZM12.4175 5.98919C12.2968 5.9305 12.1643 5.9 12.0302 5.9V6.1C12.134 6.1 12.2366 6.12361 12.33 6.16905L12.4175 5.98919ZM17.8096 8.61145L12.4175 5.98919L12.33 6.16905L17.7221 8.79131L17.8096 8.61145ZM17.9301 8.69283C17.894 8.66015 17.8534 8.63275 17.8096 8.61145L17.7221 8.79131C17.7489 8.80436 17.7738 8.82114 17.7959 8.84116L17.9301 8.69283ZM11.5318 16.7104L7.00921 14.474L6.92056 14.6533L11.4432 16.8897L11.5318 16.7104ZM11.3875 12.1091V16.8H11.5875V12.1091H11.3875ZM6.92056 9.96238L11.4432 12.1987L11.5318 12.0195L7.00921 9.7831L6.92056 9.96238ZM7.06489 14.5637V9.87274H6.86489V14.5637H7.06489ZM7.46361 9.19893L11.9259 11.3807L12.0138 11.2011L7.55146 9.01926L7.46361 9.19893ZM11.9259 6.83744L7.46361 9.01926L7.55146 9.19893L12.0138 7.01711L11.9259 6.83744ZM16.4761 9.01926L12.0138 6.83744L11.9259 7.01711L16.3882 9.19893L16.4761 9.01926ZM12.0138 11.3807L16.4761 9.19893L16.3882 9.01926L11.9259 11.2011L12.0138 11.3807ZM16.9909 14.474L12.4683 16.7104L12.5569 16.8896L17.0795 14.6533L16.9909 14.474ZM16.9352 9.81818V14.5636H17.1352V9.81818H16.9352ZM12.5569 12.1442L17.0795 9.90782L16.9909 9.72854L12.4683 11.9649L12.5569 12.1442ZM12.6126 16.8V12.0545H12.4126V16.8H12.6126Z" fill="#67778B"/>
</svg>
