<?xml version="1.0" encoding="UTF-8"?>
<svg width="60px" height="50px" viewBox="0 0 60 50" version="1.1" xmlns="http://www.w3.org/2000/svg" xmlns:xlink="http://www.w3.org/1999/xlink">
    <title>网络</title>
    <defs>
        <linearGradient x1="50%" y1="0%" x2="50%" y2="100%" id="linearGradient-1">
            <stop stop-color="#65A3FF" offset="0%"></stop>
            <stop stop-color="#3790FC" offset="100%"></stop>
        </linearGradient>
    </defs>
    <g id="规范" stroke="none" stroke-width="1" fill="none" fill-rule="evenodd">
        <g id="图标备份" transform="translate(-999.000000, -1809.000000)" fill-rule="nonzero">
            <g id="网络" transform="translate(999.000000, 1809.000000)">
                <rect id="矩形" stroke="#979797" fill="#D8D8D8" opacity="0" x="0.5" y="0.5" width="59" height="49" rx="8"></rect>
                <path d="M21.26836,23.88736 L28.91016,23.88736 L28.91016,16.89232 L22.14464,16.89232 C21.6088789,19.1869668 21.3151801,21.5314628 21.26836,23.88736 L21.26836,23.88736 Z M22.18492,32.6076 L28.9094,32.6076 L28.9094,25.43168 L21.26836,25.43168 C21.3155021,27.8496125 21.6227924,30.2554452 22.18492,32.6076 L22.18492,32.6076 Z M22.54972,15.34876 L28.9094,15.34876 L28.9094,6.02584 C28.3539592,6.05750325 27.8001568,6.11328921 27.24956,6.19304 C25.2158,8.63036 23.59168,11.76384 22.54972,15.34876 L22.54972,15.34876 Z M20.59652,16.89232 L12.80348,16.89232 C11.7664232,19.0880031 11.1623491,21.4630129 11.02432,23.88736 L19.72024,23.88736 C19.77344,21.44548 20.07744,19.09708 20.59652,16.89232 L20.59652,16.89232 Z M37.50956,16.89232 L30.29488,16.89232 L30.29488,23.88736 L38.32808,23.88736 C38.299196,21.5335628 38.0248718,19.1891982 37.50956,16.89232 L37.50956,16.89232 Z M46.37572,15.34876 C43.77956,10.95444 39.46656,7.6986 34.35784,6.50008 C36.22212,8.91156 37.70792,11.9318 38.66552,15.34876 L46.37572,15.34876 Z M32.54752,6.16796 C31.8006423,6.06728326 31.0484294,6.01119721 30.29488,6 L30.29488,15.34876 L37.12272,15.34876 C36.12028,11.77144 34.53644,8.63036 32.54752,6.16796 L32.54752,6.16796 Z M19.72024,25.43168 L11,25.43168 C11.057,27.9792 11.61332,30.40208 12.57776,32.6076 L20.6406,32.6076 C20.0771806,30.2555868 19.768616,27.849751 19.72024,25.43168 L19.72024,25.43168 Z M13.33624,34.15192 C15.97116,38.93688 20.6064,42.46556 26.1164,43.60936 C23.92456,41.14924 22.17048,37.89948 21.05632,34.15192 L13.33624,34.15192 L13.33624,34.15192 Z M25.40276,6.55556 C20.39816,7.79816 16.1794,11.02284 13.62276,15.34876 L21.0016,15.34876 C21.99112,11.94092 23.50808,8.93816 25.40276,6.55556 Z M33.09396,43.753 C38.949,42.79388 43.9042,39.16336 46.66376,34.15192 L38.45424,34.15192 C37.27092,37.99904 35.41044,41.30656 33.09396,43.753 L33.09396,43.753 Z M39.8762,23.88736 L48.97492,23.88736 C48.8367714,21.4631188 48.232973,19.0881787 47.19652,16.89232 L39.05844,16.89232 C39.5731637,19.1892816 39.8472291,21.5336111 39.8762,23.88736 L39.8762,23.88736 Z M30.29488,34.15192 L30.29488,44 C30.6473622,43.9943998 30.9996263,43.9791942 31.35128,43.9544 C33.75896,41.48972 35.68936,38.10544 36.90536,34.15192 L30.29488,34.15192 Z M27.92368,43.89208 C28.2517423,43.9279578 28.5806794,43.955327 28.91016,43.97416 L28.91016,34.15192 L22.6052,34.15192 C23.76268,38.04616 25.60948,41.40156 27.92368,43.89208 L27.92368,43.89208 Z M38.31896,25.43168 L30.29488,25.43168 L30.29488,32.6076 L37.3378,32.6076 C37.9231062,30.2580913 38.2520799,27.8520728 38.31896,25.43168 L38.31896,25.43168 Z M43.28708,25.43168 L39.8648,25.43168 C39.798037,27.8519862 39.4695786,30.257963 38.88516,32.6076 L47.42224,32.6076 C48.38668,30.40208 48.94224,27.9792 49,25.43168 L43.28708,25.43168 Z" id="Shape" fill="url(#linearGradient-1)"></path>
            </g>
        </g>
    </g>
</svg>