<svg width="24" height="24" viewBox="0 0 24 24" fill="none" xmlns="http://www.w3.org/2000/svg">
<path d="M12 22.3504C9.25503 22.3504 6.62247 21.2599 4.68147 19.3189C2.74047 17.3779 1.65002 14.7454 1.65002 12.0004C1.65002 9.2554 2.74047 6.62284 4.68147 4.68184C6.62247 2.74083 9.25503 1.65039 12 1.65039C14.745 1.65039 17.3776 2.74083 19.3186 4.68184C21.2596 6.62284 22.35 9.2554 22.35 12.0004C22.35 14.7454 21.2596 17.3779 19.3186 19.3189C17.3776 21.2599 14.745 22.3504 12 22.3504ZM12 20.8504C14.3472 20.8504 16.5982 19.918 18.2579 18.2583C19.9176 16.5986 20.85 14.3476 20.85 12.0004C20.85 9.65322 19.9176 7.40219 18.2579 5.7425C16.5982 4.0828 14.3472 3.15039 12 3.15039C9.65286 3.15039 7.40183 4.0828 5.74213 5.7425C4.08243 7.40219 3.15002 9.65322 3.15002 12.0004C3.15002 14.3476 4.08243 16.5986 5.74213 18.2583C7.40183 19.918 9.65286 20.8504 12 20.8504Z" fill="white"/>
<path d="M4.26965 5.33033L5.33045 4.26953L19.7305 18.6695L18.6697 19.7303L4.26965 5.33033Z" fill="white"/>
</svg>
