<?xml version="1.0" encoding="UTF-8"?>
<svg width="30px" height="30px" viewBox="0 0 30 30" version="1.1" xmlns="http://www.w3.org/2000/svg" xmlns:xlink="http://www.w3.org/1999/xlink">
    <!-- Generator: sketchtool 52 (66869) - http://www.bohemiancoding.com/sketch -->
    <title>35FCA241-D9C9-4B0B-BE23-8DD94A7C72F3</title>
    <desc>Created with sketchtool.</desc>
    <g id="键盘" stroke="none" stroke-width="1" fill="none" fill-rule="evenodd">
        <g id="FX键盘" transform="translate(-40.000000, -319.000000)" fill-rule="nonzero">
            <g id="icon_board_pose" transform="translate(40.000000, 319.000000)">
                <rect id="矩形-copy" stroke="#979797" fill="#D8D8D8" opacity="0" x="0.5" y="0.5" width="29" height="29" rx="1"></rect>
                <g id="路径-(1)" transform="translate(5.000000, 3.000000)" fill="#FFFFFF">
                    <path d="M6.63703702,9.14043154 C6.63703702,10.6548678 7.91053818,11.882561 9.48148147,11.882561 C11.0524248,11.882561 12.3259259,10.6548678 12.3259259,9.14043154 C12.3259259,7.62599525 11.0524248,6.39830207 9.48148147,6.39830207 C7.91053818,6.39830207 6.63703702,7.62599525 6.63703702,9.14043154 Z" id="Shape"></path>
                    <path d="M9.48148147,0 C4.26666667,0 0,4.2045985 0,9.32324018 C0,16.5441811 9.48148147,23.7651221 9.48148147,23.7651221 C9.48148147,23.7651221 18.9629629,16.5441811 18.962963,9.32324018 C18.962963,4.2045985 14.6962963,0 9.48148147,0 Z M9.48148147,21.3886098 C6.63703702,18.9206933 1.89629627,13.893456 1.89629631,9.41464449 C1.89629631,5.21004599 5.30962964,1.82808632 9.48148147,1.82808632 C13.6533333,1.82808632 17.0666667,5.21004599 17.0666667,9.32324018 C17.0666667,13.8020516 12.3259259,18.9206933 9.48148147,21.3886098 Z" id="Shape"></path>
                </g>
            </g>
        </g>
    </g>
</svg>