<?xml version="1.0" encoding="UTF-8"?>
<svg width="40px" height="40px" viewBox="0 0 40 40" version="1.1" xmlns="http://www.w3.org/2000/svg" xmlns:xlink="http://www.w3.org/1999/xlink">
    <!-- Generator: Sketch 52 (66869) - http://www.bohemiancoding.com/sketch -->
    <title>program_tree_n</title>
    <desc>Created with Sketch.</desc>
    <g id="规范" stroke="none" stroke-width="1" fill="none" fill-rule="evenodd">
        <g id="图标" transform="translate(-324.000000, -1005.000000)" fill="#9CA1A6">
            <g id="树状图-n" transform="translate(324.000000, 1005.000000)">
                <g id="树状图" transform="translate(12.000000, 11.000000)">
                    <path d="M12.4624889,15.4043275 L7.5909037,15.4043275 C6.68826667,15.4043275 5.97146667,14.7331565 5.97146667,13.9033451 L5.97146667,4.97066943 L4.89626667,4.97066943 L4.89626667,13.9033451 C4.89626667,15.2822964 6.10420741,16.3927793 7.60417778,16.3927793 L12.475763,16.3927793 L12.4624889,15.4043275 Z M1.11315556,3.97001451 L11.9315259,3.97001451 L11.9315259,0.992455959 L1.11315556,0.992455959 L1.11315556,3.97001451 Z M0.0246814815,3.97001451 L0.0246814815,0.992455959 C0.0246814815,0.443316062 0.502548148,0.00400414508 1.09988148,0.00400414508 L11.9182519,0.00400414508 C12.5155852,0.00400414508 12.9934519,0.443316062 12.9934519,0.992455959 L12.9934519,3.97001451 C12.9934519,4.5191544 12.5155852,4.95846632 11.9182519,4.95846632 L1.09988148,4.95846632 C0.502548148,4.95846632 0.0246814815,4.5191544 0.0246814815,3.97001451 Z M12.4624889,3.97001451 L1.11315556,3.97001451 L1.11315556,0.711784456 L12.4624889,0.711784456 L12.4624889,3.97001451 Z" id="Shape" fill-rule="nonzero"/>
                    <path d="M4.89626667,9.43700725 L12.4624889,9.43700725 L12.4624889,8.44855544 L4.89626667,8.44855544 L4.89626667,9.43700725 Z M16.789837,15.9046549 C16.789837,17.2714031 15.5818963,18.3940891 14.0819259,18.3940891 C12.5819556,18.3940891 11.3740148,17.2836062 11.3740148,15.9046549 C11.3740148,14.5257036 12.5819556,13.4152207 14.0819259,13.4152207 C15.5818963,13.4152207 16.789837,14.5257036 16.789837,15.9046549 Z M15.714637,15.9046549 C15.714637,15.0748435 14.984563,14.4158756 14.0952,14.4158756 C13.205837,14.4158756 12.475763,15.0870466 12.475763,15.9046549 C12.475763,16.7222632 13.205837,17.3934342 14.0952,17.3934342 C14.984563,17.3934342 15.714637,16.7222632 15.714637,15.9046549 Z" id="Shape" fill-rule="nonzero"/>
                    <path d="M16.789837,8.93667979 C16.789837,10.303428 15.5818963,11.426114 14.0819259,11.426114 C12.5819556,11.426114 11.3740148,10.3156311 11.3740148,8.93667979 C11.3740148,7.5577285 12.5819556,6.4472456 14.0819259,6.4472456 C15.5818963,6.4472456 16.789837,7.56993161 16.789837,8.93667979 Z M15.714637,8.93667979 C15.714637,8.10686839 14.984563,7.44790052 14.0952,7.44790052 C13.205837,7.44790052 12.475763,8.1190715 12.475763,8.93667979 C12.475763,9.75428808 13.205837,10.4254591 14.0952,10.4254591 C14.984563,10.4254591 15.714637,9.76649119 15.714637,8.93667979 Z" id="Shape" fill-rule="nonzero"/>
                </g>
            </g>
        </g>
    </g>
</svg>