<svg xmlns="http://www.w3.org/2000/svg" width="40" height="40" viewBox="0 0 40 40">
    <g fill="#FFF" fill-rule="evenodd">
        <path fill-rule="nonzero" d="M22.742 20.068a3.85 3.85 0 0 1-3.845 3.843 3.848 3.848 0 0 1-3.846-3.843 3.85 3.85 0 0 1 3.846-3.845 3.85 3.85 0 0 1 3.845 3.845z"/>
        <path d="M18.562 34.434c.328.135.704.06.955-.191l3.5-3.498a.875.875 0 1 0-1.238-1.238l-2.007 2.006V26.59a6.592 6.592 0 0 0 5.71-6.522 6.592 6.592 0 0 0-5.71-6.524V7.375a.875.875 0 0 0-1.75 0v6.986c0 .483.391.875.875.875a4.839 4.839 0 0 1 4.833 4.83 4.837 4.837 0 0 1-4.833 4.83.875.875 0 0 0-.876.875v5.744l-2.009-2.008a.876.876 0 1 0-1.238 1.238l3.503 3.5a.876.876 0 0 0 .285.189z"/>
    </g>
</svg>
