<svg xmlns="http://www.w3.org/2000/svg" width="40" height="40" viewBox="0 0 40 40">
    <path fill="#999" fill-rule="nonzero" d="M16.415 20.885h3.166l-.838-1.49-2.91-5.137a3.228 3.228 0 0 1-1.791-2.131c-.453-1.727.57-3.54 2.274-3.989 1.688-.468 3.462.573 3.92 2.3.424 1.645-.471 3.38-2.032 3.929l2.259 4.003 1.433 2.515h9.697c.552 0 .994.454.994 1.018 0 .268-.105.525-.29.715a.984.984 0 0 1-.704.296h-3.422v-.007h-3.366l-.069.007h-1.69l.852 1.496 1.702 3.02 1.72 3.008c.269.498.112 1.118-.369 1.4a.99.99 0 0 1-1.364-.374l-1.72-3.022-1.702-3.005-1.433-2.53h-2.187c.07.26.112.522.112.796v.013c0 .78-.325 1.502-.822 2.025a2.828 2.828 0 0 1-2.017.852H9.84c-.782 0-1.489-.333-2.002-.852A2.971 2.971 0 0 1 7 23.783v-.138a2.94 2.94 0 0 1 .838-1.98 2.799 2.799 0 0 1 2.002-.846h6.02c.2 0 .384.022.555.066zm2.67-10.13c-.3-1.084-1.394-1.735-2.472-1.446-1.065.288-1.703 1.415-1.42 2.507.286 1.084 1.394 1.735 2.459 1.438 1.061-.288 1.715-1.415 1.434-2.5zm-3.267 11.279H9.84c-.44 0-.864.188-1.15.499a1.664 1.664 0 0 0-.483 1.17v.013c0 .437.174.854.483 1.157.3.322.715.505 1.15.507h5.922c.043-.008.072-.008.115-.008a1.57 1.57 0 0 0 1.107-.5 1.67 1.67 0 0 0 .48-1.125v-.016l-.013-.015.013-.028v-.043a1.634 1.634 0 0 0-.48-1.112 1.623 1.623 0 0 0-1.138-.499h-.028z"/>
</svg>
