<svg width="50" height="50" viewBox="0 0 50 50" fill="none" xmlns="http://www.w3.org/2000/svg">
<path fill-rule="evenodd" clip-rule="evenodd" d="M25 44C35.4934 44 44 35.4934 44 25C44 14.5066 35.4934 6 25 6C14.5066 6 6 14.5066 6 25C6 35.4934 14.5066 44 25 44ZM20.6712 11.5858C19.8902 10.8047 18.6239 10.8047 17.8429 11.5858C17.0618 12.3668 17.0618 13.6332 17.8429 14.4142L23.2039 19.7753H17C15.8954 19.7753 15 20.6707 15 21.7753C15 22.8798 15.8954 23.7753 17 23.7753H23V27.7753H17C15.8954 27.7753 15 28.6707 15 29.7753C15 30.8798 15.8954 31.7753 17 31.7753H23V37.7753C23 38.8798 23.8954 39.7753 25 39.7753C26.1046 39.7753 27 38.8798 27 37.7753V31.7753H33C34.1046 31.7753 35 30.8798 35 29.7753C35 28.6707 34.1046 27.7753 33 27.7753H27V23.7753H33C34.1046 23.7753 35 22.8798 35 21.7753C35 20.6707 34.1046 19.7753 33 19.7753H26.7955L32.1565 14.4142C32.9376 13.6332 32.9376 12.3668 32.1565 11.5858C31.3755 10.8047 30.1092 10.8047 29.3281 11.5858L24.9997 15.9142L20.6712 11.5858Z" fill="url(#paint0_linear_20060_160702)"/>
<defs>
<linearGradient id="paint0_linear_20060_160702" x1="6" y1="6" x2="6" y2="44" gradientUnits="userSpaceOnUse">
<stop stop-color="#65A3FF"/>
<stop offset="1" stop-color="#3790FC"/>
</linearGradient>
</defs>
</svg>
