<svg width="16" height="16" viewBox="0 0 16 16" fill="none" xmlns="http://www.w3.org/2000/svg">
<path d="M13.5993 0.898586C12.1993 0.300375 10.1983 0 7.99872 0C5.79919 0 3.79859 0.300278 2.40071 0.898605C0.801923 1.59846 0 2.39796 0 3.39844V12.698C0 13.5991 0.799209 14.4978 2.40071 15.0987C3.80067 15.6994 5.80174 16 7.99872 16C10.1982 16 12.1993 15.6997 13.5993 15.0987C15.0987 14.498 16 13.5992 16 12.698V3.39844C16 2.40065 15.1983 1.59856 13.5993 0.898605V0.898586ZM12.698 4.99965C11.3969 5.50101 9.59735 5.69974 7.99857 5.69974C6.29819 5.69974 4.59753 5.49874 3.29924 4.99965C1.79979 4.59971 1.09976 3.99913 1.09976 3.40086C1.09976 2.80246 1.89897 2.20163 3.29924 1.70049C4.59775 1.20142 6.2979 1.00031 7.99857 1.00031C9.59739 1.00031 11.3996 1.30058 12.698 1.70049C14.0984 2.19952 14.8975 2.80037 14.8975 3.40086C14.8997 3.99911 14.1998 4.59992 12.698 4.99965ZM12.7996 7.89916C11.4985 8.29881 9.69894 8.59925 7.99824 8.59925C6.29754 8.59925 4.5972 8.29897 3.19965 7.89939C1.79926 7.40019 1.00013 6.79952 1.00013 6.19898V5.09911C2.00065 5.49876 2.7005 5.99771 3.80042 6.19898C5.10146 6.49926 6.50138 6.70034 8.00097 6.70034C9.50042 6.70034 10.9006 6.49934 12.2011 6.19898C13.301 5.99798 14.001 5.49889 15.0014 5.09911V6.29816C14.9991 6.79962 14.1998 7.40036 12.7997 7.89932L12.7996 7.89916ZM12.7996 11.0991C11.4985 11.4987 9.69894 11.7992 7.99824 11.7992C6.29754 11.7992 4.5972 11.4989 3.19965 11.0991C1.79926 10.6994 1.00013 10.0985 1.00013 9.39869V7.89924C2.00065 8.40059 2.7005 8.80058 3.80042 9.10074C5.10146 9.40102 6.50138 9.59981 8.00097 9.59981C9.50042 9.59981 10.9006 9.39881 12.2011 9.10074C13.301 8.80046 14.001 8.40065 15.0014 7.89924V9.39869C14.9991 10.0988 14.1998 10.6997 12.7997 11.0991H12.7996ZM7.99859 14.9988C6.29821 14.9988 4.59755 14.7009 3.2 14.2987C1.79961 13.8987 1.00048 13.2982 1.00048 12.5983V11.0989C2.001 11.5979 2.70085 12 3.80076 12.2979C5 12.5982 6.50173 12.7993 7.89956 12.7993C9.39901 12.7993 10.7991 12.5983 12.1001 12.2979C13.3016 11.9976 14.0017 11.5978 14.9997 11.0989V12.5983C14.9997 13.199 14.2004 13.7998 12.8002 14.2987C11.4992 14.7977 9.60022 14.9985 7.9989 14.9985L7.99859 14.9988Z" fill="#666666"/>
</svg>
