<svg width="36" height="36" viewBox="0 0 36 36" fill="none" xmlns="http://www.w3.org/2000/svg">
<rect x="0.5" y="0.5" width="35" height="35" rx="3.5" fill="white" stroke="#333333"/>
<g clip-path="url(#clip0_25904_44293)">
<path d="M20.4617 26.2598H12.9015C12.8301 26.2598 12.7595 26.242 12.6936 26.2074C12.6276 26.1728 12.5678 26.1222 12.5173 26.0583C12.4668 25.9944 12.4268 25.9186 12.3995 25.8352C12.3722 25.7517 12.3582 25.6623 12.3582 25.5719C12.3582 25.4816 12.3722 25.3922 12.3995 25.3087C12.4268 25.2253 12.4668 25.1494 12.5173 25.0856C12.5678 25.0217 12.6276 24.971 12.6936 24.9365C12.7595 24.9019 12.8301 24.8841 12.9015 24.8841H20.4617C21.5352 24.8841 22.5648 24.3442 23.3239 23.3832C24.083 22.4222 24.5095 21.1188 24.5095 19.7598C24.5095 18.4007 24.083 17.0973 23.3239 16.1363C22.5648 15.1753 21.5352 14.6354 20.4617 14.6354H11.1395C10.9954 14.6354 10.8572 14.563 10.7553 14.434C10.6534 14.305 10.5962 14.13 10.5962 13.9476C10.5962 13.7652 10.6534 13.5902 10.7553 13.4612C10.8572 13.3322 10.9954 13.2598 11.1395 13.2598H20.4617C21.8234 13.2598 23.1294 13.9446 24.0923 15.1636C25.0552 16.3826 25.5962 18.0359 25.5962 19.7598C25.5962 21.4837 25.0552 23.137 24.0923 24.356C23.1294 25.5749 21.8234 26.2598 20.4617 26.2598Z" fill="#333333"/>
<path d="M13.1627 17.9076C13.0024 17.909 12.8468 17.8491 12.7239 17.7386L9.24769 14.5873C9.17397 14.5193 9.11481 14.435 9.07425 14.3402C9.03369 14.2454 9.0127 14.1423 9.0127 14.0379C9.0127 13.9336 9.03369 13.8305 9.07425 13.7357C9.11481 13.6409 9.17397 13.5566 9.24769 13.4886L12.6902 10.2286C12.8261 10.1163 12.9967 10.0637 13.1675 10.0815C13.3382 10.0994 13.4962 10.1863 13.6094 10.3247C13.7225 10.463 13.7824 10.6424 13.7767 10.8264C13.7711 11.0104 13.7003 11.1852 13.5789 11.3153L10.7214 14.0198L13.6014 16.6278C13.708 16.7236 13.7845 16.8524 13.8203 16.9966C13.8561 17.1408 13.8496 17.2933 13.8016 17.4334C13.7536 17.5734 13.6664 17.6941 13.5521 17.779C13.4377 17.8639 13.3017 17.9088 13.1627 17.9076Z" fill="#333333"/>
</g>
<defs>
<clipPath id="clip0_25904_44293">
<rect width="17" height="17" fill="white" transform="translate(9 10)"/>
</clipPath>
</defs>
</svg>
