<?xml version="1.0" encoding="UTF-8"?>
<svg width="60px" height="50px" viewBox="0 0 60 50" version="1.1" xmlns="http://www.w3.org/2000/svg" xmlns:xlink="http://www.w3.org/1999/xlink">
    <title>机器管理</title>
    <defs>
        <linearGradient x1="50%" y1="0%" x2="50%" y2="100%" id="linearGradient-1">
            <stop stop-color="#65A3FF" offset="0%"></stop>
            <stop stop-color="#3790FC" offset="100%"></stop>
        </linearGradient>
    </defs>
    <g id="规范" stroke="none" stroke-width="1" fill="none" fill-rule="evenodd">
        <g id="图标备份" transform="translate(-612.000000, -1810.000000)" fill-rule="nonzero">
            <g id="机器管理" transform="translate(612.000000, 1810.000000)">
                <rect id="矩形" stroke="#979797" fill="#D8D8D8" opacity="0" x="0.5" y="0.5" width="59" height="49" rx="8"></rect>
                <path d="M52.0574496,42.0712633 L50.2664185,42.0712633 L50.2664185,39.1782082 C50.2664185,38.6454582 49.8444458,38.2137401 49.3238194,38.2137401 L45.5533739,38.2137401 C45.0327475,38.2137401 44.6107748,38.6454582 44.6107748,39.1782082 L44.6107748,42.0712633 L42.6570601,42.0712633 C42.198269,38.8043652 39.4453762,36.2849037 36.1271384,36.2849037 L34.6189505,36.2849037 C34.6189505,36.2849037 34.6119769,29.8938992 34.599249,29.8304861 C34.7119961,28.4007722 34.2362345,26.9310947 33.1694769,25.8397005 L28.1870973,20.742154 L34.0864739,14.7064825 C34.3711787,14.4155724 34.6113118,14.0823432 34.798751,13.7180661 L40.6517997,13.7180661 C41.172475,13.7180661 41.5944477,13.2862981 41.5944477,12.7536479 L41.5944477,11.7894292 L43.7938945,11.7894292 L43.7938945,12.7552943 C43.7939066,13.0998409 43.9735966,13.4182039 44.2652672,13.5904416 L47.5330809,15.5205752 C47.6763515,15.6053019 47.8389218,15.6498904 48.0044048,15.6498462 C48.167186,15.6498462 48.3298695,15.6067392 48.47568,15.5205752 L51.7434937,13.5903917 C52.1943847,13.3241165 52.3488756,12.7342398 52.0885136,12.2730353 C51.8282004,11.811781 51.2515905,11.6536723 50.8008945,11.9200473 L48.0044048,13.571732 L45.6791904,12.1983465 L45.6791904,9.45137609 L48.0044048,8.07799066 L50.8008945,9.72977515 C51.2517855,9.99615015 51.8282979,9.83804144 52.0885136,9.37683699 C52.3488756,8.91553276 52.1943847,8.32570595 51.7434937,8.05943072 L48.47568,6.12924719 C48.184055,5.9569176 47.8247059,5.9569176 47.5330809,6.12924719 L44.2652672,8.05943072 C43.9735889,8.23168482 43.7938992,8.55006622 43.7938945,8.89462788 L43.7938945,9.86049298 L41.5944477,9.86049298 L41.5944477,8.89607476 C41.5944477,8.36342453 41.172475,7.93170643 40.6517997,7.93170643 L32.5516597,7.93170643 C31.1507571,7.44331067 29.5363567,7.76905752 28.4210281,8.9100446 L21.5633498,15.9262495 C19.0249788,16.3861069 17.0903805,18.6579529 17.0903805,21.3850662 C17.0903805,23.2094282 17.9563194,24.8305788 19.2894859,25.8416962 C19.4595346,26.094048 19.6516152,26.3300918 19.8633649,26.5469239 L25.02574,31.8284234 L25.02574,36.2849037 L23.8730566,36.2849037 C20.5548676,36.2849037 17.8020236,38.8043153 17.343135,42.0712633 L15.3893715,42.0712633 L15.3893715,39.1782082 C15.3893715,38.6454582 14.9673988,38.2137401 14.4466748,38.2137401 L10.6762294,38.2137401 C10.155603,38.2137401 9.73358147,38.6454582 9.73358147,39.1782082 L9.73358147,42.0712633 L7.94259917,42.0712633 C7.42197271,42.0712633 7,42.5029814 7,43.0355319 C7,43.5682819 7.42197271,44 7.94259917,44 L52.0574008,44 C52.5780273,44 53,43.5682819 53,43.0355319 C53,42.5029814 52.5780273,42.0712633 52.0574496,42.0712633 Z M13.5040757,42.0712633 L11.6188286,42.0712633 L11.6188286,40.1424768 L13.5041244,40.1424768 L13.5041244,42.0712633 L13.5040757,42.0712633 Z M18.9753837,21.3850662 C18.9753837,19.3909706 20.5611097,17.7685727 22.5101916,17.7685727 C24.4593222,17.7685727 26.0450482,19.3910205 26.0450482,21.3850662 C26.0450482,23.3791119 24.4593222,25.0015597 22.5101916,25.0015597 C20.5610609,25.0015597 18.9753837,23.3791618 18.9753837,21.3850662 Z M48.3812202,42.0712633 L46.4959243,42.0712633 L46.4959243,40.1424768 L48.3812202,40.1424768 L48.3812202,42.0712633 Z" id="Shape" fill="url(#linearGradient-1)"></path>
            </g>
        </g>
    </g>
</svg>