<svg width="50" height="50" viewBox="0 0 50 50" fill="none" xmlns="http://www.w3.org/2000/svg">
<rect opacity="0.01" x="0.5" y="0.5" width="49" height="49" fill="#D8D8D8" stroke="#979797"/>
<path d="M25 45C36.0457 45 45 36.0457 45 25C45 13.9543 36.0457 5 25 5C13.9543 5 5 13.9543 5 25C5 36.0457 13.9543 45 25 45Z" fill="#E3E7EC"/>
<path d="M17 18.339C17 17.0441 17.8617 16.6115 18.9378 17.3824L28.1951 24.0132C29.2653 24.7797 29.2712 26.0184 28.1951 26.7892L18.9378 33.42C17.8676 34.1866 17 33.7562 17 32.4633V18.339Z" fill="#C0C0C0"/>
<path d="M33 18V32" stroke="#C0C0C0" stroke-linecap="round" stroke-dasharray="1 2"/>
<path d="M33 37C34.6569 37 36 35.6569 36 34C36 32.3431 34.6569 31 33 31C31.3431 31 30 32.3431 30 34C30 35.6569 31.3431 37 33 37Z" fill="#C0C0C0"/>
<path d="M33 20C34.6569 20 36 18.6569 36 17C36 15.3431 34.6569 14 33 14C31.3431 14 30 15.3431 30 17C30 18.6569 31.3431 20 33 20Z" fill="#C0C0C0"/>
</svg>
