<svg width="50" height="50" viewBox="0 0 50 50" fill="none" xmlns="http://www.w3.org/2000/svg">
<path d="M25 45C36.0457 45 45 36.0457 45 25C45 13.9543 36.0457 5 25 5C13.9543 5 5 13.9543 5 25C5 36.0457 13.9543 45 25 45Z" fill="#FF2424"/>
<path d="M28 10.5L16 27H25L21.5 40.5L34 23H25L28 10.5Z" fill="white" stroke="white" stroke-width="2" stroke-linecap="round" stroke-linejoin="round"/>
<path d="M16.5114 12.6901C15.788 11.8554 14.5249 11.7652 13.6901 12.4886C12.8554 13.212 12.7652 14.4751 13.4886 15.3099L16.5114 12.6901ZM32.9886 37.8099C33.712 38.6446 34.9751 38.7348 35.8099 38.0114C36.6446 37.288 36.7348 36.0249 36.0114 35.1901L32.9886 37.8099ZM13.4886 15.3099L32.9886 37.8099L36.0114 35.1901L16.5114 12.6901L13.4886 15.3099Z" fill="#FF2424"/>
<path d="M15.7557 13.3451C15.394 12.9277 14.7624 12.8826 14.3451 13.2443C13.9277 13.606 13.8826 14.2376 14.2443 14.6549L15.7557 13.3451ZM33.7443 37.1549C34.106 37.5723 34.7376 37.6174 35.1549 37.2557C35.5723 36.894 35.6174 36.2624 35.2557 35.8451L33.7443 37.1549ZM14.2443 14.6549L33.7443 37.1549L35.2557 35.8451L15.7557 13.3451L14.2443 14.6549Z" fill="white"/>
</svg>
