<?xml version="1.0" encoding="UTF-8"?>
<svg width="48px" height="48px" viewBox="0 0 48 48" version="1.1" xmlns="http://www.w3.org/2000/svg" xmlns:xlink="http://www.w3.org/1999/xlink">
    <!-- Generator: Sketch 52 (66869) - http://www.bohemiancoding.com/sketch -->
    <title>run_cycle_d</title>
    <desc>Created with Sketch.</desc>
    <g id="规范" stroke="none" stroke-width="1" fill="none" fill-rule="evenodd">
        <g id="图标" transform="translate(-92.000000, -1193.000000)" fill="#D0D0D0">
            <g id="分组-137" transform="translate(92.000000, 1193.000000)">
                <g id="循环-灰色">
                    <g transform="translate(12.000000, 14.000000)" id="Shape">
                        <path d="M21.7819787,4.247152 C20.3629529,2.82213876 18.4762837,2.03735184 16.4695268,2.03735184 L8.58484605,2.03735184 L8.58484605,0.522750917 C8.58484605,0.0390243671 8.25376535,-0.142028408 7.84913063,0.120398379 L4.21924876,2.47464181 C3.81461404,2.73703927 3.81855756,3.16021933 4.22804135,3.41496046 L7.84036725,5.66227951 C8.24985103,5.91702064 8.58484605,5.72969028 8.58484605,5.24596373 L8.58484605,3.73878444 L16.4694976,3.73878444 C19.6779483,3.73878444 22.288181,6.36006019 22.288181,9.58201929 C22.288181,10.1147639 22.2169639,10.6423455 22.0765161,11.1500677 C21.9512873,11.6027583 22.215182,12.071671 22.6659706,12.1974281 C22.7418323,12.2186077 22.8181322,12.2286987 22.8932052,12.2286987 C23.2642177,12.2286987 23.6047629,11.9819953 23.7089303,11.6054865 C23.89042,10.9494782 23.9824356,10.2686822 23.9824356,9.58201929 C23.9824648,7.56676579 23.2009753,5.67213591 21.7819787,4.247152 Z M20.3832255,15.7490781 L16.7708996,13.5017591 C16.3614158,13.2470179 16.0264208,13.4343483 16.0264208,13.9180749 L16.0264208,15.4252541 L7.51293795,15.4252541 C4.3045165,15.4252541 1.69425451,12.8040077 1.69425451,9.58201929 C1.69425451,8.45299155 2.01522811,7.35763986 2.62244309,6.41441709 C2.87646442,6.01986754 2.76385492,5.49322456 2.37099235,5.23816074 C1.97807136,4.98303825 1.45367037,5.09615224 1.19964904,5.49070179 C0.414829455,6.70975723 0,8.12450338 0,9.58201929 C0,11.5972435 0.7814895,13.4918733 2.20048608,14.9168866 C3.61951187,16.3418705 5.50618112,17.1266574 7.51293795,17.1266574 L16.0263916,17.1266574 L16.0263916,18.6412583 C16.0263916,19.1249849 16.3574723,19.3060377 16.762107,19.0436109 L20.3920181,16.6893968 C20.7966236,16.4269993 20.7927093,16.0038193 20.3832255,15.7490781 Z" fill-rule="nonzero"></path>
                    </g>
                </g>
            </g>
        </g>
    </g>
</svg>