<svg width="32" height="32" viewBox="0 0 32 32" fill="none" xmlns="http://www.w3.org/2000/svg">
<rect opacity="0.01" width="32" height="32" fill="#D8D8D8"/>
<path d="M13.6919 18.4249L18.4251 13.6916C18.4008 13.6075 18.387 13.5189 18.385 13.4291L18.3406 11.4017C18.3287 10.8425 18.772 10.3992 19.3312 10.4111L21.3581 10.455C21.627 10.4608 21.8872 10.5732 22.0815 10.7675C22.2758 10.9618 22.3882 11.2221 22.394 11.4909L22.4384 13.5174C22.4505 14.0769 22.0069 14.5206 21.4473 14.5084L19.4204 14.4645C19.3318 14.4624 19.2434 14.4487 19.1574 14.4239L14.4241 19.1571C14.4487 19.2431 14.4622 19.3313 14.4643 19.4197L14.5087 21.4471C14.5206 22.0063 14.0773 22.4496 13.5181 22.4377L11.4912 22.3938C11.2223 22.388 10.9621 22.2755 10.7678 22.0812C10.5735 21.887 10.4611 21.6267 10.4553 21.3578L10.4109 19.3314C10.3987 18.7718 10.8424 18.3282 11.4019 18.3404L13.4288 18.3843C13.5201 18.3867 13.6078 18.4006 13.6919 18.4249Z" fill="#333333"/>
</svg>
