<?xml version="1.0" encoding="UTF-8"?>
<svg width="32px" height="32px" viewBox="0 0 32 32" version="1.1" xmlns="http://www.w3.org/2000/svg" xmlns:xlink="http://www.w3.org/1999/xlink">
    <!-- Generator: Sketch 52 (66869) - http://www.bohemiancoding.com/sketch -->
    <title>script_movedrag_black</title>
    <desc>Created with Sketch.</desc>
    <g id="规范" stroke="none" stroke-width="1" fill="none" fill-rule="evenodd">
        <g id="图标" transform="translate(-372.000000, -689.000000)">
            <g id="分组-59" transform="translate(372.000000, 689.000000)">
                <g id="图标-拖拽运动">
                    <rect id="Rectangle-Copy" fill="#D8D8D8" opacity="0" x="0" y="0" width="32" height="32"></rect>
                    <g id="拖拽运动" stroke-width="1" transform="translate(8.000000, 8.000000)" fill="#333333">
                        <path d="M2.34066815,3.33079733 C1.78925612,3.33079733 1.34173719,2.8846147 1.34173719,2.33186637 C1.34173719,1.77911804 1.78925612,1.33293541 2.34066815,1.33293541 C2.89208018,1.33293541 3.33959911,1.77911804 3.33959911,2.33186637 C3.33959911,2.8846147 2.89208018,3.33079733 2.34066815,3.33079733 Z M2.34066815,0.0010155902 C1.05537639,0.0010155902 0.00983518931,1.04655679 0.00983518931,2.33184855 C0.00983518931,3.50392873 1.85585746,6.2143608 2.06629844,6.514049 C2.12889087,6.60728731 2.23144766,6.66056125 2.34066815,6.66056125 C2.44988864,6.66056125 2.55244543,6.60728731 2.61503786,6.514049 C2.82547884,6.2143608 4.67150111,3.50392873 4.67150111,2.33184855 C4.67151893,1.04657461 3.62595991,0.0010155902 2.34066815,0.0010155902 Z M4.62688641,6.72049889 L4.57893987,6.72049889 C4.30257461,6.68053452 3.98889978,6.66722494 3.67324722,6.66056125 L3.67258797,6.66056125 C3.48878396,6.66056125 3.33961693,6.514049 3.33961693,6.3275902 C3.33961693,6.1411314 3.49678396,5.98129176 3.67991091,5.99461915 C4.03419154,5.99461915 4.36783964,6.01459243 4.67351448,6.06122049 C4.85532294,6.08785746 4.9818441,6.25434298 4.95588419,6.4408196 C4.931902,6.60062361 4.78938085,6.72049889 4.62688641,6.72049889 Z M6.84652116,7.99248107 C6.73730067,7.99248107 6.63009354,7.93920713 6.56682405,7.83930512 C6.35305122,7.50633408 6.07868151,7.25991982 5.72705568,7.07346102 C5.56456125,6.98688641 5.50328731,6.78043653 5.58986192,6.6206147 C5.67643653,6.46079287 5.87821826,6.39419154 6.04005345,6.48076615 C6.48824944,6.7205167 6.85318486,7.05348775 7.12621826,7.4796971 C7.22544321,7.63287305 7.18148775,7.83930512 7.02699332,7.93920713 C6.97104677,7.97248998 6.90845434,7.99248107 6.84652116,7.99248107 Z M7.51780846,10.5364276 C7.34665479,10.5364276 7.2008196,10.4098886 7.1861559,10.2367394 C7.14086414,9.69731849 7.0862539,9.3044098 7.00767929,8.95811136 C6.96639644,8.77829844 7.07893096,8.60514922 7.25808463,8.55853898 C7.43522494,8.51857461 7.6156971,8.63178619 7.65699777,8.81159911 C7.74291314,9.19119822 7.80217372,9.61074388 7.84946102,10.1768018 C7.86544321,10.3632606 7.7289265,10.5231002 7.54578174,10.5364098 L7.51780846,10.5364098 L7.51780846,10.5364276 Z M7.78218263,13.1935857 C7.6276882,13.1935857 7.48849889,13.0870379 7.45653452,12.9271982 C7.35930512,12.4477149 7.31201782,11.9482405 7.28138976,11.5619955 C7.26674388,11.3821826 7.40326058,11.2223608 7.58706459,11.2023875 C7.76953229,11.1890601 7.93069042,11.3289265 7.94535412,11.5087216 C7.97398664,11.8749933 8.0192784,12.3544766 8.10918486,12.7940134 C8.14581737,12.9738263 8.02927394,13.1469755 7.84946102,13.186922 C7.82679733,13.1935857 7.80482851,13.1935857 7.78218263,13.1935857 Z M9.11942984,15.3912339 C9.0581559,15.3912339 8.99622272,15.3779065 8.94095323,15.3446236 C8.51673942,15.0715724 8.18775947,14.7186102 7.93336303,14.2724276 C7.84212027,14.1126058 7.89872606,13.9128196 8.05788864,13.8195813 C8.21838753,13.726343 8.42150557,13.7862806 8.51207127,13.9461203 C8.71185746,14.2990824 8.96890869,14.5721158 9.29922494,14.7785657 C9.45439644,14.8784499 9.49901114,15.0848998 9.40044543,15.2380757 C9.33719376,15.3379599 9.22930958,15.3912339 9.11942984,15.3912339 Z M11.6640356,15.9839287 C11.1565791,15.9839287 10.6910824,15.9439644 10.2801782,15.8573898 C10.099706,15.8240891 9.98382183,15.6442762 10.0197951,15.4644811 C10.0564276,15.2846682 10.2288998,15.1714566 10.4127038,15.2047572 C10.7803118,15.2780045 11.2011938,15.3179688 11.6640356,15.3179688 C11.8478396,15.3179688 11.9970067,15.4644811 11.9970067,15.6509399 C11.9970067,15.8374165 11.8478396,15.9839287 11.6640356,15.9839287 Z M12.9959376,11.322245 C12.0775947,11.322245 11.3310468,10.5763742 11.3310468,9.65735412 C11.3310468,8.73833408 12.0775768,7.99246325 12.9959376,7.99246325 C13.9142984,7.99246325 14.6608285,8.73833408 14.6608285,9.65735412 C14.6608285,10.5763742 13.9142984,11.322245 12.9959376,11.322245 Z M12.9959376,6.66056125 C11.3436971,6.66056125 9.99914477,8.00579065 9.99914477,9.65735412 C9.99914477,11.1757327 12.4318753,15.3512695 12.7089176,15.8174254 C12.7688552,15.9239733 12.8780757,15.9839109 12.9959376,15.9839109 C13.1138174,15.9839109 13.22302,15.9239733 13.2829577,15.8174254 C13.56,15.3512517 15.9927305,11.1757149 15.9927305,9.65735412 C15.9927305,8.00579065 14.6481782,6.66056125 12.9959376,6.66056125 Z" id="Shape" fill-rule="nonzero"></path>
                    </g>
                </g>
            </g>
        </g>
    </g>
</svg>