<?xml version="1.0" encoding="UTF-8"?>
<svg width="32px" height="32px" viewBox="0 0 32 32" version="1.1" xmlns="http://www.w3.org/2000/svg" xmlns:xlink="http://www.w3.org/1999/xlink">
    <!-- Generator: Sketch 52 (66869) - http://www.bohemiancoding.com/sketch -->
    <title>script_readinput_black</title>
    <desc>Created with Sketch.</desc>
    <g id="规范" stroke="none" stroke-width="1" fill="none" fill-rule="evenodd">
        <g id="图标" transform="translate(-180.000000, -631.000000)">
            <g id="分组-39" transform="translate(180.000000, 631.000000)">
                <g id="图标-读取输入">
                    <g id="读取输入" stroke-width="1" transform="translate(9.000000, 9.000000)" fill="#333333" stroke="#333333">
                        <polygon id="Shape" stroke-width="0.5" fill-rule="nonzero" points="7.54818619 11.9935272 7.54818619 6.06315789 6.57675761 6.06315789 6.57675761 11.9935272 5.2201819 10.6327272 4.53333333 11.3216779 7.0624719 13.8586466 9.59161047 11.3216779 8.9047619 10.6327272"></polygon>
                        <path d="M10.6539243,3.42100151 C10.41913,1.49400542 8.78460429,0 6.8,0 C4.81539571,0 3.18087,1.49400542 2.94607571,3.42100151 C1.30156857,3.53043068 0,4.89978135 0,6.57744361 C0,8.32648331 1.41350143,9.74436091 3.15714286,9.74436091 L4.85714286,9.74436091 L4.85714286,8.76992482 L3.15714286,8.76992482 C1.95186715,8.76992482 0.97142857,7.78645084 0.97142857,6.57744361 C0.97142857,5.42887579 1.86696428,4.46917805 3.01057857,4.39353745 L3.81266286,4.33977294 L3.91036429,3.53900573 C4.08871857,2.07686437 5.33052,0.974436088 6.8,0.974436088 C8.26948,0.974436088 9.51128143,2.07686435 9.68961143,3.53898135 L9.78731286,4.33974856 L10.5893972,4.39351307 C11.7330357,4.46917805 12.6285714,5.42887579 12.6285714,6.57744361 C12.6285714,7.78645083 11.6481329,8.76992482 10.4428571,8.76992482 L8.74285714,8.76992482 L8.74285714,9.74436091 L10.4428571,9.74436091 C12.1864986,9.74436091 13.6,8.32648331 13.6,6.57744361 C13.6,4.89978135 12.2984314,3.53043068 10.6539243,3.42100151 Z" id="Shape" stroke-width="0.5" fill-rule="nonzero"></path>
                    </g>
                    <rect id="Rectangle-Copy-4" fill="#D8D8D8" opacity="0" x="0" y="0" width="32" height="32"></rect>
                </g>
            </g>
        </g>
    </g>
</svg>