<?xml version="1.0" encoding="UTF-8"?>
<svg width="32px" height="32px" viewBox="0 0 32 32" version="1.1" xmlns="http://www.w3.org/2000/svg" xmlns:xlink="http://www.w3.org/1999/xlink">
    <!-- Generator: Sketch 52 (66869) - http://www.bohemiancoding.com/sketch -->
    <title>script_value_black</title>
    <desc>Created with Sketch.</desc>
    <g id="规范" stroke="none" stroke-width="1" fill="none" fill-rule="evenodd">
        <g id="图标" transform="translate(-84.000000, -689.000000)">
            <g id="分组-53" transform="translate(84.000000, 689.000000)">
                <g id="图标-设置变量">
                    <g id="设置变量" stroke-width="1" transform="translate(10.000000, 10.000000)" fill="#333333">
                        <path d="M11.8825616,0.00131780117 L0.9174384,0.00131780117 C0.412228518,0.00131780117 0.00367653647,0.407499752 0.00367653647,0.909736047 L0.00367653647,11.890264 C0.00367653647,12.3925002 0.412247793,12.7986822 0.9174384,12.7986822 L11.8825616,12.7986822 C12.3877137,12.7986822 12.7963235,12.3925002 12.7963235,11.890264 L12.7963235,0.909736047 C12.7963042,0.408878522 12.3876944,0.00131781988 11.8825616,0.00131780117 Z M10.5118995,0.909736047 C10.7644852,0.909736047 10.968819,1.11281744 10.968819,1.36396431 C10.968819,1.61505374 10.7645045,1.81817344 10.5118995,1.81817342 C10.2592946,1.8181734 10.0550186,1.61507286 10.0550186,1.36396431 C10.0550186,1.11419621 10.2592946,0.909736047 10.5118995,0.909736047 Z M8.68439505,0.909736047 C8.93698072,0.909736047 9.14127599,1.11281744 9.14127599,1.36396431 C9.14127599,1.61505374 8.937,1.81817344 8.68439505,1.81817342 C8.4317901,1.8181734 8.22751411,1.61507286 8.22751411,1.36396431 C8.22751411,1.11419621 8.4317901,0.909736047 8.68439505,0.909736047 Z M6.85689056,0.909736047 C7.10947624,0.909736047 7.3137715,1.11281744 7.3137715,1.36396431 C7.3137715,1.61505374 7.10949551,1.81817344 6.85689056,1.81817342 C6.60428561,1.8181734 6.40000962,1.61507286 6.40000964,1.36396431 C6.40000964,1.11419621 6.60428563,0.909736047 6.85689056,0.909736047 Z M11.7158277,11.2737812 C11.7158277,11.5172682 11.5177156,11.7141835 11.2728348,11.7141835 L1.52712664,11.7141835 C1.28224585,11.7141835 1.08417231,11.5172682 1.08417229,11.2737812 L1.08417229,2.84248498 L11.7158277,2.84248498 L11.7158084,11.2737812 L11.7158277,11.2737812 Z" id="Shape" fill-rule="nonzero"></path>
                        <g id="流程变量" transform="translate(1.600000, 5.600000)" fill-rule="nonzero">
                            <path d="M0.669658537,0.128501362 C0.618146341,0.0470844687 0.524487805,0.00588555858 0.388682927,0.00588555858 C0.318439024,0.00588555858 0.253814634,0.0245231608 0.192936585,0.0608174387 C0.132995122,0.0971117166 0.0852292683,0.145177112 0.0515121951,0.202070845 C0.017795122,0.259945504 -1.42108547e-14,0.317820163 -1.42108547e-14,0.376675749 C-1.42108547e-14,0.41493188 0.00655609756,0.460054496 0.0196682927,0.512043597 C0.0327804878,0.565013624 0.048702439,0.616021798 0.0674341463,0.666049046 C0.0861658537,0.716076294 0.104897561,0.767084469 0.122692683,0.817111717 L0.905678049,2.8427248 C0.983414634,3.03792916 1.03960976,3.16839237 1.07239024,3.23509537 C1.10517073,3.30081744 1.15668293,3.3626158 1.22599024,3.41754768 C1.29529756,3.47346049 1.38801951,3.50092643 1.5041561,3.50092643 C1.59406829,3.50092643 1.67086829,3.48326975 1.7345561,3.44697548 C1.79730732,3.41166213 1.85069268,3.36163488 1.89377561,3.29787466 C1.93685854,3.23411444 1.97619512,3.15662125 2.01084878,3.06637602 C2.04550244,2.97613079 2.07453659,2.90158038 2.09607805,2.8427248 L2.88374634,0.796512262 C2.90622439,0.739618529 2.9249561,0.689591281 2.94275122,0.645449591 C2.95960976,0.601307902 2.97459512,0.554223433 2.98770732,0.504196185 C3.00081951,0.454168937 3.00737561,0.410027248 3.00737561,0.371771117 C3.00737561,0.275640327 2.97084878,0.190299728 2.89779512,0.116730245 C2.82474146,0.0431607629 2.73576585,0.00686648501 2.63180488,0.00686648501 C2.5212878,0.00686648501 2.43980488,0.0411989101 2.38548293,0.108882834 C2.33116098,0.177547684 2.27590244,0.293297003 2.21970732,0.457111717 L1.5041561,2.49449591 L0.840117073,0.542452316 C0.777365854,0.348228883 0.720234146,0.209918256 0.669658537,0.128501362 Z M5.93233171,3.37634877 C6.01475122,3.45972752 6.09810732,3.50092643 6.18146341,3.50092643 C6.28167805,3.50092643 6.37159024,3.46463215 6.45026341,3.3920436 C6.52987317,3.31945504 6.56920976,3.23901907 6.56920976,3.15073569 C6.56920976,3.10070845 6.54392195,2.98790191 6.49240976,2.81231608 C6.44089756,2.63673025 6.41560976,2.46899183 6.41560976,2.30713896 C6.41748293,2.13547684 6.4193561,1.97852861 6.42029268,1.83825613 C6.42122927,1.69798365 6.42216585,1.52632153 6.42216585,1.32523161 C6.42216585,1.00643052 6.38001951,0.750408719 6.29479024,0.557166213 C6.20956098,0.363923706 6.06345366,0.2226703 5.85740488,0.133405995 C5.6513561,0.0441416894 5.36757073,0 5.00698537,0 C4.68386341,0 4.41506341,0.0461035422 4.1987122,0.138310627 C3.98236098,0.230517711 3.82314146,0.348228883 3.72105366,0.491444142 C3.61896585,0.634659401 3.56745366,0.780817439 3.56745366,0.931880109 C3.56745366,1.0280109 3.60117073,1.10746594 3.66860488,1.16926431 C3.73603902,1.23106267 3.81564878,1.26245232 3.90743415,1.26245232 C4.00952195,1.26245232 4.07601951,1.24283379 4.10692683,1.20457766 C4.13783415,1.1653406 4.19121951,1.08588556 4.26614634,0.963269755 C4.34107317,0.841634877 4.43192195,0.750408719 4.53681951,0.689591281 C4.64171707,0.628773842 4.79906341,0.598365123 5.00698537,0.598365123 C5.24956098,0.598365123 5.40971707,0.65133515 5.48651707,0.757275204 C5.56331707,0.863215259 5.60733659,1.02997275 5.61763902,1.25656676 C5.44530732,1.30953678 5.28515122,1.35367847 5.13810732,1.38997275 C4.99106341,1.42626703 4.81404878,1.46746594 4.60706341,1.51160763 C4.40101463,1.55574932 4.27176585,1.58419619 4.21931707,1.59694823 C3.97112195,1.65384196 3.77537561,1.76468665 3.63301463,1.93046322 C3.49065366,2.09623978 3.41947317,2.29634877 3.41947317,2.53177112 C3.41947317,2.70637602 3.4625561,2.86724796 3.54872195,3.01634877 C3.6348878,3.16544959 3.75758049,3.28316076 3.9168,3.37046322 C4.07601951,3.45776567 4.26146341,3.50092643 4.47125854,3.50092643 C4.70165854,3.50092643 4.90958049,3.46070845 5.09502439,3.37929155 C5.28046829,3.29885559 5.47246829,3.17722071 5.67102439,3.01536785 C5.76280976,3.173297 5.8499122,3.29395095 5.93233171,3.37634877 Z M5.61670244,1.89514986 C5.61670244,2.1933515 5.57923902,2.40719346 5.50524878,2.53765668 C5.44062439,2.65536785 5.34040976,2.75149864 5.20273171,2.82604905 C5.06505366,2.90059946 4.9152,2.93787466 4.75317073,2.93787466 C4.60050732,2.93787466 4.47781463,2.89177112 4.38321951,2.80054496 C4.28862439,2.7093188 4.24179512,2.59847411 4.24179512,2.4680109 C4.24179512,2.34245232 4.28206829,2.24435967 4.36167805,2.17373297 C4.44222439,2.10310627 4.52558049,2.0560218 4.6145561,2.03247956 C4.70259512,2.0079564 4.86181463,1.9706812 5.09127805,1.9186921 C5.32074146,1.86768392 5.49588293,1.8186376 5.61576585,1.77253406 L5.61576585,1.89514986 L5.61670244,1.89514986 Z M8.09397073,1.60381471 C8.10989268,1.42430518 8.13892683,1.2693188 8.18107317,1.13983651 C8.22321951,1.0093733 8.28222439,0.911280654 8.3580878,0.845558583 C8.43395122,0.779836512 8.53229268,0.746485014 8.6531122,0.746485014 C8.74115122,0.746485014 8.84323902,0.766103542 8.95843902,0.804359673 C9.07363902,0.84359673 9.14669268,0.862234332 9.17666341,0.862234332 C9.25720976,0.862234332 9.3312,0.827901907 9.40050732,0.760217984 C9.46981463,0.691553134 9.50446829,0.605231608 9.50446829,0.50027248 C9.50446829,0.351171662 9.42298537,0.231498638 9.2609561,0.141253406 C9.09892683,0.0510081744 8.93127805,0.00588555858 8.75894634,0.00588555858 C8.58661463,0.00588555858 8.44893659,0.0510081744 8.3459122,0.141253406 C8.2428878,0.231498638 8.14173659,0.364904632 8.04339512,0.54147139 C8.03777561,0.364904632 8.00405854,0.231498638 7.94411707,0.141253406 C7.88417561,0.0510081744 7.78583415,0.00588555858 7.64909268,0.00588555858 C7.38216585,0.00588555858 7.24917073,0.199128065 7.24917073,0.585613079 L7.24917073,2.97907357 C7.24917073,3.15073569 7.28757073,3.28119891 7.36343415,3.36948229 C7.43929756,3.45776567 7.53670244,3.50190736 7.6547122,3.50190736 C7.77459512,3.50190736 7.87387317,3.45874659 7.95254634,3.37144414 C8.03028293,3.28414169 8.06961951,3.15367847 8.06961951,2.97907357 L8.06961951,2.26103542 C8.06961951,2.00207084 8.07804878,1.78332425 8.09397073,1.60381471 Z" id="Shape"></path>
                        </g>
                    </g>
                    <rect id="Rectangle-Copy-13" fill="#D8D8D8" opacity="0" x="0" y="0" width="32" height="32"></rect>
                </g>
            </g>
        </g>
    </g>
</svg>