<svg width="16" height="11" viewBox="0 0 16 11" fill="none" xmlns="http://www.w3.org/2000/svg">
<path d="M9 11C10.1046 11 11 10.1046 11 9C11 7.89543 10.1046 7 9 7C7.89543 7 7 7.89543 7 9C7 10.1046 7.89543 11 9 11Z" fill="#333333"/>
<path d="M13.5 5C14.8807 5 16 3.88071 16 2.5C16 1.11929 14.8807 0 13.5 0C12.1193 0 11 1.11929 11 2.5C11 3.88071 12.1193 5 13.5 5Z" fill="#333333"/>
<path d="M4.5 6C5.32843 6 6 5.32843 6 4.5C6 3.67157 5.32843 3 4.5 3C3.67157 3 3 3.67157 3 4.5C3 5.32843 3.67157 6 4.5 6Z" fill="#333333"/>
<path d="M1.5 10C2.32843 10 3 9.32843 3 8.5C3 7.67157 2.32843 7 1.5 7C0.671573 7 0 7.67157 0 8.5C0 9.32843 0.671573 10 1.5 10Z" fill="#333333"/>
<path d="M1.5 8.5L4.5 4.5" stroke="#333333" stroke-width="1.2" stroke-linecap="square"/>
<path d="M4.5 4.5L9 9" stroke="#333333" stroke-width="1.2" stroke-linecap="square"/>
<path d="M9 9L13.5 2.5" stroke="#333333" stroke-width="1.2" stroke-linecap="square"/>
</svg>
