<svg width="32" height="32" viewBox="0 0 32 32" fill="none" xmlns="http://www.w3.org/2000/svg">
<rect opacity="0.01" width="32" height="32" fill="#D8D8D8"/>
<path d="M15.6712 11.0756C15.9055 10.8413 16.2854 10.8413 16.5197 11.0756L21.328 15.884C21.5624 16.1183 21.5624 16.4982 21.328 16.7325C21.0937 16.9668 20.7138 16.9668 20.4795 16.7325L15.6712 11.9242C15.4369 11.6898 15.4369 11.3099 15.6712 11.0756Z" fill="#333333"/>
<path d="M11.075 15.6713C11.3093 15.437 11.6892 15.437 11.9235 15.6713L16.7319 20.4797C16.9662 20.714 16.9662 21.0939 16.7319 21.3282C16.4975 21.5625 16.1176 21.5625 15.8833 21.3282L11.075 16.5199C10.8407 16.2855 10.8407 15.9056 11.075 15.6713Z" fill="#333333"/>
<path d="M17.6598 14.1957C17.8942 13.9614 18.2741 13.9614 18.5084 14.1957C18.7427 14.4301 18.7427 14.81 18.5084 15.0443L14.7607 18.7919C14.5264 19.0263 14.1465 19.0263 13.9122 18.7919C13.6779 18.5576 13.6779 18.1777 13.9122 17.9434L17.6598 14.1957Z" fill="#333333"/>
<path d="M18.5261 10.4829C18.7604 10.2485 19.1403 10.2485 19.3746 10.4829L21.9202 13.0284C22.1545 13.2628 22.1545 13.6427 21.9202 13.877C21.6859 14.1113 21.306 14.1113 21.0716 13.877L18.5261 11.3314C18.2917 11.0971 18.2917 10.7172 18.5261 10.4829Z" fill="#333333"/>
<path d="M10.4827 18.5268C10.717 18.2925 11.0969 18.2925 11.3312 18.5268L13.8768 21.0724C14.1111 21.3067 14.1111 21.6866 13.8768 21.9209C13.6425 22.1552 13.2626 22.1552 13.0283 21.9209L10.4827 19.3753C10.2484 19.141 10.2484 18.7611 10.4827 18.5268Z" fill="#333333"/>
</svg>
