<?xml version="1.0" encoding="UTF-8"?>
<svg width="32px" height="32px" viewBox="0 0 32 32" version="1.1" xmlns="http://www.w3.org/2000/svg" xmlns:xlink="http://www.w3.org/1999/xlink">
    <!-- Generator: Sketch 52 (66869) - http://www.bohemiancoding.com/sketch -->
    <title>script_explain_black</title>
    <desc>Created with Sketch.</desc>
    <g id="规范" stroke="none" stroke-width="1" fill="none" fill-rule="evenodd">
        <g id="图标" transform="translate(-84.000000, -749.000000)">
            <g id="分组-77" transform="translate(84.000000, 749.000000)">
                <g id="图标-注释">
                    <rect id="Rectangle-Copy-11" fill="#D8D8D8" opacity="0" x="0" y="0" width="32" height="32"></rect>
                    <g id="标签" stroke-width="1" transform="translate(9.000000, 9.000000)" fill="#333333" stroke="#333333">
                        <path d="M12.3342757,5.1606433 L12.3342757,2.05908454 C12.3307806,0.923412278 11.4076664,0.00510928747 10.271301,0.00686185567 L2.06693592,0.00686185567 C0.92824001,0.00744365763 0.00512651886,0.929524969 0.00396116505,2.0675299 L0.00396116505,12.3254763 C0.00339927576,12.8723544 0.220601132,13.3969798 0.607636269,13.7835822 C0.994671407,14.1701846 1.51972634,14.386986 2.06693592,14.3861443 L4.08026408,14.3861443 L4.08026408,13.356866 L2.06693592,13.356866 C1.7924966,13.3577083 1.52902399,13.2492713 1.33476704,13.0555284 C1.1405101,12.8617854 1.03146926,12.5986947 1.03175146,12.3244206 L1.03175146,2.0675299 C1.03291709,1.49657237 1.49668736,1.03450074 2.06799223,1.03508454 L10.2723573,1.03508454 C10.845934,1.03508454 11.3064854,1.49641237 11.3064854,2.05908454 L11.3064854,5.1606433 L12.3342757,5.1606433 Z M11.5,7.5 L11,8 L6.26048932,12.7561897 L5.53374757,12.0298887 L6.26048932,12.7561897 L6.44006214,13.1045608 C6.41787961,13.2861361 6.4559068,13.3273072 6.63970485,13.3030268 L6.98828738,13.4824907 L7.71502913,14.2098474 L6.98828738,13.4824907 L12.1367456,8.5 L12.8634874,9.0624 L10.6853748,6.88244124 L11.5,7.5 Z M11.4110602,6.15614021 L13.5902291,8.3350433 L7.71502913,14.2098474 L6.7632932,14.3228041 C5.91930097,14.4241485 5.31720388,13.8276948 5.42072233,12.9789361 L5.53480388,12.0298887 L11.4110602,6.15614021 Z M3.60069903,4.11447423 L8.73753786,4.11447423 C9.02106262,4.11447423 9.25090485,3.88477138 9.25090485,3.60141856 C9.25090485,3.31806573 9.02106262,3.08836289 8.73753786,3.08836289 L3.60069903,3.08836289 C3.31717427,3.08836289 3.08733204,3.31806573 3.08733204,3.60141856 C3.08733204,3.88477138 3.31717427,4.11447423 3.60069903,4.11447423 Z M3.60069903,7.19491959 L7.71186019,7.19491959 C7.89526856,7.1949196 8.06474488,7.09713174 8.15644907,6.93839176 C8.24815325,6.77965178 8.24815325,6.58407606 8.15644907,6.42533608 C8.06474488,6.2665961 7.89526856,6.16880824 7.71186019,6.16880825 L3.60069903,6.16880825 C3.41729066,6.16880824 3.24781434,6.2665961 3.15611016,6.42533608 C3.06440597,6.58407606 3.06440597,6.77965178 3.15611016,6.93839176 C3.24781434,7.09713174 3.41729066,7.1949196 3.60069903,7.19491959 Z M3.60069903,10.2774763 L4.62743301,10.2774763 C4.91095777,10.2774763 5.1408,10.0477734 5.1408,9.76442062 C5.1408,9.4810678 4.91095777,9.25136495 4.62743301,9.25136495 L3.60069903,9.25136495 C3.40943082,9.23909622 3.22719753,9.3341125 3.12784253,9.49791191 C3.02848754,9.66171132 3.02848754,9.86712992 3.12784253,10.0309293 C3.22719753,10.1947287 3.40943082,10.289745 3.60069903,10.2774763 Z" id="Shape" stroke-width="0.3" fill-rule="nonzero"></path>
                    </g>
                </g>
            </g>
        </g>
    </g>
</svg>