<?xml version="1.0" encoding="UTF-8"?>
<svg width="32px" height="32px" viewBox="0 0 32 32" version="1.1" xmlns="http://www.w3.org/2000/svg" xmlns:xlink="http://www.w3.org/1999/xlink">
    <!-- Generator: Sketch 52 (66869) - http://www.bohemiancoding.com/sketch -->
    <title>script_stringadd_black</title>
    <desc>Created with Sketch.</desc>
    <g id="规范" stroke="none" stroke-width="1" fill="none" fill-rule="evenodd">
        <g id="图标" transform="translate(-756.000000, -689.000000)">
            <g id="分组-67" transform="translate(756.000000, 689.000000)">
                <g id="图标-字符串连接">
                    <g id="字符串连接" stroke-width="1" transform="translate(9.000000, 9.000000)" fill="#333333">
                        <path d="M12.3926786,10.8514286 C12.3926786,11.7096429 11.6951786,12.4071429 10.8369643,12.4071429 L9.23303571,12.4071429 L9.23303571,13.185 L10.8369643,13.185 C12.1226786,13.185 13.1705357,12.13875 13.1705357,10.8514286 L13.1705357,9.2475 L12.3926786,9.2475 L12.3926786,10.8514286 Z M3.44892857,12.4071429 C2.59071429,12.4071429 1.89321429,11.7096429 1.89321429,10.8514286 L1.89321429,9.2475 L1.11535714,9.2475 L1.11535714,10.8514286 C1.11535714,12.1371429 2.16160714,13.185 3.44892857,13.185 L5.14928571,13.185 L5.14928571,12.4071429 L3.44892857,12.4071429 Z M10.8369643,1.90928571 C11.6951786,1.90928571 12.3926786,2.60678571 12.3926786,3.465 L12.3926786,5.16535714 L13.1705357,5.16535714 L13.1705357,3.46339286 C13.1705357,2.17767857 12.1242857,1.12982143 10.8369643,1.12982143 L9.23303571,1.12982143 L9.23303571,1.90767857 L10.8369643,1.90767857 L10.8369643,1.90928571 Z M1.89482143,3.46339286 C1.89482143,2.60517857 2.59232143,1.90767857 3.45053571,1.90767857 L5.15089286,1.90767857 L5.15089286,1.12982143 L3.44892857,1.12982143 C2.16321429,1.12982143 1.11535714,2.17607143 1.11535714,3.46339286 L1.11535714,5.16375 L1.89321429,5.16375 L1.89321429,3.46339286 L1.89482143,3.46339286 Z" id="Shape" stroke="#333333" stroke-width="0.5" fill-rule="nonzero"></path>
                        <path d="M8.30892857,0.0128571429 L6.07339286,0.0128571429 C5.83232143,0.0128571429 5.63625,0.208928571 5.63625,0.45 L5.63625,2.68553571 C5.63625,2.92660714 5.83232143,3.12267857 6.07339286,3.12267857 L8.30892857,3.12267857 C8.55,3.12267857 8.74607143,2.92660714 8.74607143,2.68553571 L8.74607143,0.45 C8.74767857,0.208928571 8.55160714,0.0128571429 8.30892857,0.0128571429 Z M8.30892857,11.2885714 L6.07339286,11.2885714 C5.83232143,11.2885714 5.63625,11.4846429 5.63625,11.7257143 L5.63625,13.9628571 C5.63625,14.2039286 5.83232143,14.4 6.07339286,14.4 L8.30892857,14.4 C8.55,14.4 8.74607143,14.2039286 8.74607143,13.9628571 L8.74607143,11.7273214 C8.74767857,11.4846429 8.55160714,11.2885714 8.30892857,11.2885714 Z M13.9467857,5.65071429 L11.71125,5.65071429 C11.4701786,5.65071429 11.2741071,5.84678571 11.2741071,6.08785714 L11.2741071,8.32339286 C11.2741071,8.56446429 11.4701786,8.76053571 11.71125,8.76053571 L13.9467857,8.76053571 C14.1878571,8.76053571 14.3839286,8.56446429 14.3839286,8.32339286 L14.3839286,6.08785714 C14.3855357,5.84678571 14.1878571,5.65071429 13.9467857,5.65071429 Z M2.67267857,5.65071429 L0.437142857,5.65071429 C0.196071429,5.65071429 0,5.84678571 0,6.08785714 L0,8.32339286 C0,8.56446429 0.196071429,8.76053571 0.437142857,8.76053571 L2.67267857,8.76053571 C2.91375,8.76053571 3.10982143,8.56446429 3.10982143,8.32339286 L3.10982143,6.08785714 C3.10982143,5.84678571 2.91375,5.65071429 2.67267857,5.65071429 Z" id="Shape" fill-rule="nonzero"></path>
                    </g>
                    <rect id="Rectangle-Copy-12" fill="#D8D8D8" opacity="0" x="0" y="0" width="32" height="32"></rect>
                </g>
            </g>
        </g>
    </g>
</svg>