<svg width="32" height="32" viewBox="0 0 32 32" fill="none" xmlns="http://www.w3.org/2000/svg">
  <g transform = "translate(9,9)">
    <path d="M11.375 0.875H2.625C1.6625 0.875 0.875 1.6625 0.875 2.625V9.625C0.875 10.5875 1.6625 11.375 2.625 11.375H4.375L6.2125 13.0375C6.3 13.125 6.3875 13.125 6.475 13.125C6.7375 13.125 7 12.95 7 12.6V11.375H11.375C12.3375 11.375 13.125 10.5875 13.125 9.625V2.625C13.125 1.6625 12.3375 0.875 11.375 0.875ZM12.25 9.625C12.25 10.15 11.9 10.5 11.375 10.5H7C6.7375 10.5 6.5625 10.5875 6.3875 10.7625C6.2125 10.9375 6.125 11.1125 6.125 11.375V11.8125L4.9875 10.7625C4.8125 10.5875 4.55 10.5 4.375 10.5H2.625C2.1 10.5 1.75 10.15 1.75 9.625V2.625C1.75 2.1 2.1 1.75 2.625 1.75H11.375C11.9 1.75 12.25 2.1 12.25 2.625V9.625ZM10.0625 4.375H3.9375C3.675 4.375 3.5 4.55 3.5 4.8125C3.5 5.075 3.675 5.25 3.9375 5.25H10.0625C10.325 5.25 10.5 5.075 10.5 4.8125C10.5 4.55 10.325 4.375 10.0625 4.375ZM10.0625 7H3.9375C3.675 7 3.5 7.175 3.5 7.4375C3.5 7.7 3.675 7.875 3.9375 7.875H10.0625C10.325 7.875 10.5 7.7 10.5 7.4375C10.5 7.175 10.325 7 10.0625 7Z" fill="#333333"/>
  </g>
</svg>
