<?xml version="1.0" encoding="UTF-8"?>
<svg width="32px" height="32px" viewBox="0 0 32 32" version="1.1" xmlns="http://www.w3.org/2000/svg" xmlns:xlink="http://www.w3.org/1999/xlink">
    <!-- Generator: Sketch 52 (66869) - http://www.bohemiancoding.com/sketch -->
    <title>script_script_black</title>
    <desc>Created with Sketch.</desc>
    <g id="规范" stroke="none" stroke-width="1" fill="none" fill-rule="evenodd">
        <g id="图标" transform="translate(-564.000000, -631.000000)">
            <g id="分组-47" transform="translate(564.000000, 631.000000)">
                <g id="图标-脚本">
                    <g id="脚本" stroke-width="1" transform="translate(10.000000, 10.000000)" fill="#333333">
                        <path d="M11.8825616,0.00131780117 L0.9174384,0.00131780117 C0.412228518,0.00131780117 0.00367653647,0.407499752 0.00367653647,0.909736047 L0.00367653647,11.890264 C0.00367653647,12.3925002 0.412247793,12.7986822 0.9174384,12.7986822 L11.8825616,12.7986822 C12.3877137,12.7986822 12.7963235,12.3925002 12.7963235,11.890264 L12.7963235,0.909736047 C12.7963042,0.408878522 12.3876944,0.00131781988 11.8825616,0.00131780117 Z M10.5118995,0.909736047 C10.7644852,0.909736047 10.968819,1.11281744 10.968819,1.36396431 C10.968819,1.61505374 10.7645045,1.81817344 10.5118995,1.81817342 C10.2592946,1.8181734 10.0550186,1.61507286 10.0550186,1.36396431 C10.0550186,1.11419621 10.2592946,0.909736047 10.5118995,0.909736047 Z M8.68439505,0.909736047 C8.93698072,0.909736047 9.14127599,1.11281744 9.14127599,1.36396431 C9.14127599,1.61505374 8.937,1.81817344 8.68439505,1.81817342 C8.4317901,1.8181734 8.22751411,1.61507286 8.22751411,1.36396431 C8.22751411,1.11419621 8.4317901,0.909736047 8.68439505,0.909736047 Z M6.85689056,0.909736047 C7.10947624,0.909736047 7.3137715,1.11281744 7.3137715,1.36396431 C7.3137715,1.61505374 7.10949551,1.81817344 6.85689056,1.81817342 C6.60428561,1.8181734 6.40000962,1.61507286 6.40000964,1.36396431 C6.40000964,1.11419621 6.60428563,0.909736047 6.85689056,0.909736047 Z M11.7158277,11.2737812 C11.7158277,11.5172682 11.5177156,11.7141835 11.2728348,11.7141835 L1.52712664,11.7141835 C1.28224585,11.7141835 1.08417231,11.5172682 1.08417229,11.2737812 L1.08417229,2.84248498 L11.7158277,2.84248498 L11.7158084,11.2737812 L11.7158277,11.2737812 Z M8.48258462,9.16583268 C8.63221367,9.29336895 8.87580388,9.29336895 9.0254329,9.16583268 L10.9427379,7.53112797 C11.0181303,7.4668428 11.0552679,7.38279525 11.0552679,7.29870939 C11.0552679,7.21466184 11.0181303,7.13063343 10.9427379,7.06632911 L9.0254329,5.4316244 C8.87580386,5.30404983 8.63221365,5.30404983 8.48258462,5.4316244 C8.33295558,5.55917983 8.33295558,5.76687628 8.48258462,5.89445083 L10.1296212,7.29869025 L8.48258462,8.70300626 C8.33295558,8.83056168 8.33295558,9.03825813 8.48258462,9.16583268 Z M5.04011514,9.97373472 C5.22148834,10.0642931 5.46881544,9.93834627 5.59326872,9.69214001 L7.78945239,5.32733573 C7.91390568,5.08111031 7.86788821,4.8086691 7.68655352,4.71809155 C7.50518033,4.62751399 7.25785323,4.7534034 7.13339994,4.99970541 L4.93717777,9.36447137 C4.81274374,9.61067765 4.85878048,9.88311886 5.04011514,9.97373472 Z M4.26741062,9.16583268 C4.41703966,9.03825811 4.41703966,8.83056167 4.26741062,8.7030254 L2.620374,7.29870939 L4.26741062,5.89446999 C4.41703966,5.76687628 4.41703966,5.55919897 4.26741062,5.43164355 C4.11778157,5.30406898 3.87421064,5.30406898 3.72456233,5.43164355 L1.80727657,7.06634828 C1.73186492,7.13063345 1.6947466,7.214681 1.6947466,7.29872855 C1.6947466,7.38281441 1.73186492,7.4668428 1.80727657,7.53114712 L3.72456233,9.16585183 C3.87421064,9.29336895 4.11778159,9.29336895 4.26741062,9.16583268 Z" id="Shape" fill-rule="nonzero"></path>
                    </g>
                    <rect id="Rectangle-Copy-13" fill="#D8D8D8" opacity="0" x="0" y="0" width="32" height="32"></rect>
                </g>
            </g>
        </g>
    </g>
</svg>