<svg width="32" height="32" viewBox="0 0 32 32" fill="none" xmlns="http://www.w3.org/2000/svg">
<rect opacity="0.01" x="0.5" y="0.5" width="31" height="31" rx="1.5" fill="#D8D8D8" stroke="#979797"/>
<path d="M11.3126 14.7319L10.375 15.1783L9.08047 15.7948C8.85046 15.9043 8.85302 16.2325 9.08471 16.3385L15.8754 19.4429C15.9546 19.4791 16.0457 19.4791 16.1249 19.4429L22.9156 16.3385C23.1472 16.2325 23.1498 15.9043 22.9198 15.7948L21.6252 15.1783L20.6877 14.7319" stroke="#333333" stroke-width="1.2" stroke-linecap="round"/>
<path d="M11.3126 17.7319L10.375 18.1783L9.08047 18.7948C8.85046 18.9043 8.85302 19.2325 9.08471 19.3385L15.8754 22.4429C15.9546 22.4791 16.0457 22.4791 16.1249 22.4429L22.9156 19.3385C23.1472 19.2325 23.1498 18.9043 22.9198 18.7948L21.6252 18.1783L20.6877 17.7319" stroke="#333333" stroke-width="1.2" stroke-linecap="round"/>
<path fill-rule="evenodd" clip-rule="evenodd" d="M16.1291 9.56141C16.0475 9.52256 15.9528 9.52256 15.8712 9.56141L9.08047 12.7949C8.85046 12.9044 8.85302 13.2327 9.08471 13.3386L15.8754 16.443C15.9546 16.4792 16.0457 16.4792 16.1249 16.443L22.9156 13.3386C23.1472 13.2327 23.1498 12.9044 22.9198 12.7949L16.1291 9.56141Z" stroke="#333333" stroke-width="1.2"/>
</svg>
