<?xml version="1.0" encoding="UTF-8"?>
<svg width="32px" height="32px" viewBox="0 0 32 32" version="1.1" xmlns="http://www.w3.org/2000/svg" xmlns:xlink="http://www.w3.org/1999/xlink">
    <!-- Generator: Sketch 52 (66869) - http://www.bohemiancoding.com/sketch -->
    <title>script_cycle_black</title>
    <desc>Created with Sketch.</desc>
    <g id="规范" stroke="none" stroke-width="1" fill="none" fill-rule="evenodd">
        <g id="图标" transform="translate(-180.000000, -749.000000)">
            <g id="分组-75" transform="translate(180.000000, 749.000000)">
                <g id="图标-循环">
                    <rect id="Rectangle-Copy-15" fill="#D8D8D8" opacity="0" x="0" y="0" width="32" height="32"></rect>
                    <g id="循环" stroke-width="1" transform="translate(8.000000, 10.000000)" fill="#333333" stroke="#333333">
                        <path d="M13.7963938,2.66570795 C12.8976775,1.77507467 11.702787,1.28458284 10.431841,1.28458284 L5.43820981,1.28458284 L5.43820981,0.337957268 C5.43820981,0.0356281739 5.22852537,-0.0775298107 4.97225672,0.0864869311 L2.67333153,1.55788908 C2.41706287,1.72188749 2.41956044,1.98637502 2.67890017,2.14558824 L4.96670657,3.55016264 C5.2260463,3.70937585 5.43820981,3.59229437 5.43820981,3.28996527 L5.43820981,2.34797822 L10.4318225,2.34797822 C12.4638412,2.34797822 14.1169886,3.98627556 14.1169886,6 C14.1169886,6.33296535 14.0718845,6.66270391 13.9829342,6.98003028 C13.9036226,7.26296191 14.0707559,7.55603229 14.3562554,7.63463052 C14.4043011,7.64786773 14.4526244,7.65417466 14.5001706,7.65417466 C14.7351452,7.65417466 14.9508238,7.49998499 15.0167965,7.26466698 C15.13174,6.8546618 15.1900165,6.42916431 15.1900165,6 C15.190035,4.74046656 14.6950917,3.55632289 13.7963938,2.66570795 Z M12.9105168,9.85441176 L10.6227104,8.44983736 C10.3633707,8.29062415 10.1512072,8.40770563 10.1512072,8.71003473 L10.1512072,9.65202178 L4.75933469,9.65202178 C2.72733443,9.65202178 1.07416851,8.01374277 1.07416851,6 C1.07416851,5.29435766 1.27745179,4.60976286 1.66202127,4.02024862 C1.82290145,3.77365516 1.7515821,3.44450329 1.50276914,3.28508841 C1.25391918,3.12563685 0.921798553,3.19633309 0.760918376,3.44292656 C0.263865971,4.20483621 0.00114064978,5.08905256 0.00114064978,6 C0.00114064978,7.2595151 0.496084,8.44365878 1.39478183,9.33429205 C2.29349817,10.224907 3.48838869,10.7153988 4.75933469,10.7153988 L10.1511887,10.7153988 L10.1511887,11.6620244 C10.1511887,11.9643535 10.3608731,12.0775115 10.6171418,11.9134947 L12.9160855,10.4421109 C13.1723356,10.2781125 13.1698566,10.013625 12.9105168,9.85441176 Z" id="Shape" stroke-width="0.3" fill-rule="nonzero"></path>
                    </g>
                </g>
            </g>
        </g>
    </g>
</svg>