<svg width="32" height="32" viewBox="0 0 32 32" fill="none" xmlns="http://www.w3.org/2000/svg">
<rect opacity="0.01" width="32" height="32" fill="#D8D8D8"/>
<path d="M15.6711 11.0749C15.9054 10.8406 16.2853 10.8406 16.5197 11.0749L21.328 15.8832C21.5623 16.1175 21.5623 16.4974 21.328 16.7318C21.0937 16.9661 20.7138 16.9661 20.4795 16.7318L15.6711 11.9234C15.4368 11.6891 15.4368 11.3092 15.6711 11.0749Z" fill="#333333"/>
<path d="M11.0749 15.6711C11.3093 15.4368 11.6892 15.4368 11.9235 15.6711L16.7318 20.4794C16.9661 20.7137 16.9661 21.0936 16.7318 21.3279C16.4975 21.5623 16.1176 21.5623 15.8833 21.3279L11.0749 16.5196C10.8406 16.2853 10.8406 15.9054 11.0749 15.6711Z" fill="#333333"/>
<path d="M17.6598 14.195C17.8942 13.9607 18.2741 13.9607 18.5084 14.195C18.7427 14.4293 18.7427 14.8092 18.5084 15.0435L14.7607 18.7912C14.5264 19.0255 14.1465 19.0255 13.9122 18.7912C13.6779 18.5569 13.6779 18.177 13.9122 17.9427L17.6598 14.195Z" fill="#333333"/>
<path d="M18.5261 10.4827C18.7604 10.2484 19.1403 10.2484 19.3746 10.4827L21.9202 13.0283C22.1545 13.2626 22.1545 13.6425 21.9202 13.8768C21.6859 14.1112 21.306 14.1112 21.0716 13.8768L18.5261 11.3313C18.2917 11.0969 18.2917 10.7171 18.5261 10.4827Z" fill="#333333"/>
<path d="M10.4827 18.5261C10.717 18.2918 11.0969 18.2918 11.3312 18.5261L13.8768 21.0717C14.1111 21.306 14.1111 21.6859 13.8768 21.9202C13.6425 22.1545 13.2626 22.1545 13.0283 21.9202L10.4827 19.3746C10.2484 19.1403 10.2484 18.7604 10.4827 18.5261Z" fill="#333333"/>
</svg>
