<?xml version="1.0" encoding="UTF-8"?>
<svg width="32px" height="32px" viewBox="0 0 32 32" version="1.1" xmlns="http://www.w3.org/2000/svg" xmlns:xlink="http://www.w3.org/1999/xlink">
    <!-- Generator: Sketch 52 (66869) - http://www.bohemiancoding.com/sketch -->
    <title>script_move_black</title>
    <desc>Created with Sketch.</desc>
    <g id="规范" stroke="none" stroke-width="1" fill="none" fill-rule="evenodd">
        <g id="图标" transform="translate(-372.000000, -689.000000)">
            <g id="分组-59" transform="translate(372.000000, 689.000000)">
                <g id="图标-move">
                    <rect id="Rectangle-Copy" fill="#D8D8D8" opacity="0" x="0" y="0" width="32" height="32"></rect>
                    <g id="拖拽运动" stroke-width="1" transform="translate(7.000000, 7.000000)" fill="#333333">
                        <path d="M2.63325167,3.74714699 C2.01291314,3.74714699 1.50945434,3.24519154 1.50945434,2.62334967 C1.50945434,2.0015078 2.01291314,1.49955234 2.63325167,1.49955234 C3.2535902,1.49955234 3.757049,2.0015078 3.757049,2.62334967 C3.757049,3.24519154 3.2535902,3.74714699 2.63325167,3.74714699 Z M2.63325167,0.00114253898 C1.18729844,0.00114253898 0.011064588,1.17737639 0.011064588,2.62332962 C0.011064588,3.94191982 2.08783964,6.9911559 2.32458575,7.32830512 C2.39500223,7.43319822 2.51037862,7.4931314 2.63325167,7.4931314 C2.75612472,7.4931314 2.87150111,7.43319822 2.94191759,7.32830512 C3.1786637,6.9911559 5.25543875,3.94191982 5.25543875,2.62332962 C5.2554588,1.17739644 4.0792049,0.00114253898 2.63325167,0.00114253898 Z M5.20524722,7.56056125 L5.15130735,7.56056125 C4.84039644,7.51560134 4.48751225,7.50062806 4.13240312,7.4931314 L4.13166147,7.4931314 C3.92488196,7.4931314 3.75706904,7.32830512 3.75706904,7.11853898 C3.75706904,6.90877283 3.93388196,6.72895323 4.13989978,6.74394655 C4.53846548,6.74394655 4.9138196,6.76641648 5.25770379,6.81887305 C5.46223831,6.84883964 5.60457461,7.03613586 5.57536971,7.24592205 C5.54838976,7.42570156 5.38805345,7.56056125 5.20524722,7.56056125 Z M7.7023363,8.9915412 C7.57946325,8.9915412 7.45885523,8.93160802 7.38767706,8.81921826 C7.14718263,8.44462584 6.8385167,8.1674098 6.44293764,7.95764365 C6.2601314,7.86024722 6.19119822,7.62799109 6.28859465,7.44819154 C6.38599109,7.26839198 6.61299555,7.19346548 6.79506013,7.29086192 C7.29928062,7.56058129 7.70983296,7.93517372 8.01699555,8.41465924 C8.12862361,8.58698218 8.07917372,8.81921826 7.90536748,8.93160802 C7.84242762,8.96905122 7.77201114,8.9915412 7.7023363,8.9915412 Z M8.45753452,11.8534811 C8.26498664,11.8534811 8.10092205,11.7111247 8.08442539,11.5163318 C8.03347216,10.9094833 7.97203563,10.467461 7.8836392,10.0778753 C7.83719599,9.87558575 7.96379733,9.68079287 8.16534521,9.62835635 C8.36462806,9.58339644 8.56765924,9.71075947 8.61412249,9.913049 C8.71077728,10.340098 8.77744543,10.8120869 8.83064365,11.448902 C8.84862361,11.6586682 8.69504232,11.8384878 8.48900445,11.853461 L8.45753452,11.853461 L8.45753452,11.8534811 Z M8.75495546,14.842784 C8.58114922,14.842784 8.42456125,14.7229176 8.38860134,14.543098 C8.27921826,14.0036793 8.22602004,13.4417706 8.19156347,13.007245 C8.17508686,12.8049555 8.32866815,12.6251559 8.53544766,12.602686 C8.74072383,12.5876927 8.92202673,12.7450423 8.93852339,12.9473118 C8.97073497,13.3593675 9.0216882,13.8987862 9.12283296,14.393265 C9.16404454,14.5955546 9.03293318,14.7903474 8.83064365,14.8352873 C8.80514699,14.842784 8.78043207,14.842784 8.75495546,14.842784 Z M10.2593586,17.3151381 C10.1904254,17.3151381 10.1207506,17.3001448 10.0585724,17.2627016 C9.58133185,16.9555189 9.2112294,16.5584365 8.92503341,16.0564811 C8.8223853,15.8766815 8.88606682,15.651922 9.06512472,15.547029 C9.24568597,15.4421359 9.47419376,15.5095657 9.57608018,15.6893853 C9.80083964,16.0864677 10.0900223,16.3936303 10.4616281,16.6258864 C10.636196,16.7382561 10.6863875,16.9705122 10.5755011,17.1428352 C10.504343,17.2552049 10.3829733,17.3151381 10.2593586,17.3151381 Z M13.1220401,17.9819198 C12.5511514,17.9819198 12.0274677,17.9369599 11.5652004,17.8395635 C11.3621693,17.8021002 11.2317996,17.5998107 11.2722695,17.3975412 C11.3134811,17.1952517 11.5075122,17.0678886 11.7142918,17.1053519 C12.1278508,17.187755 12.601343,17.2327149 13.1220401,17.2327149 C13.3288196,17.2327149 13.4966325,17.3975412 13.4966325,17.6073073 C13.4966325,17.8170935 13.3288196,17.9819198 13.1220401,17.9819198 Z M14.6204298,12.7375256 C13.587294,12.7375256 12.7474276,11.8984209 12.7474276,10.8645234 C12.7474276,9.83062584 13.5872739,8.99152116 14.6204298,8.99152116 C15.6535857,8.99152116 16.4934321,9.83062584 16.4934321,10.8645234 C16.4934321,11.8984209 15.6535857,12.7375256 14.6204298,12.7375256 Z M14.6204298,7.4931314 C12.7616592,7.4931314 11.2490379,9.00651448 11.2490379,10.8645234 C11.2490379,12.5726993 13.9858597,17.2701782 14.2975323,17.7946036 C14.3649621,17.9144699 14.4878352,17.9818998 14.6204298,17.9818998 C14.7530445,17.9818998 14.8758976,17.9144699 14.9433274,17.7946036 C15.255,17.2701581 17.9918218,12.5726793 17.9918218,10.8645234 C17.9918218,9.00651448 16.4792004,7.4931314 14.6204298,7.4931314 Z" id="Shape" fill-rule="nonzero"></path>
                    </g>
                </g>
            </g>
        </g>
    </g>
</svg>