<svg width="32" height="32" viewBox="-8 -8 32 32" fill="none" xmlns="http://www.w3.org/2000/svg">
  <path d="M8.01351 13.9999C4.7074 14.015 2.01509 11.3409 2.00006 8.02724C1.98504 4.71355 4.65298 2.01506 7.95909 2H8.01351C11.2985 1.99986 13.9699 4.65305 13.9998 7.94542C14.0142 9.53673 13.3974 11.0686 12.285 12.2041C11.1725 13.3395 9.6556 13.9855 8.06793 13.9999H8.01351Z" stroke="#333333" stroke-width="1.2"/>
  <path d="M6.00008 8.0178C6.00644 8.7323 6.3935 9.38914 7.01546 9.74088C7.63741 10.0926 8.39978 10.0858 9.01538 9.72308C9.63097 9.36032 10.0063 8.6967 9.99992 7.9822C9.99356 7.26769 9.6065 6.61086 8.98454 6.25912C8.36259 5.90737 7.60022 5.91416 6.98462 6.27692C6.36903 6.63968 5.99372 7.3033 6.00008 8.0178Z" fill="#333333"/>
  <path d="M8 7.9999C8 7.66853 8.26863 7.3999 8.6 7.3999H15.4C15.7314 7.3999 16 7.66853 16 7.9999C16 8.33127 15.7314 8.5999 15.4 8.5999H8.6C8.26863 8.5999 8 8.33127 8 7.9999Z" fill="#333333"/>
  <path d="M7.40039 0.6C7.40039 0.268629 7.66902 0 8.00039 0C8.33176 0 8.60039 0.268629 8.60039 0.6V7.4C8.60039 7.73137 8.33176 8 8.00039 8C7.66902 8 7.40039 7.73137 7.40039 7.4V0.6Z" fill="#333333"/>
  <path d="M7.40039 10.1C7.40039 9.76863 7.66902 9.5 8.00039 9.5C8.33176 9.5 8.60039 9.76863 8.60039 10.1V15.4C8.60039 15.7314 8.33176 16 8.00039 16C7.66902 16 7.40039 15.7314 7.40039 15.4V10.1Z" fill="#333333"/>
  <path d="M0 7.9999C0 7.66853 0.268629 7.3999 0.6 7.3999H6.9C7.23137 7.3999 7.5 7.66853 7.5 7.9999C7.5 8.33127 7.23137 8.5999 6.9 8.5999H0.6C0.268629 8.5999 0 8.33127 0 7.9999Z" fill="#333333"/>
</svg>
