<?xml version="1.0" encoding="UTF-8"?>
<svg width="32px" height="32px" viewBox="0 0 32 32" version="1.1" xmlns="http://www.w3.org/2000/svg" xmlns:xlink="http://www.w3.org/1999/xlink">
    <!-- Generator: Sketch 52 (66869) - http://www.bohemiancoding.com/sketch -->
    <title>script_move_black</title>
    <desc>Created with Sketch.</desc>
    <g id="规范" stroke="none" stroke-width="1" fill="none" fill-rule="evenodd">
        <g id="图标" transform="translate(-660.000000, -689.000000)">
            <g id="分组-65" transform="translate(660.000000, 689.000000)">
                <g id="图标-move">
                    <polygon id="Rectangle" fill="#D8D8D8" opacity="0" points="0 0 32 0 32 32 0 32"></polygon>
                    <g id="路径-(1)" stroke-width="1" transform="translate(10.000000, 8.000000)" fill="#333333">
                        <path d="M4.16441539,5.73517273 C4.16441539,6.68540726 4.96347494,7.45572455 5.94916484,7.45572455 C6.93485475,7.45572455 7.7339143,6.68540726 7.7339143,5.73517273 C7.7339143,4.7849382 6.93485475,4.01462091 5.94916484,4.01462091 C4.96347494,4.01462091 4.16441539,4.7849382 4.16441539,5.73517273 Z" id="Shape" fill-rule="nonzero"></path>
                        <path d="M5.94916484,0 C2.67712418,0 0,2.63817945 0,5.84987619 C0,10.3806626 5.94916484,14.9114491 5.94916484,14.9114491 C5.94916484,14.9114491 11.8983297,10.3806627 11.8983297,5.84987619 C11.8983297,2.63817945 9.22120553,0 5.94916484,0 Z M5.94916484,13.4203042 C4.16441539,11.8718076 1.18983295,8.71746257 1.18983298,5.90722791 C1.18983298,3.26904846 3.33153233,1.14703456 5.94916484,1.14703456 C8.56679736,1.14703456 10.7084967,3.26904846 10.7084967,5.84987619 C10.7084967,8.66011083 7.7339143,11.8718076 5.94916484,13.4203042 Z" id="Shape" fill-rule="nonzero"></path>
                    </g>
                </g>
            </g>
        </g>
    </g>
</svg>