<?xml version="1.0" encoding="UTF-8"?>
<svg width="32px" height="32px" viewBox="0 0 32 32" version="1.1" xmlns="http://www.w3.org/2000/svg" xmlns:xlink="http://www.w3.org/1999/xlink">
    <!-- Generator: Sketch 52 (66869) - http://www.bohemiancoding.com/sketch -->
    <title>script_received_black</title>
    <desc>Created with Sketch.</desc>
    <g id="规范" stroke="none" stroke-width="1" fill="none" fill-rule="evenodd">
        <g id="图标" transform="translate(-660.000000, -631.000000)">
            <g id="分组-49" transform="translate(660.000000, 631.000000)">
                <g id="图标-接收">
                    <g id="接收" stroke-width="1" transform="translate(9.000000, 10.000000)" fill="#333333" stroke="#333333">
                        <path d="M7.1293494,10.1563636 L2.15633735,10.1563636 C1.80896386,10.1563636 1.4746988,10.0306818 1.22072289,9.80318182 L5.17619277,5.96272727 L5.42361446,6.20295455 C5.65956627,6.43363636 5.98236145,6.5625 6.31662651,6.56090909 C6.65416867,6.56090909 6.97204819,6.43363636 7.20963855,6.20295455 L11.7779277,1.7675 C11.8041446,1.87090909 11.817253,1.97909091 11.817253,2.08568182 L11.817253,4.68204545 C11.817253,4.88568182 11.9876627,5.05113636 12.1973976,5.05113636 C12.4071325,5.05113636 12.5775422,4.88568182 12.5775422,4.68204545 L12.5775422,2.08568182 C12.5775422,0.935454545 11.6140723,5.68434189e-14 10.4293976,5.68434189e-14 L2.15633735,5.68434189e-14 C0.971662651,5.68434189e-14 0.00819277108,0.935454545 0.00819277108,2.08568182 L0.00819277108,8.80886364 C0.00819277108,9.95909091 0.971662651,10.8945455 2.15633735,10.8945455 L7.12771084,10.8945455 C7.33744578,10.8945455 7.50785542,10.7290909 7.50785542,10.5254545 C7.50785542,10.3218182 7.33908434,10.1563636 7.1293494,10.1563636 Z M0.814361446,9.1525 C0.783228916,9.03954545 0.768481928,8.92340909 0.768481928,8.80727273 L0.768481928,2.08568182 C0.768481928,1.96636364 0.78486747,1.84704545 0.817638554,1.73090909 L4.63874699,5.44090909 L0.814361446,9.1525 Z M10.427759,0.738181818 C10.7833253,0.738181818 11.1241446,0.870227273 11.3813976,1.10727273 L6.67219277,5.68113636 C6.57715663,5.77340909 6.45098795,5.82272727 6.31498795,5.82272727 C6.17898795,5.82272727 6.05281928,5.77181818 5.95778313,5.68113636 L1.22727711,1.085 C1.48125301,0.860681818 1.81387952,0.736590909 2.1579759,0.736590909 L10.427759,0.736590909 L10.427759,0.738181818 Z" id="Shape" stroke-width="0.5" fill-rule="nonzero"></path>
                        <path d="M7.84539759,8.84386364 L10.1541205,11.0854545 C10.2491566,11.1793182 10.3900723,11.2175 10.5227952,11.1840909 C10.6538795,11.1506818 10.7571084,11.0504545 10.7931566,10.9215909 C10.8275663,10.7943182 10.7898795,10.6575 10.6915663,10.5636364 L9.03171084,8.95204545 L13.2133012,8.95204545 C13.4230361,8.95204545 13.5934458,8.78659091 13.5934458,8.58295455 C13.5934458,8.37931818 13.4230361,8.21386364 13.2133012,8.21386364 L9.03171084,8.21386364 L10.6915663,6.60227273 C10.788241,6.51 10.8275663,6.37318182 10.7931566,6.24431818 C10.758747,6.11545455 10.6555181,6.01681818 10.5227952,5.98181818 C10.3900723,5.94840909 10.2507952,5.985 10.1541205,6.08045455 L7.84539759,8.32363636 C7.69792771,8.46681818 7.69792771,8.70068182 7.84539759,8.84386364 Z" id="Shape" stroke-width="0.5" fill-rule="nonzero"></path>
                    </g>
                    <rect id="Rectangle-Copy-6" fill="#D8D8D8" opacity="0" x="0" y="0" width="32" height="32"></rect>
                </g>
            </g>
        </g>
    </g>
</svg>