<?xml version="1.0" encoding="UTF-8"?>
<svg width="32px" height="32px" viewBox="0 0 32 32" version="1.1" xmlns="http://www.w3.org/2000/svg" xmlns:xlink="http://www.w3.org/1999/xlink">
    <!-- Generator: Sketch 52 (66869) - http://www.bohemiancoding.com/sketch -->
    <title>script_readpos_black</title>
    <desc>Created with Sketch.</desc>
    <g id="规范" stroke="none" stroke-width="1" fill="none" fill-rule="evenodd">
        <g id="图标" transform="translate(-276.000000, -631.000000)">
            <g id="分组-41" transform="translate(276.000000, 631.000000)">
                <g id="图标-读取位置">
                    <g id="读取位置" stroke-width="1" transform="translate(9.000000, 9.000000)" fill="#333333">
                        <path d="M7.19996657,12.8570832 C4.07562738,12.8712847 1.53133744,10.3500199 1.5171359,7.22568073 C1.50293436,4.10134154 4.02419905,1.55705156 7.14853824,1.54284998 L7.19996657,1.54284998 C10.3043315,1.5427217 12.8288617,4.04430161 12.8570832,7.14853824 C12.870785,8.64891728 12.2878703,10.0932812 11.2365865,11.1638546 C10.1853027,12.234428 8.75177508,12.8435053 7.25139491,12.8570832 L7.19996657,12.8570832 Z M7.19996657,2.57141663 L7.1588239,2.57141663 C4.60269584,2.59423877 2.54902644,4.68485544 2.57178125,7.24098409 C2.59453606,9.79711275 4.68509864,11.8508372 7.24122789,11.8281497 C9.79735715,11.8054622 11.8511367,9.71495376 11.8285165,7.1588239 C11.8059361,4.61862811 9.74026272,2.57131628 7.19996657,2.57141663 Z" id="Shape" fill-rule="nonzero"></path>
                        <path d="M7.45710823,2.57141663 C7.03106198,2.57141663 6.68568324,2.2260379 6.68568324,1.79999165 L6.68568324,0.771424988 C6.68568324,0.345378731 7.03106198,7.82634276e-17 7.45710823,0 C7.88315449,-7.82634276e-17 8.22853322,0.345378731 8.22853322,0.771424988 L8.22853322,1.79999165 C8.22853322,2.00458627 8.14725832,2.20080124 8.00258807,2.34547149 C7.85791782,2.49014174 7.66170286,2.57141663 7.45710823,2.57141663 Z M12.5999415,7.7142499 C12.1738952,7.71424989 11.8285165,7.36887116 11.8285165,6.94282491 C11.8285165,6.51677866 12.1738952,6.17139993 12.5999415,6.17139991 L13.6285082,6.17139991 C14.0545544,6.17139993 14.3999331,6.51677866 14.3999331,6.94282491 C14.3999331,7.36887116 14.0545544,7.71424989 13.6285082,7.7142499 L12.5999415,7.7142499 Z M0.771424988,7.7142499 C0.345378737,7.71424989 1.63420223e-08,7.36887116 1.63420223e-08,6.94282491 C1.63420222e-08,6.51677866 0.345378737,6.17139993 0.771424988,6.17139991 L1.79999165,6.17139991 C2.2260379,6.17139993 2.57141662,6.51677866 2.57141662,6.94282491 C2.57141662,7.36887116 2.2260379,7.71424989 1.79999165,7.7142499 L0.771424988,7.7142499 Z M7.4673939,14.3999331 C7.26191153,14.4026776 7.06382712,14.3233216 6.9170752,14.1794661 C6.77032327,14.0356106 6.68703492,13.8391472 6.68568324,13.633651 L6.68568324,12.6050843 C6.68431472,12.4004883 6.76428004,12.2037289 6.90798681,12.0580932 C7.05169357,11.9124575 7.24736935,11.8298759 7.45196541,11.8285165 C7.6565614,11.827148 7.85332082,11.9071133 7.99895653,12.0508201 C8.14459223,12.1945268 8.22717379,12.3902026 8.22853322,12.5947987 L8.22853322,13.6233653 C8.23143146,14.045457 7.89455413,14.3915011 7.47253673,14.3999331 L7.4673939,14.3999331 Z" id="Shape" fill-rule="nonzero"></path>
                        <path d="M5.14500413,7.22076282 C5.15154589,7.95567665 5.54966259,8.63127505 6.18938753,8.99306663 C6.82911246,9.35485822 7.61325619,9.34787823 8.24643936,8.97475597 C8.87962252,8.6016337 9.26564953,7.91905532 9.25910775,7.18414148 C9.25256599,6.44922764 8.85444928,5.77362924 8.21472435,5.41183766 C7.57499941,5.05004608 6.79085568,5.05702607 6.15767252,5.43014833 C5.52448935,5.80327059 5.13846234,6.48584898 5.14500413,7.22076282 Z" id="Shape" fill-rule="nonzero"></path>
                    </g>
                    <rect id="Rectangle-Copy-3" fill="#D8D8D8" opacity="0" x="0" y="0" width="32" height="32"></rect>
                </g>
            </g>
        </g>
    </g>
</svg>