<?xml version="1.0" encoding="UTF-8"?>
<svg width="32px" height="32px" viewBox="0 0 32 32" version="1.1" xmlns="http://www.w3.org/2000/svg" xmlns:xlink="http://www.w3.org/1999/xlink">
    <!-- Generator: Sketch 52 (66869) - http://www.bohemiancoding.com/sketch -->
    <title>script_setIO_black</title>
    <desc>Created with Sketch.</desc>
    <g id="规范" stroke="none" stroke-width="1" fill="none" fill-rule="evenodd">
        <g id="图标" transform="translate(-468.000000, -749.000000)">
            <g id="分组-69" transform="translate(468.000000, 749.000000)">
                <g id="图标-set-io">
                    <rect id="Rectangle-Copy-9" fill="#D8D8D8" opacity="0" x="0" y="0" width="32" height="32"></rect>
                    <g id="set-io" stroke-width="1" transform="translate(9.000000, 9.000000)" fill="#333333" stroke="#333333">
                        <path d="M6.33767216,0 L6.33767216,3.66708074 L4.52764098,3.66708074 C4.25613631,2.68322981 3.35112072,1.87826086 2.265102,1.87826086 C0.998080179,1.87826086 0.00256302925,2.8621118 0.00256302925,4.11428572 C0.00256302925,5.36645964 0.998080179,6.35031056 2.265102,6.35031056 C3.3511207,6.35031056 4.2561363,5.54534162 4.43713942,4.56149069 L6.2471706,4.56149069 L6.2471706,9.03354037 L4.43713942,9.03354037 C4.2561363,8.04968944 3.35112072,7.24472049 2.265102,7.24472049 C0.998080179,7.24472049 0.00256302925,8.22857143 0.00256302925,9.48074534 C0.00256302925,10.7329192 0.998080179,11.7167702 2.265102,11.7167702 C3.3511207,11.7167702 4.2561363,10.9118012 4.43713942,9.92795032 L6.2471706,9.92795032 L6.2471706,14.4 L14.3923109,14.4 L14.3923109,0 L6.33767216,0 Z M2.265102,5.45590062 C1.54108954,5.45590062 0.907578626,4.82981366 0.907578626,4.11428572 C0.907578626,3.39875778 1.54108954,2.77267081 2.265102,2.77267081 C2.98911446,2.77267081 3.62262539,3.39875776 3.62262539,4.11428572 C3.62262539,4.82981368 2.98911448,5.45590062 2.265102,5.45590062 Z M2.265102,10.8223602 C1.54108952,10.8223602 0.907578612,10.1962733 0.907578626,9.48074534 C0.90757864,8.76521738 1.54108954,8.13913044 2.265102,8.13913044 C2.98911446,8.13913044 3.62262539,8.76521739 3.62262539,9.48074534 C3.62262539,10.1962733 2.98911448,10.8223602 2.265102,10.8223602 Z M13.5777969,13.5055901 L7.24268775,13.5055901 L7.24268775,9.92795032 L8.2382049,9.92795032 C8.41920802,10.9118012 9.3242236,11.7167702 10.4102423,11.7167702 C11.6772641,11.7167702 12.6727813,10.7329193 12.6727813,9.48074534 C12.6727813,8.22857141 11.6772641,7.24472049 10.4102423,7.24472049 C9.32422361,7.24472049 8.41920802,8.04968944 8.2382049,9.03354037 L7.24268775,9.03354037 L7.24268775,4.56149069 L8.2382049,4.56149069 C8.41920802,5.54534162 9.3242236,6.35031056 10.4102423,6.35031056 C11.6772641,6.35031056 12.6727813,5.36645963 12.6727813,4.11428572 C12.6727813,2.86211181 11.6772641,1.87826086 10.4102423,1.87826086 C9.32422361,1.87826086 8.41920802,2.68322981 8.2382049,3.66708074 L7.24268775,3.66708074 L7.24268775,0.894409931 L13.5777969,0.894409931 L13.5777969,13.5055901 Z M9.05271893,9.48074534 C9.05271893,8.76521738 9.68622984,8.13913043 10.4102423,8.13913044 C11.1342548,8.13913045 11.7677657,8.76521739 11.7677657,9.48074534 C11.7677657,10.1962733 11.1342548,10.8223602 10.4102423,10.8223602 C9.68622985,10.8223602 9.05271893,10.1962733 9.05271893,9.48074534 Z M9.05271893,4.11428572 C9.05271893,3.39875776 9.68622984,2.77267081 10.4102423,2.77267081 C11.1342548,2.77267081 11.7677657,3.39875776 11.7677657,4.11428572 C11.7677657,4.82981368 11.1342548,5.45590062 10.4102423,5.45590062 C9.68622985,5.45590062 9.05271893,4.82981366 9.05271893,4.11428572 Z" id="Shape" stroke-width="0.3" fill-rule="nonzero"></path>
                    </g>
                </g>
            </g>
        </g>
    </g>
</svg>