<?xml version="1.0" encoding="UTF-8"?>
<svg width="32px" height="32px" viewBox="0 0 32 32" version="1.1" xmlns="http://www.w3.org/2000/svg" xmlns:xlink="http://www.w3.org/1999/xlink">
    <!-- Generator: Sketch 52 (66869) - http://www.bohemiancoding.com/sketch -->
    <title>script_writemodbus_black</title>
    <desc>Created with Sketch.</desc>
    <g id="规范" stroke="none" stroke-width="1" fill="none" fill-rule="evenodd">
        <g id="图标" transform="translate(-276.000000, -749.000000)">
            <g id="分组-73" transform="translate(276.000000, 749.000000)">
                <g id="图标-写modbus">
                    <g id="下载-(2)" stroke-width="1" transform="translate(16.000000, 15.600000) rotate(-180.000000) translate(-16.000000, -15.600000) translate(10.000000, 10.000000)" stroke="#333333">
                        <path d="M11.9999516,8.16596888 L11.9999516,10.4989754 C11.9999516,10.6934249 11.9325573,10.8587127 11.7980245,10.9947417 C11.6633958,11.1308677 11.4998907,11.1988741 11.307669,11.1988741 L0.692626,11.1988741 C0.500292406,11.1988741 0.336787266,11.1308677 0.202254469,10.9947417 C0.0676097656,10.8587127 0.000343359375,10.6934249 0.000343359375,10.4989754 L0.000343359375,8.16596888 C0.000343359375,7.97163249 0.06760975,7.80634473 0.202254469,7.67020257 C0.33678725,7.53418973 0.500292406,7.46607015 0.692626,7.46607015 L4.0458725,7.46607015 L5.01940445,8.45760277 C5.29817545,8.72985475 5.62515375,8.86586759 6.00013152,8.86586759 C6.37512527,8.86586759 6.70199166,8.72985475 6.98087458,8.45760277 L7.96161764,7.46607015 L11.307669,7.46607015 C11.4998747,7.46607015 11.6633958,7.53418972 11.7980245,7.67020257 C11.9325573,7.80634473 11.9999516,7.97163249 11.9999516,8.16596888 Z M9.65629263,4.01759351 C9.73798123,4.21695723 9.70429208,4.38702986 9.55533708,4.52794071 L6.32467947,7.79414011 C6.23811416,7.8865396 6.12996348,7.93265853 6.0001475,7.93265853 C5.8703635,7.93265853 5.76218084,7.88652344 5.67564752,7.79414011 L2.44497391,4.52792453 C2.29590697,4.38701368 2.26221781,4.21694105 2.34401836,4.01757734 C2.42570697,3.82802582 2.5675628,3.73325005 2.76947391,3.73325005 L4.61556625,3.73325005 L4.61556623,0.467050647 C4.61556623,0.340720682 4.6611993,0.231347863 4.75257734,0.138964529 C4.84384347,0.0466943481 4.95202613,0.000446104372 5.07709333,0.000446104372 L6.92318567,0.000446104372 C7.04812497,0.000446104372 7.15630761,0.0466943481 7.24768566,0.138964529 C7.33896777,0.231347863 7.38468078,0.340704506 7.38468078,0.467050647 L7.38468078,3.73325005 L9.23080511,3.73325005 C9.4327322,3.73325006 9.57447609,3.82804198 9.65629263,4.01759351 Z M9.093794,10.1271466 C9.18507611,10.0348764 9.23082109,9.92550361 9.23082109,9.7990605 C9.23082109,9.67274669 9.18507611,9.56337389 9.093794,9.47099055 C9.00241595,9.37872037 8.8942493,9.33247213 8.76929402,9.33247213 C8.64422681,9.33247213 8.53604416,9.37872037 8.44476205,9.47099055 C8.353384,9.56337389 8.30776692,9.67273053 8.30776692,9.7990605 C8.30776692,9.92550361 8.35339998,10.0348764 8.44476205,10.1271466 C8.53604416,10.2195299 8.64422681,10.265665 8.76929402,10.265665 C8.8942493,10.2656812 9.00243194,10.2195299 9.093794,10.1271466 Z M10.9398863,10.1271466 C11.0311685,10.0348764 11.0769134,9.92550361 11.0769134,9.7990605 C11.0769134,9.67274669 11.0311685,9.56337389 10.9398863,9.47099055 C10.8485083,9.37872037 10.7403416,9.33247213 10.6153864,9.33247213 C10.4903192,9.33247213 10.3821365,9.37872037 10.2908864,9.47099055 C10.1994763,9.56337389 10.1538593,9.67273053 10.1538593,9.7990605 C10.1538593,9.92550361 10.1994923,10.0348764 10.2908864,10.1271466 C10.3821365,10.2195299 10.4903192,10.265665 10.6153864,10.265665 C10.7403416,10.2656812 10.8485243,10.2195299 10.9398863,10.1271466 Z" id="Shape" fill-rule="nonzero"></path>
                    </g>
                    <rect id="Rectangle-Copy-8" fill="#D8D8D8" opacity="0" x="0" y="0" width="32" height="32"></rect>
                </g>
            </g>
        </g>
    </g>
</svg>