<?xml version="1.0" encoding="UTF-8"?>
<svg width="32px" height="32px" viewBox="0 0 32 32" version="1.1" xmlns="http://www.w3.org/2000/svg" xmlns:xlink="http://www.w3.org/1999/xlink">
    <!-- Generator: Sketch 52 (66869) - http://www.bohemiancoding.com/sketch -->
    <title>script_robot_white</title>
    <desc>Created with Sketch.</desc>
    <g id="规范" stroke="none" stroke-width="1" fill="none" fill-rule="evenodd">
        <g id="图标" transform="translate(-132.000000, -689.000000)">
            <g id="分组-54" transform="translate(132.000000, 689.000000)">
                <g id="图标-设置机器人-白色">
                    <g id="机器人-(1)" stroke-width="1" transform="translate(9.000000, 9.000000)" fill="#FFFFFF" stroke="#FFFFFF">
                        <path d="M14.0257907,13.6685957 L13.3255341,13.6685957 L12.9142928,13.6685957 L12.1504302,13.6685957 C11.9710522,12.4315017 10.8947273,11.4774435 9.59736405,11.4774435 L9.00769335,11.4774435 C9.00769335,11.4774435 9.00496683,9.05732723 8.99999047,9.03331424 C9.04407229,8.49191675 8.85805919,7.93538598 8.44097875,7.52210184 L6.49297001,5.59178627 L8.79950586,3.30622583 C8.91081964,3.19606531 9.00470678,3.06987962 9.07799166,2.93193683 L11.3664143,2.93193683 C11.5699877,2.93193683 11.7349704,2.7684369 11.7349704,2.56673535 L11.7349704,2.20160945 L12.5949092,2.20160945 L12.5949092,1.47116871 L11.7349704,1.47116871 L11.7349704,1.10596723 C11.7349704,0.904265683 11.5699877,0.74078465 11.3664143,0.74078465 L8.19942483,0.74078465 C7.6517005,0.555841181 7.02050288,0.679193506 6.58443217,1.11125727 L3.90321986,3.76812162 C2.91076862,3.9422583 2.15438014,4.80255055 2.15438014,5.83524133 C2.15438014,6.52608236 2.49294459,7.13997225 3.0141855,7.52285756 C3.08067107,7.61841699 3.15577067,7.70780097 3.23856048,7.78990996 L5.25694379,9.78988399 L5.25694379,11.4774435 L4.80626812,11.4774435 C3.50892393,11.4774435 2.43261807,12.4314828 2.25320199,13.6685957 L1.48932036,13.6685957 L1.07802185,13.6685957 L0.37778431,13.6685957 C0.17422999,13.6685957 0.00924726906,13.8320768 0.00924726906,14.0337405 C0.00924726906,14.2354799 0.17422999,14.3989609 0.37778431,14.3989609 L14.0257716,14.3989609 C14.2293259,14.3989609 14.3943086,14.2354799 14.3943086,14.0337405 C14.3943277,13.8320768 14.2293259,13.6685957 14.0257907,13.6685957 Z M10.9978391,1.4711876 L10.9978391,2.20159055 L9.25733148,2.20159055 C9.25613029,1.94984148 9.19357299,1.69837579 9.06985025,1.4711876 L10.9978391,1.4711876 Z M7.10557776,1.62773491 C7.26220933,1.4725479 7.47039682,1.38707601 7.69191182,1.38707601 C7.91344588,1.38707601 8.12163337,1.472529 8.27826495,1.62773491 C8.60157617,1.94810332 8.60157617,2.46937978 8.27826495,2.78978598 L6.1628139,4.88605756 C5.90322304,4.380689 5.44354796,3.99277815 4.88756783,3.82563188 L7.10557776,1.62773491 Z M2.89137795,5.83524133 C2.89137795,5.08012635 3.51136445,4.46576413 4.27341569,4.46576413 C5.035486,4.46576413 5.65547249,5.08014524 5.65547249,5.83524133 C5.65547249,6.59033742 5.035486,7.20471852 4.27341569,7.20471852 C3.51134538,7.20471852 2.89137795,6.59035631 2.89137795,5.83524133 Z M4.42169613,7.92935911 C5.313743,7.86791911 6.05531678,7.25735439 6.30344866,6.43698303 L7.9197569,8.03857948 C8.38675353,8.50134435 8.38675353,9.25428664 7.9197569,9.71703262 C7.69347527,9.94121683 7.39273883,10.0646447 7.07278332,10.0646447 C6.75286594,10.0646447 6.45207229,9.94121683 6.22584786,9.71703262 L4.42169613,7.92935911 Z M8.27058113,10.3831049 L8.27058113,11.477538 L5.99401787,11.477538 L5.99401787,10.4692948 C6.31894975,10.6856951 6.69576167,10.7942731 7.07280238,10.7942731 C7.49688024,10.7941975 7.9206721,10.6568644 8.27058113,10.3831049 Z M3.0005148,13.6685957 C3.17175134,12.8361706 3.91633764,12.2078465 4.80626812,12.2078465 L9.59734499,12.2078465 C10.4872183,12.2078465 11.2318046,12.8361895 11.4030983,13.6685957 L3.0005148,13.6685957 Z" id="Shape" stroke-width="0.5" fill-rule="nonzero"></path>
                        <path d="M4.27341569,5.47002096 C4.07022363,5.47002096 3.90485958,5.63386096 3.90485958,5.83524133 C3.90485958,6.0366028 4.07020457,6.2004617 4.27341569,6.2004617 C4.47664588,6.2004617 4.64199086,6.0366028 4.64199086,5.83524133 C4.64199086,5.63386096 4.47664588,5.47002096 4.27341569,5.47002096 Z" id="Shape" stroke-width="0.5" fill-rule="nonzero"></path>
                    </g>
                    <rect id="Rectangle-Copy-14" fill="#D8D8D8" opacity="0" x="0" y="0" width="32" height="32"></rect>
                </g>
            </g>
        </g>
    </g>
</svg>