<?xml version="1.0" encoding="UTF-8"?>
<svg width="32px" height="32px" viewBox="0 0 32 32" version="1.1" xmlns="http://www.w3.org/2000/svg" xmlns:xlink="http://www.w3.org/1999/xlink">
    <!-- Generator: Sketch 52 (66869) - http://www.bohemiancoding.com/sketch -->
    <title>script_call_black</title>
    <desc>Created with Sketch.</desc>
    <g id="规范" stroke="none" stroke-width="1" fill="none" fill-rule="evenodd">
        <g id="图标" transform="translate(-468.000000, -689.000000)">
            <g id="分组-61" transform="translate(468.000000, 689.000000)">
                <g id="图标-call">
                    <rect id="Rectangle-Copy-18" fill="#D8D8D8" opacity="0" x="0" y="0" width="32" height="32"></rect>
                    <g id="call" stroke-width="1" transform="translate(9.000000, 10.000000)" fill="#333333" stroke="#979797">
                        <path d="M12.0585366,0 L6.20487805,0 C4.91121951,0 3.86341463,1.01800948 3.86341463,2.27488152 L3.86341463,3.18483412 L2.34146341,3.18483412 C1.04780488,3.18483412 0,4.2028436 0,5.45971564 L0,9.72511848 C0,10.9819905 1.04780488,12 2.34146341,12 L8.19512195,12 C9.48878049,12 10.5365854,10.9819905 10.5365854,9.72511848 L10.5365854,8.81516588 L12.0585366,8.81516588 C13.3521951,8.81516588 14.4,7.7971564 14.4,6.54028436 L14.4,2.27488152 C14.4,1.01800948 13.3521951,0 12.0585366,0 Z M13.2292683,6.54028436 C13.2292683,7.16872038 12.7053659,7.67772512 12.0585366,7.67772512 L10.5365854,7.67772512 L10.5365854,5.45971564 C10.5365854,4.2028436 9.48878049,3.18483412 8.19512195,3.18483412 L5.91219512,3.18483412 L5.91219512,4.32227488 L8.19512195,4.32227488 C8.84195122,4.32227488 9.36585366,4.83127962 9.36585366,5.45971564 L9.36585366,9.72511848 C9.36585366,10.3535545 8.84195122,10.8625592 8.19512195,10.8625592 L2.34146341,10.8625592 C1.69463415,10.8625592 1.17073171,10.3535545 1.17073171,9.72511848 L1.17073171,5.45971564 C1.17073171,4.83127962 1.69463415,4.32227488 2.34146341,4.32227488 L3.86341463,4.32227488 L3.86341463,6.54028436 C3.86341463,7.7971564 4.91121951,8.81516588 6.20487805,8.81516588 L8.48780488,8.81516588 L8.48780488,7.67772512 L6.20487805,7.67772512 C5.55804878,7.67772512 5.03414634,7.16872038 5.03414634,6.54028436 L5.03414634,2.27488152 C5.03414634,1.6464455 5.55804878,1.13744076 6.20487805,1.13744076 L12.0585366,1.13744076 C12.7053659,1.13744076 13.2292683,1.6464455 13.2292683,2.27488152 L13.2292683,6.54028436 Z" id="Shape" stroke-width="0.2" fill-rule="nonzero"></path>
                    </g>
                </g>
            </g>
        </g>
    </g>
</svg>