<?xml version="1.0" encoding="UTF-8"?>
<svg width="32px" height="32px" viewBox="0 0 32 32" version="1.1" xmlns="http://www.w3.org/2000/svg" xmlns:xlink="http://www.w3.org/1999/xlink">
    <!-- Generator: Sketch 52 (66869) - http://www.bohemiancoding.com/sketch -->
    <title>script_send_black</title>
    <desc>Created with Sketch.</desc>
    <g id="规范" stroke="none" stroke-width="1" fill="none" fill-rule="evenodd">
        <g id="图标" transform="translate(-468.000000, -631.000000)">
            <g id="分组-45" transform="translate(468.000000, 631.000000)">
                <g id="图标-发送">
                    <g id="发送" stroke-width="1" transform="translate(9.000000, 9.000000)" fill="#333333" stroke="#333333">
                        <path d="M13.58504,0.364462433 C13.58232,0.352750915 13.5814133,0.341976319 13.5777867,0.330264801 C13.5622685,0.278585701 13.5381866,0.230082643 13.5066133,0.186915823 C13.5038933,0.183168138 13.50344,0.178951991 13.50072,0.175204306 C13.4957333,0.168645856 13.48848,0.165835091 13.48304,0.159745102 C13.4689867,0.143348977 13.4567467,0.12554747 13.4404267,0.111025188 C13.4213867,0.0946290635 13.3996267,0.0829175457 13.3787733,0.0702691066 C13.3697067,0.064647578 13.362,0.0576206674 13.35248,0.0529360603 C13.3072223,0.0292964708 13.2585251,0.0134718849 13.20832,0.00608998924 C13.1965333,0.0046846071 13.1852,0.00562152853 13.17296,0.0046846071 C13.1317451,0.00226497032 13.0904042,0.00573304748 13.0501067,0.0149907427 C13.03696,0.017801507 13.0242667,0.0196753498 13.0115733,0.0234230355 C13.0061333,0.0252968784 12.9997867,0.0252968784 12.9943467,0.0271707212 L0.301013333,4.71177783 C0.1428,4.76986695 0.0290133333,4.91321593 0.00498666667,5.08420409 C-0.01904,5.25519225 0.0494133333,5.42664887 0.184053333,5.52924177 L3.62666667,8.15918019 L3.62666667,12.6484392 C3.62663355,12.8428971 3.74285834,13.0171576 3.91872638,13.0863361 C4.09459442,13.1555146 4.29353441,13.1052256 4.41864,12.9599656 L6.59917333,10.4298093 L10.6102667,13.4935423 C10.7358259,13.590156 10.9008531,13.6126693 11.0463733,13.5530368 C11.1917821,13.4936653 11.2973226,13.3610555 11.3256267,13.2021597 L13.5922933,0.55372056 C13.5936533,0.546693649 13.5922933,0.539666738 13.5932,0.532639828 C13.5950133,0.520459849 13.5941067,0.508748332 13.5950133,0.496568353 C13.5978566,0.452266545 13.5944975,0.407772585 13.58504,0.364462433 Z M10.74808,1.85135673 L4.09450667,7.35155393 L1.40669333,5.29829064 L10.74808,1.85135673 Z M4.53333333,11.4182614 L4.53333333,8.85156512 L5.86704,9.87046717 L4.53333333,11.4182614 Z M10.5662933,12.2947513 L6.85712,9.46150097 C6.85122667,9.45587944 6.84896,9.44791561 6.84306667,9.44229408 C6.82674667,9.42730334 6.8068,9.42168181 6.78912,9.40950183 L4.84885333,7.9277606 L12.4789067,1.6204056 L10.5662933,12.2947513 Z" id="Shape" stroke-width="0.5" fill-rule="nonzero"></path>
                    </g>
                    <rect id="Rectangle-Copy-7" fill="#D8D8D8" opacity="0" x="0" y="0" width="32" height="32"></rect>
                </g>
            </g>
        </g>
    </g>
</svg>