<svg width="32px" height="32px" viewBox="0 0 32 32"   fill="none" xmlns="http://www.w3.org/2000/svg">
  <g transform="translate(9, 9)">
    <path d="M12.6886 13.8675H1.44813C1.05954 13.8545 0.691204 13.691 0.420974 13.4114C0.150743 13.1319 -0.000215831 12.7582 2.31614e-07 12.3694V12.1597L1.05364 3.38102H3.05106C3.19751 2.43922 3.67586 1.58082 4.39974 0.960796C5.12363 0.340775 6.04534 0 6.99846 0C7.95157 0 8.87329 0.340775 9.59717 0.960796C10.3211 1.58082 10.7994 2.43922 10.9459 3.38102H12.9133L13.9819 12.1547C14.0125 12.3495 14.0042 12.5484 13.9577 12.74C13.9112 12.9316 13.8273 13.1122 13.7109 13.2713C13.5944 13.4305 13.4477 13.565 13.2791 13.6673C13.1106 13.7696 12.9235 13.8376 12.7286 13.8675H12.6886ZM0.99871 12.2546V12.3694C0.99871 12.5018 1.05132 12.6289 1.14497 12.7225C1.23861 12.8162 1.36563 12.8688 1.49806 12.8688H12.6337C12.751 12.8339 12.8513 12.7571 12.9158 12.6531C12.9802 12.5491 13.0042 12.425 12.9832 12.3045L12.0394 4.37973H9.98709V3.97525C9.99436 3.2865 9.76836 2.61556 9.34586 2.07156C8.92336 1.52757 8.32922 1.14255 7.6601 0.979126C7.22273 0.878906 6.76843 0.878202 6.33075 0.977068C5.89307 1.07593 5.48319 1.27184 5.13136 1.55033C4.77954 1.82882 4.49475 2.18278 4.29804 2.58607C4.10133 2.98936 3.99771 3.43168 3.99484 3.88038V4.37973H1.94249L0.99871 12.2546ZM6.99097 5.8778C6.46122 5.8778 5.95317 5.66735 5.57858 5.29277C5.20399 4.91818 4.99355 4.41013 4.99355 3.88038C4.99355 3.35063 5.20399 2.84258 5.57858 2.46799C5.95317 2.0934 6.46122 1.88296 6.99097 1.88296C7.52071 1.88296 8.02877 2.0934 8.40335 2.46799C8.77794 2.84258 8.98839 3.35063 8.98839 3.88038C8.98839 4.41013 8.77794 4.91818 8.40335 5.29277C8.02877 5.66735 7.52071 5.8778 6.99097 5.8778ZM6.99097 2.88167C6.72609 2.88167 6.47207 2.98689 6.28477 3.17418C6.09748 3.36148 5.99226 3.6155 5.99226 3.88038C5.99226 4.14525 6.09748 4.39928 6.28477 4.58657C6.47207 4.77387 6.72609 4.87909 6.99097 4.87909C7.25584 4.87909 7.50987 4.77387 7.69716 4.58657C7.88445 4.39928 7.98968 4.14525 7.98968 3.88038C7.98968 3.6155 7.88445 3.36148 7.69716 3.17418C7.50987 2.98689 7.25584 2.88167 6.99097 2.88167ZM2.11726 11.8701H11.8447L11.4103 8.87392H2.56668L2.11726 11.8701ZM10.6962 10.8713H3.28076L3.42557 9.87263H10.5514L10.6962 10.8713Z" fill="#1F1F1F"/>
  </g>
</svg>
