<svg width="50" height="50" viewBox="0 0 50 50" fill="none" xmlns="http://www.w3.org/2000/svg">
<rect opacity="0.01" x="0.5" y="0.5" width="49" height="49" fill="#D8D8D8" stroke="#979797"/>
<path d="M25 45C36.0457 45 45 36.0457 45 25C45 13.9543 36.0457 5 25 5C13.9543 5 5 13.9543 5 25C5 36.0457 13.9543 45 25 45Z" fill="#E3E7EC"/>
<path d="M16 16.5909C16 15.0524 17.0466 14.5385 18.3538 15.4543L29.5982 23.3322C30.8981 24.243 30.9053 25.7146 29.5982 26.6304L18.3538 34.5083C17.0538 35.4191 16 34.9077 16 33.3717V16.5909Z" fill="#C0C0C0"/>
<rect x="32.128" y="15.7656" width="2.304" height="18.432" rx="1.152" fill="#C0C0C0"/>
</svg>
