<?xml version="1.0" encoding="UTF-8"?>
<svg width="60px" height="50px" viewBox="0 0 60 50" version="1.1" xmlns="http://www.w3.org/2000/svg" xmlns:xlink="http://www.w3.org/1999/xlink">
    <title>更新软件</title>
    <defs>
        <linearGradient x1="50%" y1="0%" x2="50%" y2="100%" id="linearGradient-1">
            <stop stop-color="#65A3FF" offset="0%"></stop>
            <stop stop-color="#3790FC" offset="100%"></stop>
        </linearGradient>
    </defs>
    <g id="规范" stroke="none" stroke-width="1" fill="none" fill-rule="evenodd">
        <g id="图标备份" transform="translate(-924.000000, -1809.000000)" fill-rule="nonzero">
            <g id="更新软件" transform="translate(924.000000, 1809.000000)">
                <rect id="矩形-copy" stroke="#979797" fill="#D8D8D8" opacity="0" x="0.5" y="0.5" width="59" height="49" rx="8"></rect>
                <path d="M37.0034419,23.0548774 C37.3427958,23.0548774 37.4559137,23.0777084 37.659526,23.3060178 C38.8811999,24.6987055 38.8359527,24.470396 39.7408963,25.4064648 C40.7137106,26.3881954 40.4874747,26.4110263 40.1254973,26.958969 C38.4061045,26.958969 38.4739753,26.7763214 38.4513517,27.5069117 C38.3834809,29.3790491 37.5237845,31.0228772 36.4604758,32.3927338 C34.4017291,35.0411234 30.0353763,36.2055016 26.8228266,34.5845045 C26.3477312,34.3561951 25.9631302,34.1507166 25.5106584,33.8539143 C25.1713045,33.6256049 24.6283384,33.2146479 24.4247261,32.8950146 L26.0988717,31.1370319 C26.3251076,31.2740175 26.5739671,31.5251579 26.8454502,31.7306364 C27.1621804,31.9589459 27.4110399,32.0731006 27.7277702,32.2329172 C31.3475445,34.0365619 35.9401332,31.3653413 35.9401332,26.9133071 C35.3971671,26.9133071 32.9538194,27.2101094 33.9718809,25.8630837 C34.2886112,25.5662814 36.777206,23.0548774 37.0034419,23.0548774 Z M24.7188327,27.1416166 C25.8500122,27.1416166 28.0445004,26.9361381 26.3477312,28.602797 C25.8047651,29.1279087 23.9948779,31.1370319 23.6102769,31.1370319 C23.3161702,31.1370319 21.7325189,29.3790491 21.506283,29.1507397 C21.2121764,28.8539374 20.7144574,28.4201495 20.4882215,28.1233472 C19.6285251,26.9817999 21.7777661,27.1187856 22.2302379,27.1187856 C22.2302379,25.4977885 22.886322,23.7169748 23.7460184,22.3927801 C26.2798604,18.5115195 31.7547691,17.5982817 35.4876614,20.4293188 C35.7817681,20.6576283 36.0758747,20.9544305 36.3473578,21.1370781 L35.0578132,22.4612729 C34.8089537,22.6667514 34.7637065,22.6210895 34.5827178,22.9178918 C34.0171281,22.5297657 33.5646563,22.0731468 32.863325,21.7763445 C28.6779609,20.0411927 24.8093271,23.2146941 24.7188327,27.1416166 L24.7188327,27.1416166 Z M20.2846092,16.1599321 C19.3117948,16.1599321 18.2484861,15.406511 15.9182564,16.4110725 C13.9273805,17.2558175 12.1627405,19.538912 12.1627405,21.570866 C12.1627405,23.237525 12.0722461,22.6210895 12.4342236,24.1735937 C9.9682523,25.4977885 8,28.5799661 8,31.6164817 C8,33.9224071 8.47509538,35.5662352 9.7420164,37.301387 C10.1039938,37.8036677 10.3754769,38.0548081 10.8053251,38.4657651 C12.2532349,39.9269456 14.3798523,41 17.2530482,41 L41.6412778,41 C45.6230296,41 48.8355793,39.0137078 50.781208,35.7032208 C52.2517413,33.2146479 51.9802583,31.6164817 51.9802583,28.8082755 C51.9802583,27.7123902 51.1205619,25.8859146 50.6907137,25.1781553 C49.2880511,22.8493989 46.9125742,21.0000924 44.2429906,20.4064879 C43.2701763,20.1781784 44.0620019,20.2695022 43.2023055,17.6439436 C42.5462214,15.7033132 41.9127609,14.6759207 40.7363342,13.2604022 C40.419604,12.8722761 40.3517332,12.7124595 39.8540142,12.3015025 C38.654964,11.2969409 37.5237845,10.452196 35.9853804,9.8585914 C32.0488758,8.35174905 27.682523,8.83119889 24.3116081,11.27411 C22.9089456,12.2786715 20.6465866,14.584597 20.2846092,16.1599321 Z" id="Shape" fill="url(#linearGradient-1)"></path>
            </g>
        </g>
    </g>
</svg>