<svg width="50" height="50" viewBox="0 0 50 50" fill="none" xmlns="http://www.w3.org/2000/svg">
  <path
    d="M24 5C34.4934 5 43 13.5066 43 24C43 25.3314 42.8621 26.6306 42.6016 27.8848C40.9577 26.1111 38.609 25 36 25C31.0294 25 27 29.0294 27 34C27 37.1949 28.6664 39.9986 31.1758 41.5957C28.9615 42.4996 26.5394 43 24 43C13.5066 43 5 34.4934 5 24C5 13.5066 13.5066 5 24 5Z"
    fill="#3790FC" />
  <circle cx="36" cy="34" r="7.25" fill="white" stroke="#3790FC" stroke-width="1.5" />
  <path d="M36 30V33.2245C36 33.5905 36.1999 33.9272 36.5211 34.1024L40 36" stroke="#3790FC" stroke-width="2"
    stroke-linecap="round" />
  <path
    d="M17 6C16.9998 8.625 18.529 11.725 23.29 12.25C26.6446 13.2012 25.9123 18.1953 25.121 25.6128C25.0267 26.4966 26.0257 27.0217 26.6822 26.4226C29.3654 23.9743 34.1722 19.1511 34.9281 15.4C35.5629 12.25 31.7541 10.15 32.8121 7"
    stroke="white" stroke-width="2" />
  <path d="M6 30.4583C13.1174 28.8958 14.056 31.5 15.3074 35.6667C16.4024 39.3125 22.9724 38.2708 21.8774 44"
    stroke="white" stroke-width="2" />
</svg>