<?xml version="1.0" encoding="UTF-8"?>
<svg width="60px" height="50px" viewBox="0 0 60 50" version="1.1" xmlns="http://www.w3.org/2000/svg" xmlns:xlink="http://www.w3.org/1999/xlink">
    <title>用户管理</title>
    <defs>
        <linearGradient x1="50%" y1="0%" x2="50%" y2="100%" id="linearGradient-1">
            <stop stop-color="#65A3FF" offset="0%"></stop>
            <stop stop-color="#3790FC" offset="100%"></stop>
        </linearGradient>
    </defs>
    <g id="规范" stroke="none" stroke-width="1" fill="none" fill-rule="evenodd">
        <g id="图标备份" transform="translate(-693.000000, -1811.000000)" fill-rule="nonzero">
            <g id="用户管理" transform="translate(693.000000, 1811.000000)">
                <rect id="矩形" stroke="#979797" fill="#D8D8D8" opacity="0" x="0.5" y="0.5" width="59" height="49" rx="8"></rect>
                <path d="M41.275,35.4402985 C41.275,33.5074627 40.725,31.5746269 39.625,30.1940299 C37.7,27.9850746 35.5,26.880597 32.75,26.880597 L27.8,26.880597 C25.875,26.880597 24.225,27.4328358 22.575,28.5373134 C20.65,29.9179104 19.55,31.8507463 19.275,34.0597015 C19,36.5447761 19.275,39.3059701 19,42.0671642 C19.275,42.0671642 19.825,42.3432836 20.1,42.3432836 C23.4,43.1716418 26.425,44 29.725,44 C31.65,44 33.85,44 35.775,43.7238806 C37.425,43.4477612 39.075,42.8955224 40.725,42.3432836 C41,42.3432836 41,42.0671642 41,41.7910448 C41.275,39.5820896 41.275,37.3731343 41.275,35.4402985 L41.275,35.4402985 Z M23.4,26.3283582 C23.95,26.0522388 24.225,26.0522388 24.775,25.7761194 C23.125,24.119403 22.3,22.4626866 22.3,20.2537313 L16.525,20.2537313 C15.425,20.2537313 14.325,20.5298507 13.5,20.8059701 C10.475,21.9104478 8,24.9477612 8,28.261194 L8,35.1641791 C8,35.4402985 8,35.4402985 8.275,35.7164179 C10.475,36.2686567 12.675,36.8208955 14.875,37.0970149 C15.7,37.0970149 16.8,37.3731343 17.625,37.3731343 L17.625,35.7164179 C17.625,34.8880597 17.625,34.0597015 17.9,33.2313433 C18.725,29.9179104 20.65,27.7089552 23.4,26.3283582 L23.4,26.3283582 Z M52,28.8134328 C52,27.7089552 51.725,26.3283582 51.175,25.2238806 C49.525,21.9104478 47.05,20.2537313 43.475,20.2537313 L38.25,20.2537313 C38.25,22.4626866 37.425,24.3955224 35.775,25.7761194 C36.05,25.7761194 36.325,26.0522388 36.325,26.0522388 C37.7,26.6044776 39.075,27.4328358 40.175,28.5373134 C41.825,30.4701493 42.65,32.6791045 42.65,35.1641791 L42.65,37.0970149 C44.025,36.8208955 45.125,36.8208955 46.5,36.5447761 C48.15,36.2686567 50.075,35.7164179 51.725,34.8880597 C52,34.8880597 52,34.6119403 52,34.3358209 L52,28.8134328 L52,28.8134328 Z M30.275,26.6044776 C33.85,26.6044776 36.875,23.5671642 36.6,19.9776119 C36.6,16.3880597 33.575,13.6268657 30.275,13.6268657 C26.7,13.6268657 23.675,16.3880597 23.675,19.9776119 C23.95,23.5671642 26.7,26.6044776 30.275,26.6044776 L30.275,26.6044776 Z M38.25,19.4253731 C39.075,19.7014925 39.9,19.9776119 41,19.9776119 C44.575,19.9776119 47.6,16.9402985 47.325,13.3507463 C47.325,9.76119403 44.3,7 41,7 C37.425,7 34.4,9.76119403 34.4,13.3507463 C36.6,14.4552239 37.975,16.6641791 38.25,19.4253731 Z M19,19.9776119 C20.1,19.9776119 21.475,19.7014925 22.3,19.1492537 C22.575,16.9402985 23.675,15.0074627 25.325,13.9029851 L25.325,13.6268657 C25.325,10.0373134 22.3,7.2761194 19,7.2761194 C15.425,7.2761194 12.4,10.0373134 12.4,13.6268657 C12.4,16.9402985 15.425,19.9776119 19,19.9776119 L19,19.9776119 Z" id="Shape" fill="url(#linearGradient-1)"></path>
            </g>
        </g>
    </g>
</svg>