<?xml version="1.0" encoding="UTF-8"?>
<svg width="30px" height="30px" viewBox="0 0 30 30" version="1.1" xmlns="http://www.w3.org/2000/svg" xmlns:xlink="http://www.w3.org/1999/xlink">
    <!-- Generator: sketchtool 52 (66869) - http://www.bohemiancoding.com/sketch -->
    <title>A473590F-F2A3-4B2B-90D1-CF47947FAF57</title>
    <desc>Created with sketchtool.</desc>
    <g id="键盘" stroke="none" stroke-width="1" fill="none" fill-rule="evenodd">
        <g id="FX键盘" transform="translate(-40.000000, -159.000000)" fill-rule="nonzero">
            <g id="icon_board_variable" transform="translate(40.000000, 159.000000)">
                <rect id="矩形" stroke="#979797" fill="#D8D8D8" opacity="0" x="0.5" y="0.5" width="29" height="29" rx="1"></rect>
                <g id="流程变量" transform="translate(5.000000, 5.000000)" fill="#FFFFFF">
                    <path d="M19.3878325,0.0771002456 L1.91216745,0.0771002456 C1.1069892,0.0771002456 0.45585948,0.72445273 0.45585948,1.52489182 L0.45585948,19.0251082 C0.45585948,19.8255473 1.10701992,20.4728997 1.91216745,20.4728998 L19.3878325,20.4728998 C20.1929187,20.4728998 20.8441405,19.8255473 20.8441405,19.0251082 L20.8441405,1.52489182 C20.8441098,0.726650144 20.192888,0.0771002754 19.3878325,0.0771002456 Z M17.2033399,1.52489182 C17.6058983,1.52489182 17.9315553,1.8485528 17.9315553,2.24881812 C17.9315553,2.64899189 17.605929,2.97271391 17.2033399,2.97271388 C16.8007508,2.97271385 16.4751859,2.64902237 16.4751859,2.24881812 C16.4751859,1.85075021 16.8007507,1.52489182 17.2033399,1.52489182 Z M14.2907546,1.52489182 C14.693313,1.52489182 15.0189086,1.8485528 15.0189086,2.24881812 C15.0189086,2.64899189 14.6933437,2.97271391 14.2907546,2.97271388 C13.8881655,2.97271385 13.5626006,2.64902237 13.5626006,2.24881812 C13.5626006,1.85075021 13.8881655,1.52489182 14.2907546,1.52489182 Z M11.3781693,1.52489182 C11.7807277,1.52489182 12.1063233,1.8485528 12.1063233,2.24881812 C12.1063233,2.64899189 11.7807585,2.97271391 11.3781693,2.97271388 C10.9755802,2.97271385 10.6500153,2.64902237 10.6500154,2.24881812 C10.6500154,1.85075021 10.9755802,1.52489182 11.3781693,1.52489182 Z M19.1221004,18.0425888 C19.1221004,18.4306463 18.8063593,18.7444799 18.4160805,18.7444799 L2.88385809,18.7444799 C2.49357933,18.7444799 2.17789962,18.4306463 2.17789959,18.0425888 L2.17789959,4.60521043 L19.1221004,4.60521043 L19.1220697,18.0425888 L19.1221004,18.0425888 Z" id="Shape"></path>
                    <path d="M4.06726829,9.20479905 C3.98517073,9.07504087 3.83590244,9.00938011 3.61946341,9.00938011 C3.5075122,9.00938011 3.40451707,9.03908379 3.30749268,9.09692779 C3.21196098,9.1547718 3.13583415,9.23137602 3.08209756,9.32205041 C3.02836098,9.41428815 3,9.50652589 3,9.60032698 C3,9.66129768 3.01044878,9.73321185 3.03134634,9.81606948 C3.0522439,9.90049046 3.07761951,9.98178474 3.10747317,10.0615157 C3.13732683,10.1412466 3.16718049,10.2225409 3.19554146,10.3022718 L4.44342439,13.5305926 C4.56731707,13.8416996 4.65687805,14.0496253 4.70912195,14.1559332 C4.76136585,14.2606778 4.84346341,14.3591689 4.95392195,14.4467166 C5.06438049,14.5358277 5.2121561,14.5796015 5.39724878,14.5796015 C5.54054634,14.5796015 5.66294634,14.5514612 5.76444878,14.4936172 C5.86445854,14.4373365 5.94954146,14.3576056 6.01820488,14.2559877 C6.08686829,14.1543699 6.14956098,14.0308651 6.20479024,13.8870368 C6.26001951,13.7432084 6.30629268,13.6243937 6.34062439,13.5305926 L7.59597073,10.2694414 C7.63179512,10.178767 7.66164878,10.0990361 7.69000976,10.0286853 C7.71687805,9.95833447 7.74076098,9.8832936 7.76165854,9.80356267 C7.7825561,9.72383174 7.79300488,9.65348093 7.79300488,9.59251022 C7.79300488,9.43930177 7.73479024,9.30329019 7.61836098,9.18603883 C7.50193171,9.06878747 7.36012683,9.01094346 7.19443902,9.01094346 C7.01830244,9.01094346 6.88843902,9.06566076 6.80186341,9.17353202 C6.7152878,9.28296662 6.62721951,9.4674421 6.53765854,9.7285218 L5.39724878,12.9756029 L4.33893659,9.86453338 C4.23892683,9.55498978 4.14787317,9.33455722 4.06726829,9.20479905 Z M12.4546537,14.3810559 C12.5860098,14.5139407 12.7188585,14.5796015 12.8517073,14.5796015 C13.0114244,14.5796015 13.154722,14.5217575 13.2801073,14.4060695 C13.4069854,14.2903815 13.469678,14.1621866 13.469678,14.021485 C13.469678,13.9417541 13.4293756,13.7619687 13.347278,13.4821287 C13.2651805,13.2022888 13.224878,12.9349557 13.224878,12.6770027 C13.2278634,12.4034162 13.2308488,12.15328 13.2323415,11.9297207 C13.2338341,11.7061614 13.2353268,11.4325749 13.2353268,11.1120879 C13.2353268,10.6039986 13.1681561,10.1959639 13.032322,9.88798365 C12.8964878,9.58000341 12.6636293,9.35488079 12.335239,9.2126158 C12.0068488,9.07035082 11.5545659,9 10.9798829,9 C10.4649073,9 10.0365073,9.07347752 9.69169756,9.22043256 C9.3468878,9.3673876 9.09313171,9.55498978 8.93042927,9.7832391 C8.76772683,10.0114884 8.68562927,10.2444278 8.68562927,10.4851839 C8.68562927,10.6383924 8.73936585,10.7650238 8.84683902,10.863515 C8.9543122,10.9620061 9.08119024,11.0120334 9.22747317,11.0120334 C9.39017561,11.0120334 9.4961561,10.9807663 9.54541463,10.9197956 C9.59467317,10.8572616 9.6797561,10.7306301 9.79917073,10.5352112 C9.91858537,10.3413556 10.0633756,10.1959639 10.2305561,10.0990361 C10.3977366,10.0021083 10.6485073,9.95364441 10.9798829,9.95364441 C11.3664878,9.95364441 11.6217366,10.0380654 11.7441366,10.2069074 C11.8665366,10.3757493 11.9366927,10.6415191 11.9531122,11.0026533 C11.6784585,11.0870743 11.4232098,11.1574251 11.1888585,11.2152691 C10.9545073,11.2731131 10.6723902,11.3387738 10.3425073,11.4091247 C10.0141171,11.4794755 9.80812683,11.5248127 9.72453659,11.5451362 C9.32897561,11.6358106 9.01700488,11.8124693 8.79011707,12.0766757 C8.56322927,12.3408822 8.44978537,12.6598059 8.44978537,13.0350102 C8.44978537,13.3132868 8.51844878,13.5696764 8.65577561,13.8073059 C8.79310244,14.0449353 8.9886439,14.2325375 9.2424,14.3716757 C9.4961561,14.510814 9.79170732,14.5796015 10.1260683,14.5796015 C10.4932683,14.5796015 10.8246439,14.5155041 11.1201951,14.3857459 C11.4157463,14.2575511 11.7217463,14.0636955 12.0381951,13.8057425 C12.184478,14.0574421 12.3232976,14.2497343 12.4546537,14.3810559 Z M11.9516195,12.0203951 C11.9516195,12.495654 11.8919122,12.8364646 11.7739902,13.0443903 C11.6709951,13.2319925 11.511278,13.385201 11.2918537,13.5040157 C11.0724293,13.6228304 10.8336,13.6822377 10.5753659,13.6822377 C10.3320585,13.6822377 10.1365171,13.6087602 9.9857561,13.4633685 C9.83499512,13.3179768 9.76036098,13.1413181 9.76036098,12.9333924 C9.76036098,12.7332834 9.82454634,12.5769482 9.95142439,12.4643869 C10.0797951,12.3518256 10.2126439,12.2767847 10.3544488,12.2392643 C10.494761,12.2001805 10.7485171,12.1407732 11.1142244,12.0579155 C11.4799317,11.9766213 11.7590634,11.8984537 11.9501268,11.8249762 L11.9501268,12.0203951 L11.9516195,12.0203951 Z M15.8997659,11.5560797 C15.9251415,11.2699864 15.9714146,11.0229768 16.0385854,10.8166144 C16.1057561,10.6086887 16.1997951,10.4523535 16.3207024,10.347609 C16.4416098,10.2428644 16.5983415,10.1897105 16.7908976,10.1897105 C16.9312098,10.1897105 17.0939122,10.2209775 17.2775122,10.2819482 C17.4611122,10.3444823 17.5775415,10.374186 17.6253073,10.374186 C17.753678,10.374186 17.8716,10.3194687 17.9820585,10.2115974 C18.0925171,10.1021628 18.1477463,9.96458787 18.1477463,9.79730926 C18.1477463,9.55967984 18.0178829,9.36895095 17.7596488,9.22512262 C17.5014146,9.08129428 17.2342244,9.00938011 16.9595707,9.00938011 C16.6849171,9.00938011 16.4654927,9.08129428 16.3012976,9.22512262 C16.1371024,9.36895095 15.9758927,9.58156676 15.819161,9.86297003 C15.8102049,9.58156676 15.7564683,9.36895095 15.6609366,9.22512262 C15.5654049,9.08129428 15.4086732,9.00938011 15.1907415,9.00938011 C14.7653268,9.00938011 14.5533659,9.31736035 14.5533659,9.93332084 L14.5533659,13.7478985 C14.5533659,14.021485 14.6145659,14.2294108 14.7354732,14.3701124 C14.8563805,14.510814 15.0116195,14.5811649 15.1996976,14.5811649 C15.390761,14.5811649 15.5489854,14.5123774 15.6743707,14.3732391 C15.7982634,14.2341008 15.8609561,14.0261751 15.8609561,13.7478985 L15.8609561,12.6035252 C15.8609561,12.1908004 15.8743902,11.842173 15.8997659,11.5560797 Z" id="Shape"></path>
                </g>
            </g>
        </g>
    </g>
</svg>