<svg width="74" height="74" viewBox="0 0 74 74" fill="none" xmlns="http://www.w3.org/2000/svg">
<path fill-rule="evenodd" clip-rule="evenodd" d="M0 4C0 1.79086 1.79086 0 4 0H70C72.2091 0 74 1.79086 74 4V70C74 72.2091 72.2091 74 70 74H4C1.79086 74 0 72.2091 0 70V4Z" fill="url(#paint0_linear_26644_175648)"/>
<rect width="3.28024" height="5.73802" transform="matrix(-0.258819 0.965926 0.965926 0.258819 46.6665 22.9746)" fill="white"/>
<rect width="3.28024" height="5.73802" rx="1" transform="matrix(-0.965926 -0.258819 -0.258819 0.965926 54.9163 23.8242)" fill="white"/>
<mask id="path-4-inside-1_26644_175648" fill="white">
<rect x="51.2119" y="20.8203" width="8.59537" height="18.6219" rx="1" transform="rotate(105 51.2119 20.8203)"/>
</mask>
<rect x="51.2119" y="20.8203" width="8.59537" height="18.6219" rx="1" transform="rotate(105 51.2119 20.8203)" fill="#8AE3BF" stroke="white" stroke-width="4" mask="url(#path-4-inside-1_26644_175648)"/>
<rect x="34.9033" y="14.8556" width="10" height="27.5617" rx="5" transform="rotate(45 34.9033 14.8556)" fill="#8AE3BF" stroke="white" stroke-width="2"/>
<rect x="44.8253" y="53.6328" width="13" height="31.4219" rx="6.5" transform="rotate(135 44.8253 53.6328)" fill="#8AE3BF" stroke="white" stroke-width="2"/>
<rect x="15.7071" y="29.2247" width="16" height="16" rx="8" transform="rotate(15 15.7071 29.2247)" fill="#54CE9D" stroke="white" stroke-width="2"/>
<rect x="19" y="35" width="6" height="6" rx="3" transform="rotate(15 19 35)" fill="white"/>
<path d="M52.6884 43.5457C52.6136 43.3653 52.5752 43.172 52.5752 42.9768C52.5752 42.7816 52.6136 42.5883 52.6884 42.4079C52.7631 42.2276 52.8726 42.0637 53.0106 41.9256C53.1486 41.7876 53.3125 41.6781 53.4929 41.6034C53.6732 41.5287 53.8665 41.4902 54.0618 41.4902C54.257 41.4902 54.4503 41.5287 54.6306 41.6034C54.811 41.6781 54.9749 41.7876 55.1129 41.9256C55.251 42.0637 55.3605 42.2276 55.4352 42.4079C55.5099 42.5883 55.5483 42.7816 55.5483 42.9768C55.5483 43.172 55.5099 43.3653 55.4352 43.5457C55.3605 43.726 55.251 43.8899 55.1129 44.028C54.9749 44.166 54.811 44.2755 54.6306 44.3502C54.4503 44.4249 54.257 44.4634 54.0618 44.4634C53.8665 44.4634 53.6732 44.4249 53.4929 44.3502C53.3125 44.2755 53.1486 44.166 53.0106 44.028C52.8726 43.8899 52.7631 43.726 52.6884 43.5457Z" fill="#8AE3BF" stroke="white"/>
<path d="M57.5005 35.4727L54.8563 32.8277C54.6566 32.6278 54.3887 32.5106 54.1063 32.4996C54.0779 32.4975 54.0494 32.4961 54.0205 32.4961C53.7194 32.4969 53.4307 32.616 53.2166 32.8277L50.5726 35.4727C50.3617 35.6836 50.2432 35.9698 50.2432 36.2681C50.2432 36.5665 50.3617 36.8526 50.5726 37.0636C50.7836 37.2746 51.0697 37.3931 51.3681 37.3931C51.6665 37.3931 51.9526 37.2746 52.1636 37.0636L52.8951 36.3321V39.0326C52.8951 39.3309 53.0136 39.6171 53.2246 39.8281C53.4355 40.0391 53.7217 40.1576 54.0201 40.1576C54.3184 40.1576 54.6046 40.0391 54.8156 39.8281C55.0265 39.6171 55.1451 39.3309 55.1451 39.0326V36.2991L55.9094 37.0636C56.0138 37.1681 56.1379 37.251 56.2744 37.3075C56.4109 37.3641 56.5572 37.3932 56.7049 37.3932C56.8527 37.3932 56.999 37.3641 57.1355 37.3075C57.272 37.251 57.3961 37.1681 57.5005 37.0636C57.7115 36.8526 57.83 36.5665 57.83 36.2681C57.83 35.9698 57.7115 35.6836 57.5005 35.4727ZM50.5365 50.5198L53.1808 53.1637C53.3804 53.3638 53.6483 53.481 53.9308 53.4919C53.9591 53.494 53.9877 53.4954 54.0165 53.4954C54.3176 53.4947 54.6063 53.3756 54.8202 53.1637L57.4647 50.5198C57.6756 50.3088 57.7941 50.0227 57.7941 49.7243C57.7941 49.4259 57.6756 49.1398 57.4647 48.9288C57.3602 48.8243 57.2362 48.7414 57.0997 48.6849C56.9632 48.6283 56.8168 48.5992 56.6691 48.5992C56.5213 48.5992 56.375 48.6283 56.2385 48.6849C56.102 48.7414 55.978 48.8243 55.8735 48.9288L55.142 49.6601V46.9605C55.142 46.6622 55.0235 46.376 54.8125 46.1651C54.6015 45.9541 54.3154 45.8355 54.017 45.8355C53.7186 45.8355 53.4325 45.9541 53.2215 46.1651C53.0105 46.376 52.892 46.6622 52.892 46.9605V49.6931L52.1277 48.9293C52.0232 48.8248 51.8992 48.7419 51.7627 48.6854C51.6262 48.6288 51.4799 48.5997 51.3321 48.5997C51.1844 48.5997 51.0381 48.6288 50.9016 48.6854C50.765 48.7419 50.641 48.8248 50.5365 48.9293C50.3257 49.1403 50.2073 49.4263 50.2073 49.7245C50.2073 50.0228 50.3257 50.3088 50.5365 50.5198ZM61.4793 46.5565L64.1233 43.9137C64.3232 43.7139 64.4404 43.4461 64.4514 43.1637C64.4535 43.1353 64.4549 43.1067 64.4549 43.0777C64.4545 42.7763 64.3354 42.4872 64.1233 42.273L61.4793 39.6286C61.3748 39.5241 61.2508 39.4412 61.1143 39.3847C60.9778 39.3281 60.8314 39.299 60.6837 39.299C60.5359 39.299 60.3896 39.3281 60.2531 39.3847C60.1166 39.4412 59.9926 39.5241 59.8881 39.6286C59.6771 39.8396 59.5586 40.1257 59.5586 40.4241C59.5586 40.7224 59.6771 41.0086 59.8881 41.2195L60.6196 41.951H57.9194C57.621 41.951 57.3348 42.0695 57.1239 42.2805C56.9129 42.4915 56.7944 42.7776 56.7944 43.076C56.7944 43.3744 56.9129 43.6605 57.1239 43.8715C57.3348 44.0825 57.621 44.201 57.9194 44.201H60.6526L59.8881 44.9655C59.6771 45.1765 59.5586 45.4627 59.5586 45.761C59.5586 46.0594 59.6771 46.3455 59.8881 46.5565C59.9926 46.661 60.1166 46.7439 60.2531 46.8004C60.3896 46.857 60.5359 46.8861 60.6837 46.8861C60.8314 46.8861 60.9778 46.857 61.1143 46.8004C61.2508 46.7439 61.3748 46.661 61.4793 46.5565ZM46.4033 39.5927L43.7591 42.2367C43.5591 42.4364 43.4419 42.7043 43.431 42.9867C43.4287 43.0151 43.4272 43.0437 43.4272 43.0727C43.4281 43.3737 43.5474 43.6622 43.7594 43.8759L46.4033 46.5206C46.6143 46.7316 46.9005 46.8501 47.1988 46.8501C47.4972 46.8501 47.7833 46.7316 47.9943 46.5206C48.2052 46.3096 48.3238 46.0235 48.3238 45.7252C48.3238 45.4268 48.2052 45.1407 47.9943 44.9297L47.2628 44.1982H49.963C50.2614 44.1982 50.5475 44.0797 50.7585 43.8687C50.9695 43.6577 51.088 43.3716 51.088 43.0732C51.088 42.7748 50.9695 42.4887 50.7585 42.2777C50.5475 42.0667 50.2614 41.9482 49.963 41.9482H47.2297L47.9943 41.1837C48.2052 40.9727 48.3238 40.6866 48.3238 40.3882C48.3238 40.0898 48.2052 39.8037 47.9943 39.5927C47.7833 39.3818 47.4972 39.2633 47.1988 39.2633C46.9005 39.2633 46.6143 39.3818 46.4033 39.5927Z" fill="white"/>
<defs>
<linearGradient id="paint0_linear_26644_175648" x1="0" y1="0" x2="0" y2="74" gradientUnits="userSpaceOnUse">
<stop stop-color="#5CDDA9"/>
<stop offset="1" stop-color="#4CC192"/>
</linearGradient>
</defs>
</svg>
